<svg width="124" height="109" viewBox="0 0 124 109" fill="none" xmlns="http://www.w3.org/2000/svg">
<circle cx="40" cy="69" r="40" fill="#0CB7F1"/>
<path d="M80.1751 49.118C80.0086 49.082 79.8378 49.0755 79.6691 49.1007C77.9788 48.9039 76.7036 47.4738 76.7007 45.7727C76.7007 44.9574 76.0397 44.2964 75.2245 44.2964C74.4092 44.2964 73.7482 44.9574 73.7482 45.7727C73.7525 48.6135 75.6526 51.1018 78.3918 51.8536V53.3298C78.3918 54.1451 79.0528 54.8061 79.868 54.8061C80.6833 54.8061 81.3443 54.1451 81.3443 53.3298V51.943C84.5059 51.2812 86.6547 48.3367 86.3224 45.1239C85.9893 41.9112 83.2826 39.4697 80.0526 39.469C78.2015 39.469 76.7007 37.9682 76.7007 36.1171C76.7007 34.266 78.2015 32.7653 80.0526 32.7653C81.9037 32.7653 83.4044 34.266 83.4044 36.1171C83.4044 36.9324 84.0654 37.5934 84.8807 37.5934C85.696 37.5934 86.357 36.9324 86.357 36.1171C86.3526 33.1343 84.2629 30.5617 81.3443 29.9461V28.6025C81.3443 27.7872 80.6833 27.1262 79.868 27.1262C79.0528 27.1262 78.3918 27.7872 78.3918 28.6025V30.0362C75.3456 30.8681 73.3849 33.8256 73.8044 36.9555C74.2239 40.0853 76.8946 42.4215 80.0526 42.4208C81.8792 42.4208 83.3691 43.8834 83.4023 45.7092C83.4362 47.5351 82.0003 49.0517 80.1751 49.118Z" fill="#1A242E"/>
<path d="M80.1751 49.118C80.0086 49.082 79.8378 49.0755 79.6691 49.1007C77.9788 48.9039 76.7036 47.4738 76.7007 45.7727C76.7007 44.9574 76.0397 44.2964 75.2245 44.2964C74.4092 44.2964 73.7482 44.9574 73.7482 45.7727C73.7525 48.6135 75.6526 51.1018 78.3918 51.8536V53.3298C78.3918 54.1451 79.0528 54.8061 79.868 54.8061C80.6833 54.8061 81.3443 54.1451 81.3443 53.3298V51.943C84.5059 51.2812 86.6547 48.3367 86.3224 45.1239C85.9893 41.9112 83.2826 39.4697 80.0526 39.469C78.2015 39.469 76.7007 37.9682 76.7007 36.1171C76.7007 34.266 78.2015 32.7653 80.0526 32.7653C81.9037 32.7653 83.4044 34.266 83.4044 36.1171C83.4044 36.9324 84.0654 37.5934 84.8807 37.5934C85.696 37.5934 86.357 36.9324 86.357 36.1171C86.3526 33.1343 84.2629 30.5617 81.3443 29.9461V28.6025C81.3443 27.7872 80.6833 27.1262 79.868 27.1262C79.0528 27.1262 78.3918 27.7872 78.3918 28.6025V30.0362C75.3456 30.8681 73.3849 33.8256 73.8044 36.9555C74.2239 40.0853 76.8946 42.4215 80.0526 42.4208C81.8792 42.4208 83.3691 43.8834 83.4023 45.7092C83.4362 47.5351 82.0003 49.0517 80.1751 49.118Z" fill="black" fill-opacity="0.2"/>
<path d="M58.6451 41.0585C58.6451 52.8815 68.2293 62.4657 80.0523 62.4657C91.8754 62.4657 101.46 52.8815 101.46 41.0585C101.46 29.2354 91.8754 19.6512 80.0523 19.6512C68.2351 19.6642 58.6588 29.2412 58.6451 41.0585ZM80.0523 22.6038C90.2449 22.6038 98.507 30.8659 98.507 41.0585C98.507 51.251 90.2449 59.5132 80.0523 59.5132C69.8598 59.5132 61.5977 51.251 61.5977 41.0585C61.6092 30.871 69.8649 22.6153 80.0523 22.6038Z" fill="#1A242E"/>
<path d="M58.6451 41.0585C58.6451 52.8815 68.2293 62.4657 80.0523 62.4657C91.8754 62.4657 101.46 52.8815 101.46 41.0585C101.46 29.2354 91.8754 19.6512 80.0523 19.6512C68.2351 19.6642 58.6588 29.2412 58.6451 41.0585ZM80.0523 22.6038C90.2449 22.6038 98.507 30.8659 98.507 41.0585C98.507 51.251 90.2449 59.5132 80.0523 59.5132C69.8598 59.5132 61.5977 51.251 61.5977 41.0585C61.6092 30.871 69.8649 22.6153 80.0523 22.6038Z" fill="black" fill-opacity="0.2"/>
<path d="M108.737 66.1052L97.1727 71.5691C95.5761 68.5993 92.5133 66.7093 89.1427 66.6141L78.4672 66.3207C76.7768 66.2724 75.1182 65.8443 73.6153 65.0679L72.529 64.505C66.9671 61.6058 60.3376 61.613 54.7814 64.5237L54.8492 62.0628C54.8715 61.2475 54.2293 60.5685 53.414 60.5462L41.7077 60.224C40.8925 60.2016 40.2142 60.8439 40.1918 61.6591L39.4847 87.3481C39.4624 88.1633 40.1046 88.8423 40.9199 88.8647L52.6261 89.1869H52.6665C53.4666 89.1869 54.1211 88.5504 54.1428 87.751L54.1767 86.522L57.2178 84.8936C58.4115 84.2514 59.8071 84.0986 61.111 84.4676L79.2716 89.5646C79.3033 89.574 79.3351 89.5812 79.3675 89.5884C80.6801 89.863 82.018 90.0007 83.3587 90C86.1988 90.0014 89.0057 89.3895 91.587 88.2044C91.6504 88.1756 91.7117 88.1417 91.7701 88.1035L118.101 71.0717C118.757 70.6472 118.969 69.7858 118.585 69.1053C116.63 65.6367 112.294 64.3154 108.737 66.1052ZM42.4769 85.954L43.1025 63.2161L51.857 63.4569L51.2313 86.1955L42.4769 85.954ZM90.2571 85.5676C87.0501 87.015 83.4683 87.4144 80.0213 86.7101L61.9097 81.6261C59.8712 81.0502 57.6893 81.2888 55.8245 82.2914L54.2704 83.124L54.6863 68.006C59.611 64.7306 65.9269 64.394 71.1717 67.1266L72.2579 67.6896C74.1566 68.6699 76.2506 69.2105 78.3864 69.2725L89.0627 69.5659C92.0613 69.6524 94.608 71.7875 95.2164 74.7256L79.3142 74.2866C78.4989 74.2643 77.8206 74.9073 77.7975 75.7218C77.7752 76.5371 78.4182 77.2161 79.2327 77.2384L96.782 77.7214H96.8231C97.6225 77.7207 98.2763 77.0842 98.2979 76.2855C98.3159 75.6439 98.2684 75.0017 98.1552 74.3702L110.016 68.7658C110.028 68.7607 110.04 68.755 110.051 68.7492C111.733 67.8979 113.768 68.1826 115.152 69.4636L90.2571 85.5676Z" fill="#1A242E"/>
<path d="M108.737 66.1052L97.1727 71.5691C95.5761 68.5993 92.5133 66.7093 89.1427 66.6141L78.4672 66.3207C76.7768 66.2724 75.1182 65.8443 73.6153 65.0679L72.529 64.505C66.9671 61.6058 60.3376 61.613 54.7814 64.5237L54.8492 62.0628C54.8715 61.2475 54.2293 60.5685 53.414 60.5462L41.7077 60.224C40.8925 60.2016 40.2142 60.8439 40.1918 61.6591L39.4847 87.3481C39.4624 88.1633 40.1046 88.8423 40.9199 88.8647L52.6261 89.1869H52.6665C53.4666 89.1869 54.1211 88.5504 54.1428 87.751L54.1767 86.522L57.2178 84.8936C58.4115 84.2514 59.8071 84.0986 61.111 84.4676L79.2716 89.5646C79.3033 89.574 79.3351 89.5812 79.3675 89.5884C80.6801 89.863 82.018 90.0007 83.3587 90C86.1988 90.0014 89.0057 89.3895 91.587 88.2044C91.6504 88.1756 91.7117 88.1417 91.7701 88.1035L118.101 71.0717C118.757 70.6472 118.969 69.7858 118.585 69.1053C116.63 65.6367 112.294 64.3154 108.737 66.1052ZM42.4769 85.954L43.1025 63.2161L51.857 63.4569L51.2313 86.1955L42.4769 85.954ZM90.2571 85.5676C87.0501 87.015 83.4683 87.4144 80.0213 86.7101L61.9097 81.6261C59.8712 81.0502 57.6893 81.2888 55.8245 82.2914L54.2704 83.124L54.6863 68.006C59.611 64.7306 65.9269 64.394 71.1717 67.1266L72.2579 67.6896C74.1566 68.6699 76.2506 69.2105 78.3864 69.2725L89.0627 69.5659C92.0613 69.6524 94.608 71.7875 95.2164 74.7256L79.3142 74.2866C78.4989 74.2643 77.8206 74.9073 77.7975 75.7218C77.7752 76.5371 78.4182 77.2161 79.2327 77.2384L96.782 77.7214H96.8231C97.6225 77.7207 98.2763 77.0842 98.2979 76.2855C98.3159 75.6439 98.2684 75.0017 98.1552 74.3702L110.016 68.7658C110.028 68.7607 110.04 68.755 110.051 68.7492C111.733 67.8979 113.768 68.1826 115.152 69.4636L90.2571 85.5676Z" fill="black" fill-opacity="0.2"/>
<path d="M81.5287 15.5007V1.47626C81.5287 0.661001 80.8677 0 80.0524 0C79.2372 0 78.5762 0.661001 78.5762 1.47626V15.5007C78.5762 16.316 79.2372 16.977 80.0524 16.977C80.8677 16.977 81.5287 16.316 81.5287 15.5007Z" fill="#1A242E"/>
<path d="M81.5287 15.5007V1.47626C81.5287 0.661001 80.8677 0 80.0524 0C79.2372 0 78.5762 0.661001 78.5762 1.47626V15.5007C78.5762 16.316 79.2372 16.977 80.0524 16.977C80.8677 16.977 81.5287 16.316 81.5287 15.5007Z" fill="black" fill-opacity="0.2"/>
<path d="M92.6005 15.5008V8.85761C92.6005 8.04235 91.9395 7.38135 91.1242 7.38135C90.3089 7.38135 89.6479 8.04235 89.6479 8.85761V15.5008C89.6479 16.316 90.3089 16.977 91.1242 16.977C91.9395 16.977 92.6005 16.316 92.6005 15.5008Z" fill="#1A242E"/>
<path d="M92.6005 15.5008V8.85761C92.6005 8.04235 91.9395 7.38135 91.1242 7.38135C90.3089 7.38135 89.6479 8.04235 89.6479 8.85761V15.5008C89.6479 16.316 90.3089 16.977 91.1242 16.977C91.9395 16.977 92.6005 16.316 92.6005 15.5008Z" fill="black" fill-opacity="0.2"/>
<path d="M70.4568 15.5008V8.85761C70.4568 8.04235 69.7958 7.38135 68.9805 7.38135C68.1653 7.38135 67.5043 8.04235 67.5043 8.85761V15.5008C67.5043 16.316 68.1653 16.977 68.9805 16.977C69.7958 16.977 70.4568 16.316 70.4568 15.5008Z" fill="#1A242E"/>
<path d="M70.4568 15.5008V8.85761C70.4568 8.04235 69.7958 7.38135 68.9805 7.38135C68.1653 7.38135 67.5043 8.04235 67.5043 8.85761V15.5008C67.5043 16.316 68.1653 16.977 68.9805 16.977C69.7958 16.977 70.4568 16.316 70.4568 15.5008Z" fill="black" fill-opacity="0.2"/>
</svg>
