<svg width="103" height="94" viewBox="0 0 103 94" fill="none" xmlns="http://www.w3.org/2000/svg">
<circle cx="40" cy="40" r="40" fill="#0CB7F1"/>
<path d="M94.4642 29.3026H96.936C97.7983 29.3026 98.4975 28.6034 98.4975 27.7411C98.4975 26.8789 97.7983 26.1797 96.936 26.1797H91.0024C90.1402 26.1797 89.4409 26.8789 89.4409 27.7411V33.6747C89.4409 34.537 90.1402 35.2362 91.0024 35.2362C91.8647 35.2362 92.5639 34.537 92.5639 33.6747V31.9567C97.3017 38.2995 99.877 45.9956 99.877 54C99.877 74.3342 83.3342 90.877 63 90.877C42.6658 90.877 26.123 74.3342 26.123 54C26.123 33.6658 42.6658 17.123 63 17.123C64.5039 17.123 66.0174 17.2143 67.4989 17.3943C68.3538 17.4977 69.1335 16.8889 69.2375 16.0327C69.3416 15.1767 68.732 14.3982 67.8759 14.2942C66.2697 14.099 64.6294 14 63 14C52.3156 14 42.2706 18.1607 34.7157 25.7157C27.1607 33.2706 23 43.3156 23 54C23 64.6844 27.1607 74.7294 34.7157 82.2842C42.2706 89.8393 52.3156 94 63 94C73.6844 94 83.7294 89.8393 91.2842 82.2842C98.8393 74.7294 103 64.6844 103 54C103 44.9839 99.9879 36.3283 94.4642 29.3026Z" fill="#1A242E"/>
<path d="M94.4642 29.3026H96.936C97.7983 29.3026 98.4975 28.6034 98.4975 27.7411C98.4975 26.8789 97.7983 26.1797 96.936 26.1797H91.0024C90.1402 26.1797 89.4409 26.8789 89.4409 27.7411V33.6747C89.4409 34.537 90.1402 35.2362 91.0024 35.2362C91.8647 35.2362 92.5639 34.537 92.5639 33.6747V31.9567C97.3017 38.2995 99.877 45.9956 99.877 54C99.877 74.3342 83.3342 90.877 63 90.877C42.6658 90.877 26.123 74.3342 26.123 54C26.123 33.6658 42.6658 17.123 63 17.123C64.5039 17.123 66.0174 17.2143 67.4989 17.3943C68.3538 17.4977 69.1335 16.8889 69.2375 16.0327C69.3416 15.1767 68.732 14.3982 67.8759 14.2942C66.2697 14.099 64.6294 14 63 14C52.3156 14 42.2706 18.1607 34.7157 25.7157C27.1607 33.2706 23 43.3156 23 54C23 64.6844 27.1607 74.7294 34.7157 82.2842C42.2706 89.8393 52.3156 94 63 94C73.6844 94 83.7294 89.8393 91.2842 82.2842C98.8393 74.7294 103 64.6844 103 54C103 44.9839 99.9879 36.3283 94.4642 29.3026Z" fill="black" fill-opacity="0.2"/>
<path d="M39.9377 37.5803C39.209 37.119 38.2445 37.3361 37.783 38.0643C34.2183 43.6944 32.6403 50.4653 33.3397 57.1298C34.0494 63.8932 37.0935 70.2712 41.9113 75.0891C47.7254 80.9033 55.3628 83.8104 63.0002 83.8104C70.6377 83.8104 78.2749 80.9034 84.0892 75.0891C95.7177 63.4606 95.7177 44.5396 84.0892 32.9113C79.2788 28.101 72.9112 25.058 66.1591 24.3429C59.5069 23.6379 52.7434 25.2036 47.1157 28.7508C46.386 29.2106 46.1675 30.1748 46.6272 30.9044C47.0871 31.634 48.0513 31.8525 48.7808 31.3928C59.3892 24.7065 73.0001 26.2388 81.8808 35.1196C92.2916 45.5304 92.2916 62.4699 81.8808 72.8807C71.4702 83.2917 54.5303 83.2917 44.1197 72.8807C35.3617 64.1227 33.8064 50.183 40.4218 39.7351C40.8829 39.0064 40.6663 38.0417 39.9377 37.5803Z" fill="#1A242E"/>
<path d="M39.9377 37.5803C39.209 37.119 38.2445 37.3361 37.783 38.0643C34.2183 43.6944 32.6403 50.4653 33.3397 57.1298C34.0494 63.8932 37.0935 70.2712 41.9113 75.0891C47.7254 80.9033 55.3628 83.8104 63.0002 83.8104C70.6377 83.8104 78.2749 80.9034 84.0892 75.0891C95.7177 63.4606 95.7177 44.5396 84.0892 32.9113C79.2788 28.101 72.9112 25.058 66.1591 24.3429C59.5069 23.6379 52.7434 25.2036 47.1157 28.7508C46.386 29.2106 46.1675 30.1748 46.6272 30.9044C47.0871 31.634 48.0513 31.8525 48.7808 31.3928C59.3892 24.7065 73.0001 26.2388 81.8808 35.1196C92.2916 45.5304 92.2916 62.4699 81.8808 72.8807C71.4702 83.2917 54.5303 83.2917 44.1197 72.8807C35.3617 64.1227 33.8064 50.183 40.4218 39.7351C40.8829 39.0064 40.6663 38.0417 39.9377 37.5803Z" fill="black" fill-opacity="0.2"/>
<path d="M83.2993 55.5868H85.2249C86.0871 55.5868 86.7864 54.8876 86.7864 54.0253C86.7864 53.1631 86.0871 52.4639 85.2249 52.4639H83.2993C82.437 52.4639 81.7378 53.1631 81.7378 54.0253C81.7378 54.8876 82.4369 55.5868 83.2993 55.5868Z" fill="#1A242E"/>
<path d="M83.2993 55.5868H85.2249C86.0871 55.5868 86.7864 54.8876 86.7864 54.0253C86.7864 53.1631 86.0871 52.4639 85.2249 52.4639H83.2993C82.437 52.4639 81.7378 53.1631 81.7378 54.0253C81.7378 54.8876 82.4369 55.5868 83.2993 55.5868Z" fill="black" fill-opacity="0.2"/>
<path d="M39.2136 53.9746C39.2136 54.8368 39.9129 55.536 40.7751 55.536H42.7007C43.563 55.536 44.2622 54.8368 44.2622 53.9746C44.2622 53.1123 43.563 52.4131 42.7007 52.4131H40.7751C39.9129 52.4131 39.2136 53.1122 39.2136 53.9746Z" fill="#1A242E"/>
<path d="M39.2136 53.9746C39.2136 54.8368 39.9129 55.536 40.7751 55.536H42.7007C43.563 55.536 44.2622 54.8368 44.2622 53.9746C44.2622 53.1123 43.563 52.4131 42.7007 52.4131H40.7751C39.9129 52.4131 39.2136 53.1122 39.2136 53.9746Z" fill="black" fill-opacity="0.2"/>
<path d="M64.5867 33.7007V31.7751C64.5867 30.9129 63.8875 30.2136 63.0253 30.2136C62.163 30.2136 61.4638 30.9129 61.4638 31.7751V33.7007C61.4638 34.563 62.163 35.2622 63.0253 35.2622C63.8875 35.2622 64.5867 34.563 64.5867 33.7007Z" fill="#1A242E"/>
<path d="M64.5867 33.7007V31.7751C64.5867 30.9129 63.8875 30.2136 63.0253 30.2136C62.163 30.2136 61.4638 30.9129 61.4638 31.7751V33.7007C61.4638 34.563 62.163 35.2622 63.0253 35.2622C63.8875 35.2622 64.5867 34.563 64.5867 33.7007Z" fill="black" fill-opacity="0.2"/>
<path d="M61.4132 74.2993V76.2249C61.4132 77.0871 62.1124 77.7864 62.9747 77.7864C63.8369 77.7864 64.5361 77.0871 64.5361 76.2249V74.2993C64.5361 73.437 63.8369 72.7378 62.9747 72.7378C62.1124 72.7378 61.4132 73.4369 61.4132 74.2993Z" fill="#1A242E"/>
<path d="M61.4132 74.2993V76.2249C61.4132 77.0871 62.1124 77.7864 62.9747 77.7864C63.8369 77.7864 64.5361 77.0871 64.5361 76.2249V74.2993C64.5361 73.437 63.8369 72.7378 62.9747 72.7378C62.1124 72.7378 61.4132 73.4369 61.4132 74.2993Z" fill="black" fill-opacity="0.2"/>
<path d="M55.1732 43.9649C54.5633 43.3553 53.5749 43.3553 52.9648 43.9649C52.3551 44.5746 52.3551 45.5634 52.9648 46.1733L58.2568 51.4653C57.8513 52.221 57.6207 53.084 57.6207 54C57.6207 56.9662 60.0338 59.3793 63 59.3793C65.9661 59.3793 68.3792 56.9662 68.3792 54C68.3792 53.084 68.1485 52.221 67.7431 51.4653L78.4209 40.7874C79.0307 40.1777 79.0307 39.1889 78.4209 38.579C77.811 37.9694 76.8226 37.9694 76.2125 38.579L65.5347 49.2569C64.7789 48.8513 63.9159 48.6207 63 48.6207C62.084 48.6207 61.221 48.8515 60.4652 49.2569L55.1732 43.9649ZM65.2563 54C65.2563 55.2442 64.2441 56.2563 63 56.2563C61.7558 56.2563 60.7436 55.2442 60.7436 54C60.7436 52.7558 61.7558 51.7437 63 51.7437C64.2441 51.7437 65.2563 52.7558 65.2563 54Z" fill="#1A242E"/>
<path d="M55.1732 43.9649C54.5633 43.3553 53.5749 43.3553 52.9648 43.9649C52.3551 44.5746 52.3551 45.5634 52.9648 46.1733L58.2568 51.4653C57.8513 52.221 57.6207 53.084 57.6207 54C57.6207 56.9662 60.0338 59.3793 63 59.3793C65.9661 59.3793 68.3792 56.9662 68.3792 54C68.3792 53.084 68.1485 52.221 67.7431 51.4653L78.4209 40.7874C79.0307 40.1777 79.0307 39.1889 78.4209 38.579C77.811 37.9694 76.8226 37.9694 76.2125 38.579L65.5347 49.2569C64.7789 48.8513 63.9159 48.6207 63 48.6207C62.084 48.6207 61.221 48.8515 60.4652 49.2569L55.1732 43.9649ZM65.2563 54C65.2563 55.2442 64.2441 56.2563 63 56.2563C61.7558 56.2563 60.7436 55.2442 60.7436 54C60.7436 52.7558 61.7558 51.7437 63 51.7437C64.2441 51.7437 65.2563 52.7558 65.2563 54Z" fill="black" fill-opacity="0.2"/>
<path d="M44.1186 35.1186C44.4106 34.8281 44.5775 34.4253 44.5775 34.0146C44.5775 33.6039 44.4106 33.2026 44.1186 32.9106C43.8281 32.6204 43.4267 32.4531 43.0146 32.4531C42.6039 32.4531 42.2011 32.6202 41.9106 32.9106C41.6204 33.2011 41.4531 33.6039 41.4531 34.0146C41.4531 34.4268 41.6202 34.8281 41.9106 35.1186C42.2011 35.4088 42.6039 35.5761 43.0146 35.5761C43.4267 35.5761 43.8281 35.4088 44.1186 35.1186Z" fill="#1A242E"/>
<path d="M44.1186 35.1186C44.4106 34.8281 44.5775 34.4253 44.5775 34.0146C44.5775 33.6039 44.4106 33.2026 44.1186 32.9106C43.8281 32.6204 43.4267 32.4531 43.0146 32.4531C42.6039 32.4531 42.2011 32.6202 41.9106 32.9106C41.6204 33.2011 41.4531 33.6039 41.4531 34.0146C41.4531 34.4268 41.6202 34.8281 41.9106 35.1186C42.2011 35.4088 42.6039 35.5761 43.0146 35.5761C43.4267 35.5761 43.8281 35.4088 44.1186 35.1186Z" fill="black" fill-opacity="0.2"/>
<path d="M73.8162 18.6654C74.2286 18.6654 74.6315 18.4998 74.9218 18.2079C75.2122 17.9175 75.3794 17.516 75.3794 17.104C75.3794 16.6933 75.2124 16.2904 74.9218 16C74.6315 15.7097 74.2286 15.5425 73.8162 15.5425C73.4056 15.5425 73.0027 15.7096 72.7124 16C72.422 16.2904 72.2548 16.6933 72.2548 17.104C72.2548 17.5162 72.4218 17.9175 72.7124 18.2079C73.0027 18.4998 73.4056 18.6654 73.8162 18.6654Z" fill="#1A242E"/>
<path d="M73.8162 18.6654C74.2286 18.6654 74.6315 18.4998 74.9218 18.2079C75.2122 17.9175 75.3794 17.516 75.3794 17.104C75.3794 16.6933 75.2124 16.2904 74.9218 16C74.6315 15.7097 74.2286 15.5425 73.8162 15.5425C73.4056 15.5425 73.0027 15.7096 72.7124 16C72.422 16.2904 72.2548 16.6933 72.2548 17.104C72.2548 17.5162 72.4218 17.9175 72.7124 18.2079C73.0027 18.4998 73.4056 18.6654 73.8162 18.6654Z" fill="black" fill-opacity="0.2"/>
</svg>
