<svg width="113" height="93" viewBox="0 0 113 93" fill="none" xmlns="http://www.w3.org/2000/svg">
<circle cx="40" cy="40" r="40" fill="#0CB7F1"/>
<path d="M111.906 41.75C112.196 41.7498 112.474 41.6345 112.679 41.4295C112.885 41.2244 113 40.9463 113 40.6562V32.8569C113 32.5742 112.89 32.3024 112.694 32.0988L94.6475 13.3337C94.4371 13.1272 94.1541 13.0115 93.8594 13.0115C93.5646 13.0115 93.2816 13.1272 93.0713 13.3337L75.0244 32.0988C74.8283 32.3024 74.7188 32.5742 74.7188 32.8569V40.6581C74.7194 40.9478 74.8349 41.2255 75.0399 41.4301C75.245 41.6348 75.5228 41.7498 75.8125 41.75H84.4062V83.1937H79.66V63.3006C79.66 63.0105 79.5448 62.7323 79.3396 62.5272C79.1345 62.3221 78.8563 62.2069 78.5662 62.2069H67.4338C67.1437 62.2069 66.8655 62.3221 66.6604 62.5272C66.4552 62.7323 66.34 63.0105 66.34 63.3006V83.1956H61.5938V63.3006C61.5936 63.0106 61.4783 62.7325 61.2732 62.5274C61.0681 62.3223 60.79 62.207 60.5 62.2069H49.3675C49.0774 62.2069 48.7992 62.3221 48.5941 62.5272C48.389 62.7323 48.2738 63.0105 48.2738 63.3006V83.1956H42.805V14.0938C42.8048 13.8037 42.6895 13.5256 42.4845 13.3205C42.2794 13.1155 42.0013 13.0002 41.7113 13H34.0938C33.8037 13.0002 33.5256 13.1155 33.3205 13.3205C33.1155 13.5256 33.0002 13.8037 33 14.0938V91.9062C33.0002 92.1963 33.1155 92.4744 33.3205 92.6795C33.5256 92.8845 33.8037 92.9998 34.0938 93H111.906C112.196 92.9998 112.474 92.8845 112.679 92.6795C112.885 92.4744 113 92.1963 113 91.9062V84.2894C113 83.9993 112.885 83.7211 112.68 83.516C112.475 83.3109 112.196 83.1956 111.906 83.1956H103.312V41.75H111.906ZM68.5275 64.3944H77.4725V83.1956H68.5275V64.3944ZM50.4613 64.3944H59.4062V83.1956H50.4613V64.3944ZM110.812 90.8125H35.1875V15.1875H40.6175V84.2894C40.6175 84.5795 40.7327 84.8577 40.9379 85.0628C41.143 85.2679 41.4212 85.3831 41.7113 85.3831H110.812V90.8125ZM86.5938 83.1956V40.6581C86.5939 40.5144 86.5658 40.372 86.5109 40.2391C86.456 40.1062 86.3755 39.9854 86.2739 39.8837C86.1723 39.782 86.0517 39.7012 85.9189 39.6461C85.7861 39.591 85.6438 39.5626 85.5 39.5625H76.9062V33.2975L93.8594 15.6725L110.812 33.2975V39.5625H102.219C101.929 39.5627 101.651 39.678 101.446 39.883C101.24 40.0881 101.125 40.3662 101.125 40.6562V83.1937L86.5938 83.1956Z" fill="#1A242E"/>
<path d="M111.906 41.75C112.196 41.7498 112.474 41.6345 112.679 41.4295C112.885 41.2244 113 40.9463 113 40.6562V32.8569C113 32.5742 112.89 32.3024 112.694 32.0988L94.6475 13.3337C94.4371 13.1272 94.1541 13.0115 93.8594 13.0115C93.5646 13.0115 93.2816 13.1272 93.0713 13.3337L75.0244 32.0988C74.8283 32.3024 74.7188 32.5742 74.7188 32.8569V40.6581C74.7194 40.9478 74.8349 41.2255 75.0399 41.4301C75.245 41.6348 75.5228 41.7498 75.8125 41.75H84.4062V83.1937H79.66V63.3006C79.66 63.0105 79.5448 62.7323 79.3396 62.5272C79.1345 62.3221 78.8563 62.2069 78.5662 62.2069H67.4338C67.1437 62.2069 66.8655 62.3221 66.6604 62.5272C66.4552 62.7323 66.34 63.0105 66.34 63.3006V83.1956H61.5938V63.3006C61.5936 63.0106 61.4783 62.7325 61.2732 62.5274C61.0681 62.3223 60.79 62.207 60.5 62.2069H49.3675C49.0774 62.2069 48.7992 62.3221 48.5941 62.5272C48.389 62.7323 48.2738 63.0105 48.2738 63.3006V83.1956H42.805V14.0938C42.8048 13.8037 42.6895 13.5256 42.4845 13.3205C42.2794 13.1155 42.0013 13.0002 41.7113 13H34.0938C33.8037 13.0002 33.5256 13.1155 33.3205 13.3205C33.1155 13.5256 33.0002 13.8037 33 14.0938V91.9062C33.0002 92.1963 33.1155 92.4744 33.3205 92.6795C33.5256 92.8845 33.8037 92.9998 34.0938 93H111.906C112.196 92.9998 112.474 92.8845 112.679 92.6795C112.885 92.4744 113 92.1963 113 91.9062V84.2894C113 83.9993 112.885 83.7211 112.68 83.516C112.475 83.3109 112.196 83.1956 111.906 83.1956H103.312V41.75H111.906ZM68.5275 64.3944H77.4725V83.1956H68.5275V64.3944ZM50.4613 64.3944H59.4062V83.1956H50.4613V64.3944ZM110.812 90.8125H35.1875V15.1875H40.6175V84.2894C40.6175 84.5795 40.7327 84.8577 40.9379 85.0628C41.143 85.2679 41.4212 85.3831 41.7113 85.3831H110.812V90.8125ZM86.5938 83.1956V40.6581C86.5939 40.5144 86.5658 40.372 86.5109 40.2391C86.456 40.1062 86.3755 39.9854 86.2739 39.8837C86.1723 39.782 86.0517 39.7012 85.9189 39.6461C85.7861 39.591 85.6438 39.5626 85.5 39.5625H76.9062V33.2975L93.8594 15.6725L110.812 33.2975V39.5625H102.219C101.929 39.5627 101.651 39.678 101.446 39.883C101.24 40.0881 101.125 40.3662 101.125 40.6562V83.1937L86.5938 83.1956Z" fill="black" fill-opacity="0.2"/>
<path d="M108 35.6581V34.8712C108 34.5884 107.891 34.3167 107.694 34.1131L94.6475 20.5468C94.4372 20.3403 94.1542 20.2246 93.8594 20.2246C93.5646 20.2246 93.2816 20.3403 93.0712 20.5468L80.0244 34.1131C79.8282 34.3167 79.7186 34.5884 79.7188 34.8712V35.6581C79.7194 35.9478 79.8349 36.2254 80.0399 36.4301C80.245 36.6347 80.5228 36.7498 80.8125 36.7499H89.4062V79.2874C89.4064 79.5775 89.5217 79.8556 89.7268 80.0607C89.9319 80.2657 90.21 80.381 90.5 80.3812H97.2188C97.5088 80.381 97.7869 80.2657 97.992 80.0607C98.197 79.8556 98.3123 79.5775 98.3125 79.2874V36.7499H106.906C107.196 36.7498 107.474 36.6347 107.679 36.4301C107.884 36.2254 107.999 35.9478 108 35.6581ZM97.2188 34.5624C96.9287 34.5626 96.6506 34.6779 96.4455 34.883C96.2405 35.0881 96.1252 35.3662 96.125 35.6562V78.1937H91.5938V35.6581C91.5939 35.5143 91.5658 35.3719 91.5109 35.239C91.456 35.1061 91.3755 34.9854 91.2739 34.8836C91.1723 34.7819 91.0517 34.7012 90.9189 34.646C90.7861 34.5909 90.6438 34.5625 90.5 34.5624H82.625L93.8594 22.8812L105.094 34.5624H97.2188Z" fill="#1A242E"/>
<path d="M108 35.6581V34.8712C108 34.5884 107.891 34.3167 107.694 34.1131L94.6475 20.5468C94.4372 20.3403 94.1542 20.2246 93.8594 20.2246C93.5646 20.2246 93.2816 20.3403 93.0712 20.5468L80.0244 34.1131C79.8282 34.3167 79.7186 34.5884 79.7188 34.8712V35.6581C79.7194 35.9478 79.8349 36.2254 80.0399 36.4301C80.245 36.6347 80.5228 36.7498 80.8125 36.7499H89.4062V79.2874C89.4064 79.5775 89.5217 79.8556 89.7268 80.0607C89.9319 80.2657 90.21 80.381 90.5 80.3812H97.2188C97.5088 80.381 97.7869 80.2657 97.992 80.0607C98.197 79.8556 98.3123 79.5775 98.3125 79.2874V36.7499H106.906C107.196 36.7498 107.474 36.6347 107.679 36.4301C107.884 36.2254 107.999 35.9478 108 35.6581ZM97.2188 34.5624C96.9287 34.5626 96.6506 34.6779 96.4455 34.883C96.2405 35.0881 96.1252 35.3662 96.125 35.6562V78.1937H91.5938V35.6581C91.5939 35.5143 91.5658 35.3719 91.5109 35.239C91.456 35.1061 91.3755 34.9854 91.2739 34.8836C91.1723 34.7819 91.0517 34.7012 90.9189 34.646C90.7861 34.5909 90.6438 34.5625 90.5 34.5624H82.625L93.8594 22.8812L105.094 34.5624H97.2188Z" fill="black" fill-opacity="0.2"/>
</svg>
