<svg width="100" height="95" viewBox="0 0 100 95" fill="none" xmlns="http://www.w3.org/2000/svg">
<circle cx="60" cy="55" r="40" fill="#0CB7F1"/>
<g clip-path="url(#clip0_175:763)">
<path d="M68.7867 32.3468C69.6433 31.5309 70.3258 30.8951 70.9911 30.2301C71.6564 29.5652 72.4188 29.121 73.2154 29.9398C73.9007 30.6541 73.678 31.4467 73.0584 32.1349C71.6078 33.7376 70.1554 35.3384 68.701 36.9373C67.9044 37.8083 67.0792 37.8693 66.2568 36.9634C64.7748 35.3258 63.2272 33.7405 61.8623 32.0071C61.5168 31.5687 61.4711 30.4653 61.7795 29.9979C62.3163 29.1762 63.1901 29.4172 63.8554 30.0966C64.4265 30.7034 64.9976 31.3306 65.8542 32.222C65.6666 28.7783 64.8564 25.3992 63.4642 22.2542C56.7283 6.77836 40.2897 -0.704023 24.4593 4.46716C7.64097 9.95482 -1.66195 29.7656 4.96831 46.3854C10.2051 59.5151 20.0077 66.3907 33.9079 67.2094C34.9016 67.2675 35.8267 67.4243 35.8039 68.6409C35.781 69.8575 34.9158 70.0927 33.885 70.0433C19.7793 69.3755 9.35421 62.6683 3.33216 49.7447C-3.7207 34.6116 0.762288 17.2485 13.7458 7.06291C28.9338 -4.85897 51.5372 -1.27602 62.5362 14.7544C66.1226 19.9952 68.1385 25.8023 68.7867 32.3468Z" fill="#1A242E"/>
<path d="M68.7867 32.3468C69.6433 31.5309 70.3258 30.8951 70.9911 30.2301C71.6564 29.5652 72.4188 29.121 73.2154 29.9398C73.9007 30.6541 73.678 31.4467 73.0584 32.1349C71.6078 33.7376 70.1554 35.3384 68.701 36.9373C67.9044 37.8083 67.0792 37.8693 66.2568 36.9634C64.7748 35.3258 63.2272 33.7405 61.8623 32.0071C61.5168 31.5687 61.4711 30.4653 61.7795 29.9979C62.3163 29.1762 63.1901 29.4172 63.8554 30.0966C64.4265 30.7034 64.9976 31.3306 65.8542 32.222C65.6666 28.7783 64.8564 25.3992 63.4642 22.2542C56.7283 6.77836 40.2897 -0.704023 24.4593 4.46716C7.64097 9.95482 -1.66195 29.7656 4.96831 46.3854C10.2051 59.5151 20.0077 66.3907 33.9079 67.2094C34.9016 67.2675 35.8267 67.4243 35.8039 68.6409C35.781 69.8575 34.9158 70.0927 33.885 70.0433C19.7793 69.3755 9.35421 62.6683 3.33216 49.7447C-3.7207 34.6116 0.762288 17.2485 13.7458 7.06291C28.9338 -4.85897 51.5372 -1.27602 62.5362 14.7544C66.1226 19.9952 68.1385 25.8023 68.7867 32.3468Z" fill="black" fill-opacity="0.2"/>
<path d="M56.917 33.5909C56.7799 22.2816 46.6689 11.7563 35.2901 11.5241C35.2901 12.7581 35.2901 13.9921 35.2901 15.229C35.2901 16.2975 34.9246 17.0959 33.7824 17.0814C32.7088 17.0814 32.3547 16.2713 32.3719 15.2812C32.3719 14.0385 32.3719 12.7958 32.3719 11.5589C21.31 11.5908 10.922 22.0116 10.725 33.5763H13.9259C15.0224 33.5763 16.1817 33.6141 16.1588 35.1239C16.1389 36.5321 15.0424 36.596 13.9887 36.5757C12.9351 36.5554 11.9129 36.5757 10.9135 36.5757C8.88898 45.6492 22.101 59.2812 32.3747 58.6192C32.3747 57.5043 32.3747 56.369 32.3747 55.2308C32.3747 54.1885 32.5089 53.1984 33.8024 53.1751C35.0959 53.1519 35.3044 54.1043 35.2901 55.1873C35.2672 56.639 35.2901 58.0908 35.2901 59.5426C35.2901 61.4908 34.8618 61.9351 32.8915 61.8218C23.7 61.3021 16.4101 57.1994 11.5931 49.2351C6.32197 40.5245 6.01358 31.3145 10.8278 22.3136C15.7105 13.1878 23.5801 8.49568 33.7739 8.37663C47.971 8.17339 59.6981 19.8688 60.0779 34.2616C60.1264 36.1169 59.681 36.5844 57.8592 36.6076C56.3373 36.6076 54.8125 36.6076 53.2906 36.6076C52.2998 36.6076 51.5773 36.2214 51.5773 35.1239C51.5773 34.0264 52.2912 33.617 53.2735 33.6054C54.447 33.5792 55.6292 33.5909 56.917 33.5909Z" fill="#1A242E"/>
<path d="M56.917 33.5909C56.7799 22.2816 46.6689 11.7563 35.2901 11.5241C35.2901 12.7581 35.2901 13.9921 35.2901 15.229C35.2901 16.2975 34.9246 17.0959 33.7824 17.0814C32.7088 17.0814 32.3547 16.2713 32.3719 15.2812C32.3719 14.0385 32.3719 12.7958 32.3719 11.5589C21.31 11.5908 10.922 22.0116 10.725 33.5763H13.9259C15.0224 33.5763 16.1817 33.6141 16.1588 35.1239C16.1389 36.5321 15.0424 36.596 13.9887 36.5757C12.9351 36.5554 11.9129 36.5757 10.9135 36.5757C8.88898 45.6492 22.101 59.2812 32.3747 58.6192C32.3747 57.5043 32.3747 56.369 32.3747 55.2308C32.3747 54.1885 32.5089 53.1984 33.8024 53.1751C35.0959 53.1519 35.3044 54.1043 35.2901 55.1873C35.2672 56.639 35.2901 58.0908 35.2901 59.5426C35.2901 61.4908 34.8618 61.9351 32.8915 61.8218C23.7 61.3021 16.4101 57.1994 11.5931 49.2351C6.32197 40.5245 6.01358 31.3145 10.8278 22.3136C15.7105 13.1878 23.5801 8.49568 33.7739 8.37663C47.971 8.17339 59.6981 19.8688 60.0779 34.2616C60.1264 36.1169 59.681 36.5844 57.8592 36.6076C56.3373 36.6076 54.8125 36.6076 53.2906 36.6076C52.2998 36.6076 51.5773 36.2214 51.5773 35.1239C51.5773 34.0264 52.2912 33.617 53.2735 33.6054C54.447 33.5792 55.6292 33.5909 56.917 33.5909Z" fill="black" fill-opacity="0.2"/>
<path d="M49.6841 45.478C49.5499 44.0988 49.4328 43.0884 49.3586 42.0779C49.2587 40.7365 49.7869 39.8538 51.1432 39.5345C52.2997 39.2644 53.4475 38.9363 54.5897 38.6053C55.9089 38.2192 56.8141 38.6924 57.3709 39.9322C57.862 41.0327 58.2846 42.1709 58.8528 43.2248C59.7609 44.9031 61.2628 45.1005 62.5849 43.7242C63.3787 42.8967 64.0725 41.9676 64.8149 41.0878C65.723 40.0077 66.7509 39.7929 67.9559 40.5826C68.9153 41.2069 69.8947 41.8137 70.9027 42.3567C72.1448 43.0303 72.3818 44.0582 71.9763 45.3009C71.6022 46.4449 71.0711 47.5395 70.7313 48.6951C70.206 50.4808 71.1739 51.7931 73.0157 51.7815C74.1578 51.7815 75.3 51.6015 76.425 51.4912C77.8128 51.3721 78.7094 51.9296 79.0149 53.3756C79.2519 54.4615 79.586 55.5213 79.843 56.6014C80.2484 58.3435 79.8801 59.0694 78.2696 59.8185C77.3188 60.2598 76.3251 60.617 75.4142 61.1309C73.701 62.089 73.5354 63.6308 74.9574 65.0245C75.7769 65.8288 76.6706 66.5431 77.5472 67.298C78.578 68.1952 78.7151 69.2143 77.9927 70.3873C77.3873 71.3687 76.7905 72.3617 76.2509 73.3838C75.5627 74.6933 74.5519 74.972 73.2527 74.4871C72.1362 74.0748 71.0454 73.5783 69.9061 73.2415C68.2557 72.7566 66.9536 73.7757 66.9736 75.5382C66.9879 76.7431 67.1792 77.9452 67.2592 79.1502C67.3477 80.4916 66.7994 81.3598 65.446 81.6704C64.2867 81.9376 63.1445 82.2657 61.9995 82.5938C60.6689 82.9741 59.7837 82.4602 59.2269 81.2349C58.7072 80.0967 58.2589 78.9121 57.6536 77.8291C56.8683 76.4092 55.3293 76.1886 54.2042 77.3268C53.3305 78.2123 52.5681 79.2112 51.7657 80.1664C50.892 81.2088 49.8926 81.3975 48.7304 80.6716C47.7196 80.0387 46.7059 79.3999 45.6694 78.8105C44.453 78.1165 44.216 77.1032 44.6586 75.8518C45.0612 74.7136 45.5523 73.6044 45.9007 72.4517C46.4033 70.7793 45.4296 69.4466 43.6906 69.4553C42.5056 69.4553 41.3235 69.6411 40.1385 69.7457C38.7936 69.856 37.9655 69.2201 37.6314 67.9077C37.3202 66.6911 37.0261 65.4717 36.7263 64.2522C36.4122 62.9688 36.8776 62.0861 38.0483 61.5577C39.0049 61.128 39.9814 60.736 40.9037 60.2511C42.9853 59.1652 43.1881 57.6205 41.5119 56.0178C40.7467 55.2948 39.9243 54.6328 39.122 53.9476C38.0912 53.0765 37.9113 52.0341 38.5994 50.8553C39.1705 49.8565 39.813 48.8867 40.3441 47.8589C41.0579 46.4768 42.1259 46.23 43.4622 46.7207C44.3559 47.0488 45.2582 47.374 46.112 47.7892C48.0366 48.7241 49.9954 47.4291 49.6841 45.478ZM66.5596 42.5745C65.7915 43.4629 64.9777 44.2875 64.301 45.2109C62.3907 47.824 57.942 47.2433 56.7941 44.1249C56.4754 43.2647 56.0936 42.43 55.6519 41.6279C55.4835 41.3201 55.0808 40.9398 54.7953 40.9398C52.391 40.9398 51.6544 41.8108 51.7886 44.2207C51.84 45.1818 51.8942 46.1893 51.6658 47.101C51.483 47.8327 50.9605 48.5325 50.438 49.1074C48.8018 50.9076 46.883 50.5185 44.9184 49.7345C42.3143 48.6951 42.3486 48.7299 40.9865 51.1863C40.5697 51.9412 40.701 52.368 41.3292 52.8878C42.2651 53.6321 43.1363 54.4568 43.9333 55.3529C44.299 55.7995 44.5704 56.3178 44.7306 56.8757C44.8909 57.4335 44.9365 58.0189 44.8647 58.5954C44.7929 59.1719 44.6053 59.7273 44.3134 60.2269C44.0215 60.7266 43.6317 61.1598 43.1681 61.4996C42.461 61.9895 41.7139 62.4169 40.9351 62.7772C38.8193 63.805 38.8136 63.7876 39.4532 66.154C39.4851 66.2487 39.5099 66.3458 39.5274 66.4443C39.6331 67.3154 40.0985 67.539 40.9237 67.4315C41.9117 67.3067 42.9225 67.3299 43.9105 67.2283C46.6431 66.9379 49.0988 70.3728 48.1079 72.8669C47.5997 74.1503 47.2171 75.4801 46.7859 76.7693C49.7127 78.9673 49.7098 78.9672 51.9256 76.4586C52.1483 76.2089 52.3939 75.9766 52.628 75.7385C53.0507 75.2859 53.5651 74.932 54.1355 74.7014C54.7059 74.4708 55.3188 74.3689 55.9318 74.4029C58.4759 74.4581 59.4353 76.1828 60.3262 78.1223C61.4684 80.6019 61.4684 80.5584 64.0725 79.7977C64.9292 79.5509 65.0891 79.1386 64.9891 78.3459C64.8635 77.3413 64.8778 76.3134 64.7835 75.3117C64.5208 72.5214 67.8902 69.9663 70.4658 71.0871C71.6736 71.6097 72.9414 71.9843 74.2207 72.4372C74.7375 71.5662 75.1829 70.7735 75.6798 70.0099C76.0995 69.3682 76.0481 68.9269 75.3942 68.4391C74.5537 67.8053 73.7684 67.0991 73.0471 66.3282C70.9341 64.0489 71.4024 60.8783 74.0579 59.3336C74.786 58.8731 75.5616 58.4953 76.3708 58.207C77.5472 57.8383 77.7499 57.246 77.4187 56.0584C76.6706 53.3843 77.0332 53.7008 74.549 53.9882C74.2178 54.026 73.8809 54.0143 73.5525 54.0579C69.8604 54.537 67.2906 51.0731 68.7668 47.4117C70.0518 44.2178 69.909 44.1598 66.8337 42.6267C66.7464 42.6 66.6563 42.5835 66.5653 42.5774L66.5596 42.5745Z" fill="#1A242E"/>
<path d="M49.6841 45.478C49.5499 44.0988 49.4328 43.0884 49.3586 42.0779C49.2587 40.7365 49.7869 39.8538 51.1432 39.5345C52.2997 39.2644 53.4475 38.9363 54.5897 38.6053C55.9089 38.2192 56.8141 38.6924 57.3709 39.9322C57.862 41.0327 58.2846 42.1709 58.8528 43.2248C59.7609 44.9031 61.2628 45.1005 62.5849 43.7242C63.3787 42.8967 64.0725 41.9676 64.8149 41.0878C65.723 40.0077 66.7509 39.7929 67.9559 40.5826C68.9153 41.2069 69.8947 41.8137 70.9027 42.3567C72.1448 43.0303 72.3818 44.0582 71.9763 45.3009C71.6022 46.4449 71.0711 47.5395 70.7313 48.6951C70.206 50.4808 71.1739 51.7931 73.0157 51.7815C74.1578 51.7815 75.3 51.6015 76.425 51.4912C77.8128 51.3721 78.7094 51.9296 79.0149 53.3756C79.2519 54.4615 79.586 55.5213 79.843 56.6014C80.2484 58.3435 79.8801 59.0694 78.2696 59.8185C77.3188 60.2598 76.3251 60.617 75.4142 61.1309C73.701 62.089 73.5354 63.6308 74.9574 65.0245C75.7769 65.8288 76.6706 66.5431 77.5472 67.298C78.578 68.1952 78.7151 69.2143 77.9927 70.3873C77.3873 71.3687 76.7905 72.3617 76.2509 73.3838C75.5627 74.6933 74.5519 74.972 73.2527 74.4871C72.1362 74.0748 71.0454 73.5783 69.9061 73.2415C68.2557 72.7566 66.9536 73.7757 66.9736 75.5382C66.9879 76.7431 67.1792 77.9452 67.2592 79.1502C67.3477 80.4916 66.7994 81.3598 65.446 81.6704C64.2867 81.9376 63.1445 82.2657 61.9995 82.5938C60.6689 82.9741 59.7837 82.4602 59.2269 81.2349C58.7072 80.0967 58.2589 78.9121 57.6536 77.8291C56.8683 76.4092 55.3293 76.1886 54.2042 77.3268C53.3305 78.2123 52.5681 79.2112 51.7657 80.1664C50.892 81.2088 49.8926 81.3975 48.7304 80.6716C47.7196 80.0387 46.7059 79.3999 45.6694 78.8105C44.453 78.1165 44.216 77.1032 44.6586 75.8518C45.0612 74.7136 45.5523 73.6044 45.9007 72.4517C46.4033 70.7793 45.4296 69.4466 43.6906 69.4553C42.5056 69.4553 41.3235 69.6411 40.1385 69.7457C38.7936 69.856 37.9655 69.2201 37.6314 67.9077C37.3202 66.6911 37.0261 65.4717 36.7263 64.2522C36.4122 62.9688 36.8776 62.0861 38.0483 61.5577C39.0049 61.128 39.9814 60.736 40.9037 60.2511C42.9853 59.1652 43.1881 57.6205 41.5119 56.0178C40.7467 55.2948 39.9243 54.6328 39.122 53.9476C38.0912 53.0765 37.9113 52.0341 38.5994 50.8553C39.1705 49.8565 39.813 48.8867 40.3441 47.8589C41.0579 46.4768 42.1259 46.23 43.4622 46.7207C44.3559 47.0488 45.2582 47.374 46.112 47.7892C48.0366 48.7241 49.9954 47.4291 49.6841 45.478ZM66.5596 42.5745C65.7915 43.4629 64.9777 44.2875 64.301 45.2109C62.3907 47.824 57.942 47.2433 56.7941 44.1249C56.4754 43.2647 56.0936 42.43 55.6519 41.6279C55.4835 41.3201 55.0808 40.9398 54.7953 40.9398C52.391 40.9398 51.6544 41.8108 51.7886 44.2207C51.84 45.1818 51.8942 46.1893 51.6658 47.101C51.483 47.8327 50.9605 48.5325 50.438 49.1074C48.8018 50.9076 46.883 50.5185 44.9184 49.7345C42.3143 48.6951 42.3486 48.7299 40.9865 51.1863C40.5697 51.9412 40.701 52.368 41.3292 52.8878C42.2651 53.6321 43.1363 54.4568 43.9333 55.3529C44.299 55.7995 44.5704 56.3178 44.7306 56.8757C44.8909 57.4335 44.9365 58.0189 44.8647 58.5954C44.7929 59.1719 44.6053 59.7273 44.3134 60.2269C44.0215 60.7266 43.6317 61.1598 43.1681 61.4996C42.461 61.9895 41.7139 62.4169 40.9351 62.7772C38.8193 63.805 38.8136 63.7876 39.4532 66.154C39.4851 66.2487 39.5099 66.3458 39.5274 66.4443C39.6331 67.3154 40.0985 67.539 40.9237 67.4315C41.9117 67.3067 42.9225 67.3299 43.9105 67.2283C46.6431 66.9379 49.0988 70.3728 48.1079 72.8669C47.5997 74.1503 47.2171 75.4801 46.7859 76.7693C49.7127 78.9673 49.7098 78.9672 51.9256 76.4586C52.1483 76.2089 52.3939 75.9766 52.628 75.7385C53.0507 75.2859 53.5651 74.932 54.1355 74.7014C54.7059 74.4708 55.3188 74.3689 55.9318 74.4029C58.4759 74.4581 59.4353 76.1828 60.3262 78.1223C61.4684 80.6019 61.4684 80.5584 64.0725 79.7977C64.9292 79.5509 65.0891 79.1386 64.9891 78.3459C64.8635 77.3413 64.8778 76.3134 64.7835 75.3117C64.5208 72.5214 67.8902 69.9663 70.4658 71.0871C71.6736 71.6097 72.9414 71.9843 74.2207 72.4372C74.7375 71.5662 75.1829 70.7735 75.6798 70.0099C76.0995 69.3682 76.0481 68.9269 75.3942 68.4391C74.5537 67.8053 73.7684 67.0991 73.0471 66.3282C70.9341 64.0489 71.4024 60.8783 74.0579 59.3336C74.786 58.8731 75.5616 58.4953 76.3708 58.207C77.5472 57.8383 77.7499 57.246 77.4187 56.0584C76.6706 53.3843 77.0332 53.7008 74.549 53.9882C74.2178 54.026 73.8809 54.0143 73.5525 54.0579C69.8604 54.537 67.2906 51.0731 68.7668 47.4117C70.0518 44.2178 69.909 44.1598 66.8337 42.6267C66.7464 42.6 66.6563 42.5835 66.5653 42.5774L66.5596 42.5745Z" fill="black" fill-opacity="0.2"/>
<path d="M52.1198 25.5335C46.7831 29.7929 41.4692 34.0843 36.0924 38.2916C34.739 39.3484 33.1628 39.3484 31.6865 38.367C30.3017 37.4495 29.8048 36.082 30.019 34.4763C30.2645 32.621 31.5409 31.6222 33.1599 31.0676C37.1175 29.7126 41.0875 28.3925 45.0698 27.1072C47.3256 26.3813 49.6128 25.757 51.8857 25.0747L52.1198 25.5335Z" fill="#1A242E"/>
<path d="M52.1198 25.5335C46.7831 29.7929 41.4692 34.0843 36.0924 38.2916C34.739 39.3484 33.1628 39.3484 31.6865 38.367C30.3017 37.4495 29.8048 36.082 30.019 34.4763C30.2645 32.621 31.5409 31.6222 33.1599 31.0676C37.1175 29.7126 41.0875 28.3925 45.0698 27.1072C47.3256 26.3813 49.6128 25.757 51.8857 25.0747L52.1198 25.5335Z" fill="black" fill-opacity="0.2"/>
<path d="M50.2039 60.5559C50.2169 58.9225 50.7058 57.3298 51.6089 55.9789C52.5119 54.6281 53.7885 53.5798 55.2773 52.9666C56.7662 52.3533 58.4003 52.2027 59.9733 52.5337C61.5463 52.8646 62.9875 53.6624 64.1148 54.826C65.242 55.9897 66.0046 57.4671 66.3063 59.0714C66.608 60.6757 66.4352 62.335 65.8097 63.8394C65.1842 65.3439 64.1341 66.6261 62.7922 67.5238C61.4502 68.4215 59.8767 68.8946 58.2704 68.8832C53.7189 68.8687 50.1925 65.2305 50.2039 60.5559ZM64.4124 60.6401C64.4203 58.9952 63.7854 57.4145 62.6472 56.2457C61.509 55.0769 59.9608 54.4157 58.3432 54.4076C56.7256 54.3996 55.1711 55.0452 54.0217 56.2026C52.8723 57.36 52.222 58.9342 52.2141 60.5791C52.2102 61.3935 52.364 62.2008 52.6669 62.9548C52.9698 63.7088 53.4157 64.3947 53.9793 64.9734C54.5429 65.5522 55.213 66.0124 55.9515 66.3277C56.69 66.6431 57.4823 66.8075 58.2833 66.8115C59.9009 66.8196 61.4554 66.1739 62.6048 65.0166C63.1739 64.4435 63.6265 63.762 63.9366 63.0111C64.2468 62.2602 64.4085 61.4545 64.4124 60.6401Z" fill="#1A242E"/>
<path d="M50.2039 60.5559C50.2169 58.9225 50.7058 57.3298 51.6089 55.9789C52.5119 54.6281 53.7885 53.5798 55.2773 52.9666C56.7662 52.3533 58.4003 52.2027 59.9733 52.5337C61.5463 52.8646 62.9875 53.6624 64.1148 54.826C65.242 55.9897 66.0046 57.4671 66.3063 59.0714C66.608 60.6757 66.4352 62.335 65.8097 63.8394C65.1842 65.3439 64.1341 66.6261 62.7922 67.5238C61.4502 68.4215 59.8767 68.8946 58.2704 68.8832C53.7189 68.8687 50.1925 65.2305 50.2039 60.5559ZM64.4124 60.6401C64.4203 58.9952 63.7854 57.4145 62.6472 56.2457C61.509 55.0769 59.9608 54.4157 58.3432 54.4076C56.7256 54.3996 55.1711 55.0452 54.0217 56.2026C52.8723 57.36 52.222 58.9342 52.2141 60.5791C52.2102 61.3935 52.364 62.2008 52.6669 62.9548C52.9698 63.7088 53.4157 64.3947 53.9793 64.9734C54.5429 65.5522 55.213 66.0124 55.9515 66.3277C56.69 66.6431 57.4823 66.8075 58.2833 66.8115C59.9009 66.8196 61.4554 66.1739 62.6048 65.0166C63.1739 64.4435 63.6265 63.762 63.9366 63.0111C64.2468 62.2602 64.4085 61.4545 64.4124 60.6401Z" fill="black" fill-opacity="0.2"/>
</g>
<defs>
<clipPath id="clip0_175:763">
<rect width="80" height="82.7273" fill="white"/>
</clipPath>
</defs>
</svg>
