<svg width="80" height="80" viewBox="0 0 80 80" fill="none" xmlns="http://www.w3.org/2000/svg">
<g clip-path="url(#clip0_3:371)">
<path d="M0.253155 7.33846L5.58852 16.6748C5.76848 16.9903 6.06971 17.2185 6.42196 17.3069L11.3996 18.5513L28.4718 35.6234L30.3581 33.7376L13.0187 16.3988C12.8481 16.2276 12.6341 16.1064 12.3998 16.0476L7.61698 14.8477L3.07447 6.89403L6.96899 2.9995L14.9259 7.54641L16.1265 12.3292C16.1846 12.5641 16.3064 12.7786 16.4771 12.9493L33.8164 30.2886L35.7023 28.4023L18.6301 11.3301L17.3857 6.35522C17.2973 6.00242 17.0691 5.70065 16.7536 5.52013L7.41672 0.18532C6.89602 -0.110967 6.2409 -0.023178 5.81622 0.399854L0.481406 5.73522C0.0523384 6.15715 -0.0409371 6.81337 0.253155 7.33846Z" fill="#1A242E"/>
<path d="M0.253155 7.33846L5.58852 16.6748C5.76848 16.9903 6.06971 17.2185 6.42196 17.3069L11.3996 18.5513L28.4718 35.6234L30.3581 33.7376L13.0187 16.3988C12.8481 16.2276 12.6341 16.1064 12.3998 16.0476L7.61698 14.8477L3.07447 6.89403L6.96899 2.9995L14.9259 7.54641L16.1265 12.3292C16.1846 12.5641 16.3064 12.7786 16.4771 12.9493L33.8164 30.2886L35.7023 28.4023L18.6301 11.3301L17.3857 6.35522C17.2973 6.00242 17.0691 5.70065 16.7536 5.52013L7.41672 0.18532C6.89602 -0.110967 6.2409 -0.023178 5.81622 0.399854L0.481406 5.73522C0.0523384 6.15715 -0.0409371 6.81337 0.253155 7.33846Z" fill="black" fill-opacity="0.2"/>
<path d="M55.7055 26.2867L26.3627 55.6301L24.4763 53.7437L53.8197 24.4009L55.7055 26.2867Z" fill="#1A242E"/>
<path d="M55.7055 26.2867L26.3627 55.6301L24.4763 53.7437L53.8197 24.4009L55.7055 26.2867Z" fill="black" fill-opacity="0.2"/>
<path d="M21.2269 56.6681C20.9854 56.2665 20.552 56.0212 20.0834 56.0212H12.0809C11.6129 56.0212 11.1789 56.2665 10.938 56.6681L6.9365 63.3368C6.68246 63.7593 6.68246 64.2877 6.9365 64.7107L10.938 71.3794C11.1789 71.7804 11.6129 72.0262 12.0809 72.0262H20.0834C20.552 72.0262 20.9854 71.7804 21.2269 71.3794L25.2278 64.7107C25.4819 64.2877 25.4819 63.7593 25.2278 63.3368L21.2269 56.6681ZM19.329 69.3586H12.8359L9.63491 64.0237L12.8359 58.6884H19.329L22.53 64.0237L19.329 69.3586Z" fill="#1A242E"/>
<path d="M21.2269 56.6681C20.9854 56.2665 20.552 56.0212 20.0834 56.0212H12.0809C11.6129 56.0212 11.1789 56.2665 10.938 56.6681L6.9365 63.3368C6.68246 63.7593 6.68246 64.2877 6.9365 64.7107L10.938 71.3794C11.1789 71.7804 11.6129 72.0262 12.0809 72.0262H20.0834C20.552 72.0262 20.9854 71.7804 21.2269 71.3794L25.2278 64.7107C25.4819 64.2877 25.4819 63.7593 25.2278 63.3368L21.2269 56.6681ZM19.329 69.3586H12.8359L9.63491 64.0237L12.8359 58.6884H19.329L22.53 64.0237L19.329 69.3586Z" fill="black" fill-opacity="0.2"/>
<path d="M64.0981 32.0132C72.9071 32.0428 80.0729 24.9254 80.1025 16.1163C80.1069 14.7754 79.9423 13.4399 79.6125 12.14C79.4348 11.4251 78.7111 10.99 77.9961 11.1678C77.7613 11.2265 77.5473 11.3478 77.3761 11.5184L69.0735 19.8155L62.4861 17.6203L60.2891 11.0345L68.5918 2.7302C69.1125 2.20895 69.1119 1.36453 68.5907 0.843838C68.4189 0.672101 68.2028 0.550295 67.9663 0.492135C59.4233 -1.67131 50.7449 3.49999 48.5814 12.0424C48.2528 13.3384 48.0887 14.6706 48.0931 16.0077C48.0964 17.0579 48.2045 18.1047 48.4174 19.133L19.2073 48.3425C18.1791 48.1301 17.1322 48.022 16.0826 48.0182C7.24278 48.0182 0.0770264 55.1839 0.0770264 64.0237C0.0770264 72.8629 7.24278 80.0287 16.0826 80.0287C24.9218 80.0287 32.0876 72.8629 32.0876 64.0237C32.0843 62.9735 31.9756 61.9267 31.7633 60.8984L38.7562 53.9055L41.8145 56.9639C42.3358 57.4846 43.1797 57.4846 43.7009 56.9639L44.3675 56.2967C44.9524 55.7156 45.8978 55.7156 46.4827 56.2967C47.0671 56.8794 47.0682 57.8253 46.4855 58.4096C46.4849 58.4102 46.4838 58.4113 46.4827 58.4124L45.8161 59.079C45.2954 59.5997 45.2954 60.4441 45.8161 60.9648L61.7267 76.8754C65.9115 81.0986 72.7272 81.1293 76.9503 76.9446C81.173 72.7598 81.2037 65.9435 77.0189 61.7209C76.9964 61.6979 76.9734 61.6748 76.9503 61.6518L61.0397 45.7417C60.519 45.221 59.6746 45.221 59.1539 45.7417L58.4873 46.4084C57.9018 46.99 56.957 46.99 56.3716 46.4084C55.7878 45.8257 55.7861 44.8797 56.3688 44.2959C56.3699 44.2949 56.371 44.2943 56.3716 44.2932L57.0388 43.626C57.5595 43.1053 57.5595 42.2609 57.0388 41.7402L53.9804 38.6819L60.9733 31.6889C62.0016 31.9013 63.0485 32.0099 64.0981 32.0132ZM69.3385 77.3616C68.3695 77.3599 67.4088 77.1849 66.5018 76.8442L76.9185 66.4269C78.4905 70.6084 76.3753 75.2722 72.1938 76.8442C71.2814 77.1871 70.3141 77.3627 69.3385 77.3616ZM54.2284 42.6965C52.7514 44.4584 52.9829 47.0843 54.7447 48.5608C56.2931 49.8585 58.5498 49.8574 60.0966 48.557L75.0645 63.5381C75.2269 63.7011 75.3789 63.8728 75.526 64.0473L64.1222 75.4511C63.9472 75.3046 63.7755 75.1526 63.6125 74.9896L48.633 60.009C50.11 58.2472 49.8785 55.6212 48.1167 54.1447C46.5683 52.8466 44.311 52.8482 42.7643 54.148L40.6305 52.0142L52.0941 40.5677L54.2284 42.6965ZM59.6143 29.2819L29.3573 59.5328C29.0254 59.8642 28.892 60.3454 29.0051 60.8002C30.8349 67.9863 26.4927 75.2952 19.3061 77.1245C12.12 78.9544 4.81104 74.6121 2.98119 67.4255C1.15189 60.2395 5.49414 52.9305 12.6807 51.1007C14.8546 50.5476 17.1322 50.5476 19.3061 51.1007C19.7609 51.2121 20.241 51.0787 20.5735 50.749L50.8233 20.4975C51.1547 20.1661 51.288 19.6849 51.1739 19.2306C49.3567 12.1285 53.6408 4.89803 60.7429 3.08026C62.085 2.73733 63.4731 2.60565 64.8558 2.69179L57.8201 9.73025C57.4629 10.0869 57.3378 10.6153 57.4975 11.0943L60.1646 19.0973C60.2979 19.4951 60.6107 19.8078 61.009 19.9401L69.012 22.6078C69.4905 22.7674 70.0189 22.6429 70.3761 22.2862L77.4118 15.2505C77.4277 15.5051 77.4359 15.7569 77.4359 16.0077C77.4732 23.3364 71.5629 29.3077 64.2341 29.3455C63.1011 29.351 61.9719 29.2117 60.8746 28.9307C60.4197 28.8172 59.9385 28.9499 59.6071 29.2813H59.6143V29.2819Z" fill="#1A242E"/>
<path d="M64.0981 32.0132C72.9071 32.0428 80.0729 24.9254 80.1025 16.1163C80.1069 14.7754 79.9423 13.4399 79.6125 12.14C79.4348 11.4251 78.7111 10.99 77.9961 11.1678C77.7613 11.2265 77.5473 11.3478 77.3761 11.5184L69.0735 19.8155L62.4861 17.6203L60.2891 11.0345L68.5918 2.7302C69.1125 2.20895 69.1119 1.36453 68.5907 0.843838C68.4189 0.672101 68.2028 0.550295 67.9663 0.492135C59.4233 -1.67131 50.7449 3.49999 48.5814 12.0424C48.2528 13.3384 48.0887 14.6706 48.0931 16.0077C48.0964 17.0579 48.2045 18.1047 48.4174 19.133L19.2073 48.3425C18.1791 48.1301 17.1322 48.022 16.0826 48.0182C7.24278 48.0182 0.0770264 55.1839 0.0770264 64.0237C0.0770264 72.8629 7.24278 80.0287 16.0826 80.0287C24.9218 80.0287 32.0876 72.8629 32.0876 64.0237C32.0843 62.9735 31.9756 61.9267 31.7633 60.8984L38.7562 53.9055L41.8145 56.9639C42.3358 57.4846 43.1797 57.4846 43.7009 56.9639L44.3675 56.2967C44.9524 55.7156 45.8978 55.7156 46.4827 56.2967C47.0671 56.8794 47.0682 57.8253 46.4855 58.4096C46.4849 58.4102 46.4838 58.4113 46.4827 58.4124L45.8161 59.079C45.2954 59.5997 45.2954 60.4441 45.8161 60.9648L61.7267 76.8754C65.9115 81.0986 72.7272 81.1293 76.9503 76.9446C81.173 72.7598 81.2037 65.9435 77.0189 61.7209C76.9964 61.6979 76.9734 61.6748 76.9503 61.6518L61.0397 45.7417C60.519 45.221 59.6746 45.221 59.1539 45.7417L58.4873 46.4084C57.9018 46.99 56.957 46.99 56.3716 46.4084C55.7878 45.8257 55.7861 44.8797 56.3688 44.2959C56.3699 44.2949 56.371 44.2943 56.3716 44.2932L57.0388 43.626C57.5595 43.1053 57.5595 42.2609 57.0388 41.7402L53.9804 38.6819L60.9733 31.6889C62.0016 31.9013 63.0485 32.0099 64.0981 32.0132ZM69.3385 77.3616C68.3695 77.3599 67.4088 77.1849 66.5018 76.8442L76.9185 66.4269C78.4905 70.6084 76.3753 75.2722 72.1938 76.8442C71.2814 77.1871 70.3141 77.3627 69.3385 77.3616ZM54.2284 42.6965C52.7514 44.4584 52.9829 47.0843 54.7447 48.5608C56.2931 49.8585 58.5498 49.8574 60.0966 48.557L75.0645 63.5381C75.2269 63.7011 75.3789 63.8728 75.526 64.0473L64.1222 75.4511C63.9472 75.3046 63.7755 75.1526 63.6125 74.9896L48.633 60.009C50.11 58.2472 49.8785 55.6212 48.1167 54.1447C46.5683 52.8466 44.311 52.8482 42.7643 54.148L40.6305 52.0142L52.0941 40.5677L54.2284 42.6965ZM59.6143 29.2819L29.3573 59.5328C29.0254 59.8642 28.892 60.3454 29.0051 60.8002C30.8349 67.9863 26.4927 75.2952 19.3061 77.1245C12.12 78.9544 4.81104 74.6121 2.98119 67.4255C1.15189 60.2395 5.49414 52.9305 12.6807 51.1007C14.8546 50.5476 17.1322 50.5476 19.3061 51.1007C19.7609 51.2121 20.241 51.0787 20.5735 50.749L50.8233 20.4975C51.1547 20.1661 51.288 19.6849 51.1739 19.2306C49.3567 12.1285 53.6408 4.89803 60.7429 3.08026C62.085 2.73733 63.4731 2.60565 64.8558 2.69179L57.8201 9.73025C57.4629 10.0869 57.3378 10.6153 57.4975 11.0943L60.1646 19.0973C60.2979 19.4951 60.6107 19.8078 61.009 19.9401L69.012 22.6078C69.4905 22.7674 70.0189 22.6429 70.3761 22.2862L77.4118 15.2505C77.4277 15.5051 77.4359 15.7569 77.4359 16.0077C77.4732 23.3364 71.5629 29.3077 64.2341 29.3455C63.1011 29.351 61.9719 29.2117 60.8746 28.9307C60.4197 28.8172 59.9385 28.9499 59.6071 29.2813H59.6143V29.2819Z" fill="black" fill-opacity="0.2"/>
<path d="M69.0437 67.0817L67.1574 68.9681L53.8201 55.6307L55.7059 53.7444L69.0437 67.0817Z" fill="#1A242E"/>
<path d="M69.0437 67.0817L67.1574 68.9681L53.8201 55.6307L55.7059 53.7444L69.0437 67.0817Z" fill="black" fill-opacity="0.2"/>
</g>
<defs>
<clipPath id="clip0_3:371">
<rect width="80" height="80" fill="white"/>
</clipPath>
</defs>
</svg>
