<svg width="90" height="90" viewBox="0 0 90 90" fill="none" xmlns="http://www.w3.org/2000/svg">
<g clip-path="url(#clip0_3:372)">
<path d="M35.9686 4.65546C36.9395 4.65546 37.7264 3.86856 37.7264 2.89764V1.75781C37.7264 0.786896 36.9395 0 35.9686 0C34.9984 0 34.2108 0.786896 34.2108 1.75781V2.89764C34.2108 3.86856 34.9984 4.65546 35.9686 4.65546Z" fill="#1A242E"/>
<path d="M35.9686 4.65546C36.9395 4.65546 37.7264 3.86856 37.7264 2.89764V1.75781C37.7264 0.786896 36.9395 0 35.9686 0C34.9984 0 34.2108 0.786896 34.2108 1.75781V2.89764C34.2108 3.86856 34.9984 4.65546 35.9686 4.65546Z" fill="black" fill-opacity="0.2"/>
<path d="M20.1963 7.59506C20.5218 8.15879 21.113 8.47396 21.7207 8.47396C22.0187 8.47396 22.3208 8.39843 22.5975 8.23844C23.438 7.75299 23.7263 6.6777 23.2409 5.83725L22.671 4.84985C22.1862 4.00939 21.1109 3.721 20.2698 4.20646C19.4293 4.69192 19.1409 5.76721 19.6264 6.60766L20.1963 7.59506Z" fill="#1A242E"/>
<path d="M20.1963 7.59506C20.5218 8.15879 21.113 8.47396 21.7207 8.47396C22.0187 8.47396 22.3208 8.39843 22.5975 8.23844C23.438 7.75299 23.7263 6.6777 23.2409 5.83725L22.671 4.84985C22.1862 4.00939 21.1109 3.721 20.2698 4.20646C19.4293 4.69192 19.1409 5.76721 19.6264 6.60766L20.1963 7.59506Z" fill="black" fill-opacity="0.2"/>
<path d="M12.1654 15.6259L11.1787 15.056C10.3383 14.5705 9.26299 14.8582 8.77753 15.6994C8.29208 16.5398 8.57978 17.6144 9.42092 18.0999L10.4076 18.6698C10.6844 18.8298 10.9865 18.906 11.2852 18.906C11.8922 18.906 12.4834 18.5908 12.8088 18.0264C13.2943 17.186 13.0066 16.1107 12.1654 15.6259Z" fill="#1A242E"/>
<path d="M12.1654 15.6259L11.1787 15.056C10.3383 14.5705 9.26299 14.8582 8.77753 15.6994C8.29208 16.5398 8.57978 17.6144 9.42092 18.0999L10.4076 18.6698C10.6844 18.8298 10.9865 18.906 11.2852 18.906C11.8922 18.906 12.4834 18.5908 12.8088 18.0264C13.2943 17.186 13.0066 16.1107 12.1654 15.6259Z" fill="black" fill-opacity="0.2"/>
<path d="M7.46808 29.6404H6.32825C5.35802 29.6404 4.57043 30.4273 4.57043 31.3982C4.57043 32.3691 5.35802 33.156 6.32825 33.156H7.46808C8.439 33.156 9.22589 32.3691 9.22589 31.3982C9.22589 30.4273 8.439 29.6404 7.46808 29.6404Z" fill="#1A242E"/>
<path d="M7.46808 29.6404H6.32825C5.35802 29.6404 4.57043 30.4273 4.57043 31.3982C4.57043 32.3691 5.35802 33.156 6.32825 33.156H7.46808C8.439 33.156 9.22589 32.3691 9.22589 31.3982C9.22589 30.4273 8.439 29.6404 7.46808 29.6404Z" fill="black" fill-opacity="0.2"/>
<path d="M62.7113 31.3982C62.7113 32.3691 63.4989 33.156 64.4691 33.156H65.6089C66.5799 33.156 67.3668 32.3691 67.3668 31.3982C67.3668 30.4273 66.5799 29.6404 65.6089 29.6404H64.4691C63.4982 29.6404 62.7113 30.4273 62.7113 31.3982Z" fill="#1A242E"/>
<path d="M62.7113 31.3982C62.7113 32.3691 63.4989 33.156 64.4691 33.156H65.6089C66.5799 33.156 67.3668 32.3691 67.3668 31.3982C67.3668 30.4273 66.5799 29.6404 65.6089 29.6404H64.4691C63.4982 29.6404 62.7113 30.4273 62.7113 31.3982Z" fill="black" fill-opacity="0.2"/>
<path d="M60.6528 18.906C60.9508 18.906 61.2529 18.8298 61.5297 18.6698L62.5171 18.0999C63.3575 17.6151 63.6459 16.5398 63.1605 15.6994C62.6757 14.8582 61.6004 14.5705 60.7592 15.056L59.7718 15.6259C58.9314 16.1107 58.643 17.186 59.1285 18.0264C59.4539 18.5908 60.0451 18.906 60.6528 18.906Z" fill="#1A242E"/>
<path d="M60.6528 18.906C60.9508 18.906 61.2529 18.8298 61.5297 18.6698L62.5171 18.0999C63.3575 17.6151 63.6459 16.5398 63.1605 15.6994C62.6757 14.8582 61.6004 14.5705 60.7592 15.056L59.7718 15.6259C58.9314 16.1107 58.643 17.186 59.1285 18.0264C59.4539 18.5908 60.0451 18.906 60.6528 18.906Z" fill="black" fill-opacity="0.2"/>
<path d="M49.3402 8.23844C49.617 8.39843 49.9191 8.47396 50.2171 8.47396C50.8248 8.47396 51.4153 8.15879 51.7414 7.59506L52.3114 6.60766C52.7968 5.76721 52.5084 4.69192 51.668 4.20646C50.8268 3.721 49.7515 4.00939 49.2668 4.84985L48.6968 5.83725C48.2114 6.6777 48.4991 7.75299 49.3402 8.23844Z" fill="#1A242E"/>
<path d="M49.3402 8.23844C49.617 8.39843 49.9191 8.47396 50.2171 8.47396C50.8248 8.47396 51.4153 8.15879 51.7414 7.59506L52.3114 6.60766C52.7968 5.76721 52.5084 4.69192 51.668 4.20646C50.8268 3.721 49.7515 4.00939 49.2668 4.84985L48.6968 5.83725C48.2114 6.6777 48.4991 7.75299 49.3402 8.23844Z" fill="black" fill-opacity="0.2"/>
<path d="M83.6716 57.7734H79.4838C79.0416 56.2284 78.4263 54.7439 77.6443 53.337L80.6064 50.3741C80.936 50.0445 81.1214 49.5975 81.1214 49.1313C81.1214 48.665 80.936 48.218 80.6064 47.8885L74.8064 42.0884C74.1197 41.4017 73.0067 41.4017 72.32 42.0884L69.3579 45.0506C67.9509 44.2692 66.4664 43.6539 64.9215 43.2117V39.0239C64.9215 38.053 64.1346 37.2661 63.1636 37.2661H55.8907C56.44 35.3874 56.7264 33.4161 56.7264 31.398C56.7264 19.9524 47.4148 10.6401 35.9685 10.6401C33.4815 10.6401 31.0466 11.0768 28.7313 11.9386C27.8208 12.2771 27.358 13.2892 27.6965 14.199C28.035 15.1088 29.0471 15.5723 29.9569 15.2331C31.8788 14.5183 33.901 14.1557 35.9685 14.1557C45.4757 14.1557 53.2108 21.8908 53.2108 31.398C53.2108 36.2368 51.2291 40.7529 47.7259 44.0096L45.8039 42.0877C45.4744 41.7581 45.0273 41.5734 44.5611 41.5734C44.0949 41.5734 43.6479 41.7581 43.3183 42.0877L37.5175 47.8885C36.8316 48.5751 36.8316 49.6881 37.5175 50.3748L38.8105 51.667H29.81V48.674C29.81 47.9873 29.4097 47.3632 28.7855 47.0768C22.6744 44.2719 18.7262 38.1175 18.7262 31.398C18.7262 29.3299 19.0887 27.307 19.8042 25.3851C20.1427 24.4753 19.6799 23.4632 18.7701 23.1247C17.861 22.7862 16.8482 23.249 16.5097 24.1588C15.648 26.4741 15.2106 28.9096 15.2106 31.398C15.2106 39.1056 19.5254 46.1945 26.2944 49.7671V59.7591C26.2944 63.6407 29.0423 66.892 32.6952 67.6713V67.7345C32.6952 68.7054 33.4821 69.4923 34.4531 69.4923H38.6409C39.0831 71.0372 39.6983 72.5211 40.4804 73.928L37.5175 76.8909C36.8309 77.5775 36.8309 78.6906 37.5175 79.3765L43.3183 85.1773C44.0049 85.8632 45.1173 85.8632 45.8039 85.1773L48.7668 82.2144C50.1737 82.9965 51.6583 83.6117 53.2025 84.0539V88.2425C53.2025 89.2127 53.9901 90.0003 54.9603 90.0003H63.1636C64.1346 90.0003 64.9215 89.2127 64.9215 88.2425V84.0539C66.4664 83.6117 67.9502 82.9965 69.3572 82.2144L72.32 85.1773C73.0067 85.8632 74.1197 85.8632 74.8064 85.1773L80.6064 79.3765C81.2931 78.6906 81.2931 77.5775 80.6064 76.8909L77.6436 73.9273C78.425 72.5211 79.0402 71.0366 79.4824 69.4923H83.6716C84.6418 69.4923 85.4294 68.7054 85.4294 67.7345V59.5312C85.4294 58.5603 84.6418 57.7734 83.6716 57.7734ZM53.2032 42.9858V43.2117C53.1366 43.2303 53.0714 43.2516 53.0055 43.2715C53.0721 43.176 53.138 43.0813 53.2032 42.9858ZM29.81 59.7584V55.1827H39.5727C39.2074 56.0245 38.8949 56.8883 38.6423 57.7734H34.4531C33.4821 57.7734 32.6952 58.5603 32.6952 59.5312V64.0095C31.0068 63.3359 29.81 61.6852 29.81 59.7584ZM81.9138 65.976H78.1105C77.2817 65.976 76.5655 66.5555 76.3918 67.3658C75.9428 69.4614 75.1229 71.4396 73.9549 73.2455C73.5045 73.9411 73.602 74.857 74.1877 75.4434L76.878 78.1337L73.5635 81.4481L70.8733 78.7579C70.2869 78.1715 69.3709 78.0746 68.6753 78.5251C66.8695 79.6931 64.8912 80.5136 62.7956 80.9627C61.9847 81.1371 61.4058 81.8526 61.4058 82.682V86.484H56.7188V82.682C56.7188 81.8532 56.14 81.1371 55.3297 80.9634C53.2334 80.5136 51.2552 79.6937 49.4493 78.5251C48.7538 78.0753 47.8378 78.1721 47.2514 78.7579L44.5611 81.4481L41.2467 78.1337L43.937 75.4434C44.5234 74.8577 44.6202 73.9417 44.1697 73.2455C43.0018 71.4396 42.1812 69.4614 41.7315 67.3658C41.5584 66.5548 40.8416 65.976 40.0135 65.976H36.2115V61.289H40.0142C40.8429 61.289 41.5598 60.7094 41.7335 59.8992C42.1826 57.8029 43.0024 55.8247 44.1704 54.0195C44.6209 53.3239 44.5234 52.4079 43.9376 51.8215L41.2467 49.1313L44.5618 45.8169L46.3773 47.633C46.3793 47.6344 46.3807 47.6365 46.3828 47.6385L47.2521 48.5071C47.8385 49.0935 48.7538 49.1903 49.45 48.7399C51.2559 47.5719 53.2341 46.7514 55.3297 46.3016C56.14 46.1286 56.7188 45.4117 56.7188 44.5836V40.7817H61.4058V44.5836C61.4058 45.4124 61.9847 46.1286 62.7956 46.3023C64.8919 46.7514 66.8701 47.5719 68.676 48.7399C69.3716 49.1903 70.2876 49.0928 70.8733 48.5071L73.5635 45.8169L76.878 49.1313L74.1877 51.8215C73.602 52.4072 73.5052 53.3232 73.9549 54.0195C75.1236 55.8247 75.9441 57.8036 76.3932 59.8992C76.5669 60.7094 77.2831 61.289 78.1119 61.289H81.9138V65.976Z" fill="#1A242E"/>
<path d="M83.6716 57.7734H79.4838C79.0416 56.2284 78.4263 54.7439 77.6443 53.337L80.6064 50.3741C80.936 50.0445 81.1214 49.5975 81.1214 49.1313C81.1214 48.665 80.936 48.218 80.6064 47.8885L74.8064 42.0884C74.1197 41.4017 73.0067 41.4017 72.32 42.0884L69.3579 45.0506C67.9509 44.2692 66.4664 43.6539 64.9215 43.2117V39.0239C64.9215 38.053 64.1346 37.2661 63.1636 37.2661H55.8907C56.44 35.3874 56.7264 33.4161 56.7264 31.398C56.7264 19.9524 47.4148 10.6401 35.9685 10.6401C33.4815 10.6401 31.0466 11.0768 28.7313 11.9386C27.8208 12.2771 27.358 13.2892 27.6965 14.199C28.035 15.1088 29.0471 15.5723 29.9569 15.2331C31.8788 14.5183 33.901 14.1557 35.9685 14.1557C45.4757 14.1557 53.2108 21.8908 53.2108 31.398C53.2108 36.2368 51.2291 40.7529 47.7259 44.0096L45.8039 42.0877C45.4744 41.7581 45.0273 41.5734 44.5611 41.5734C44.0949 41.5734 43.6479 41.7581 43.3183 42.0877L37.5175 47.8885C36.8316 48.5751 36.8316 49.6881 37.5175 50.3748L38.8105 51.667H29.81V48.674C29.81 47.9873 29.4097 47.3632 28.7855 47.0768C22.6744 44.2719 18.7262 38.1175 18.7262 31.398C18.7262 29.3299 19.0887 27.307 19.8042 25.3851C20.1427 24.4753 19.6799 23.4632 18.7701 23.1247C17.861 22.7862 16.8482 23.249 16.5097 24.1588C15.648 26.4741 15.2106 28.9096 15.2106 31.398C15.2106 39.1056 19.5254 46.1945 26.2944 49.7671V59.7591C26.2944 63.6407 29.0423 66.892 32.6952 67.6713V67.7345C32.6952 68.7054 33.4821 69.4923 34.4531 69.4923H38.6409C39.0831 71.0372 39.6983 72.5211 40.4804 73.928L37.5175 76.8909C36.8309 77.5775 36.8309 78.6906 37.5175 79.3765L43.3183 85.1773C44.0049 85.8632 45.1173 85.8632 45.8039 85.1773L48.7668 82.2144C50.1737 82.9965 51.6583 83.6117 53.2025 84.0539V88.2425C53.2025 89.2127 53.9901 90.0003 54.9603 90.0003H63.1636C64.1346 90.0003 64.9215 89.2127 64.9215 88.2425V84.0539C66.4664 83.6117 67.9502 82.9965 69.3572 82.2144L72.32 85.1773C73.0067 85.8632 74.1197 85.8632 74.8064 85.1773L80.6064 79.3765C81.2931 78.6906 81.2931 77.5775 80.6064 76.8909L77.6436 73.9273C78.425 72.5211 79.0402 71.0366 79.4824 69.4923H83.6716C84.6418 69.4923 85.4294 68.7054 85.4294 67.7345V59.5312C85.4294 58.5603 84.6418 57.7734 83.6716 57.7734ZM53.2032 42.9858V43.2117C53.1366 43.2303 53.0714 43.2516 53.0055 43.2715C53.0721 43.176 53.138 43.0813 53.2032 42.9858ZM29.81 59.7584V55.1827H39.5727C39.2074 56.0245 38.8949 56.8883 38.6423 57.7734H34.4531C33.4821 57.7734 32.6952 58.5603 32.6952 59.5312V64.0095C31.0068 63.3359 29.81 61.6852 29.81 59.7584ZM81.9138 65.976H78.1105C77.2817 65.976 76.5655 66.5555 76.3918 67.3658C75.9428 69.4614 75.1229 71.4396 73.9549 73.2455C73.5045 73.9411 73.602 74.857 74.1877 75.4434L76.878 78.1337L73.5635 81.4481L70.8733 78.7579C70.2869 78.1715 69.3709 78.0746 68.6753 78.5251C66.8695 79.6931 64.8912 80.5136 62.7956 80.9627C61.9847 81.1371 61.4058 81.8526 61.4058 82.682V86.484H56.7188V82.682C56.7188 81.8532 56.14 81.1371 55.3297 80.9634C53.2334 80.5136 51.2552 79.6937 49.4493 78.5251C48.7538 78.0753 47.8378 78.1721 47.2514 78.7579L44.5611 81.4481L41.2467 78.1337L43.937 75.4434C44.5234 74.8577 44.6202 73.9417 44.1697 73.2455C43.0018 71.4396 42.1812 69.4614 41.7315 67.3658C41.5584 66.5548 40.8416 65.976 40.0135 65.976H36.2115V61.289H40.0142C40.8429 61.289 41.5598 60.7094 41.7335 59.8992C42.1826 57.8029 43.0024 55.8247 44.1704 54.0195C44.6209 53.3239 44.5234 52.4079 43.9376 51.8215L41.2467 49.1313L44.5618 45.8169L46.3773 47.633C46.3793 47.6344 46.3807 47.6365 46.3828 47.6385L47.2521 48.5071C47.8385 49.0935 48.7538 49.1903 49.45 48.7399C51.2559 47.5719 53.2341 46.7514 55.3297 46.3016C56.14 46.1286 56.7188 45.4117 56.7188 44.5836V40.7817H61.4058V44.5836C61.4058 45.4124 61.9847 46.1286 62.7956 46.3023C64.8919 46.7514 66.8701 47.5719 68.676 48.7399C69.3716 49.1903 70.2876 49.0928 70.8733 48.5071L73.5635 45.8169L76.878 49.1313L74.1877 51.8215C73.602 52.4072 73.5052 53.3232 73.9549 54.0195C75.1236 55.8247 75.9441 57.8036 76.3932 59.8992C76.5669 60.7094 77.2831 61.289 78.1119 61.289H81.9138V65.976Z" fill="black" fill-opacity="0.2"/>
<path d="M59.0624 54.8435C54.216 54.8435 50.2733 58.7862 50.2733 63.6326C50.2733 68.4789 54.216 72.4216 59.0624 72.4216C63.9087 72.4216 67.8514 68.4789 67.8514 63.6326C67.8514 58.7862 63.9087 54.8435 59.0624 54.8435ZM59.0624 68.906C56.1544 68.906 53.7889 66.5405 53.7889 63.6326C53.7889 60.7246 56.1544 58.3591 59.0624 58.3591C61.9703 58.3591 64.3358 60.7246 64.3358 63.6326C64.3358 66.5405 61.9703 68.906 59.0624 68.906Z" fill="#1A242E"/>
<path d="M59.0624 54.8435C54.216 54.8435 50.2733 58.7862 50.2733 63.6326C50.2733 68.4789 54.216 72.4216 59.0624 72.4216C63.9087 72.4216 67.8514 68.4789 67.8514 63.6326C67.8514 58.7862 63.9087 54.8435 59.0624 54.8435ZM59.0624 68.906C56.1544 68.906 53.7889 66.5405 53.7889 63.6326C53.7889 60.7246 56.1544 58.3591 59.0624 58.3591C61.9703 58.3591 64.3358 60.7246 64.3358 63.6326C64.3358 66.5405 61.9703 68.906 59.0624 68.906Z" fill="black" fill-opacity="0.2"/>
<path d="M59.0631 61.8748H59.0617C58.0915 61.8748 57.3046 62.6617 57.3046 63.6326C57.3046 64.6035 58.0921 65.3904 59.0631 65.3904C60.034 65.3904 60.8209 64.6035 60.8209 63.6326C60.8209 62.6617 60.034 61.8748 59.0631 61.8748Z" fill="#1A242E"/>
<path d="M59.0631 61.8748H59.0617C58.0915 61.8748 57.3046 62.6617 57.3046 63.6326C57.3046 64.6035 58.0921 65.3904 59.0631 65.3904C60.034 65.3904 60.8209 64.6035 60.8209 63.6326C60.8209 62.6617 60.034 61.8748 59.0631 61.8748Z" fill="black" fill-opacity="0.2"/>
<path d="M21.2917 16.7191L21.291 16.7197C20.6044 17.4064 20.605 18.5188 21.2917 19.2054C21.6343 19.5487 22.0841 19.7204 22.5338 19.7204C22.9843 19.7204 23.4347 19.5487 23.7774 19.2054C24.464 18.5188 24.464 17.4057 23.7774 16.7191C23.0914 16.0331 21.9783 16.0331 21.2917 16.7191Z" fill="#1A242E"/>
<path d="M21.2917 16.7191L21.291 16.7197C20.6044 17.4064 20.605 18.5188 21.2917 19.2054C21.6343 19.5487 22.0841 19.7204 22.5338 19.7204C22.9843 19.7204 23.4347 19.5487 23.7774 19.2054C24.464 18.5188 24.464 17.4057 23.7774 16.7191C23.0914 16.0331 21.9783 16.0331 21.2917 16.7191Z" fill="black" fill-opacity="0.2"/>
</g>
<defs>
<clipPath id="clip0_3:372">
<rect width="90" height="90" fill="white"/>
</clipPath>
</defs>
</svg>
