<svg width="70" height="71" viewBox="0 0 70 71" fill="none" xmlns="http://www.w3.org/2000/svg">
<g clip-path="url(#clip0_130:568)">
<path d="M54.2267 70.2309V68.1956H56.3243C56.099 67.9281 55.9689 67.7614 55.8278 67.6057C52.5303 63.9784 49.6834 60.058 47.9906 55.4084C46.8914 52.3783 46.362 49.2786 47.2102 46.0653C48.4926 41.2343 53.2557 37.0721 59.5101 37.5649C64.6763 37.9698 69.1811 42.2346 69.8883 47.5638C70.3151 50.7918 69.5494 53.8329 68.2743 56.7567C66.0759 61.8002 62.7399 66.0265 58.7773 69.7931C58.6308 69.9342 58.486 70.0789 58.3413 70.2236L54.2267 70.2309ZM58.3926 67.3291C61.9851 63.5479 65.0573 59.5542 66.8692 54.7141C67.5588 52.9454 67.9237 51.0669 67.9464 49.1687C67.9558 47.0075 67.2315 44.9072 65.892 43.2112C64.5525 41.5153 62.677 40.3241 60.5725 39.8326C58.468 39.3411 56.259 39.5784 54.3069 40.5056C52.3547 41.4328 50.7751 42.995 49.8263 44.9368C48.6538 47.3184 48.6263 49.7897 49.2217 52.2885C50.636 58.2571 54.2578 62.8847 58.3853 67.3291H58.3926Z" fill="#1A242E"/>
<path d="M54.2267 70.2309V68.1956H56.3243C56.099 67.9281 55.9689 67.7614 55.8278 67.6057C52.5303 63.9784 49.6834 60.058 47.9906 55.4084C46.8914 52.3783 46.362 49.2786 47.2102 46.0653C48.4926 41.2343 53.2557 37.0721 59.5101 37.5649C64.6763 37.9698 69.1811 42.2346 69.8883 47.5638C70.3151 50.7918 69.5494 53.8329 68.2743 56.7567C66.0759 61.8002 62.7399 66.0265 58.7773 69.7931C58.6308 69.9342 58.486 70.0789 58.3413 70.2236L54.2267 70.2309ZM58.3926 67.3291C61.9851 63.5479 65.0573 59.5542 66.8692 54.7141C67.5588 52.9454 67.9237 51.0669 67.9464 49.1687C67.9558 47.0075 67.2315 44.9072 65.892 43.2112C64.5525 41.5153 62.677 40.3241 60.5725 39.8326C58.468 39.3411 56.259 39.5784 54.3069 40.5056C52.3547 41.4328 50.7751 42.995 49.8263 44.9368C48.6538 47.3184 48.6263 49.7897 49.2217 52.2885C50.636 58.2571 54.2578 62.8847 58.3853 67.3291H58.3926Z" fill="black" fill-opacity="0.2"/>
<path d="M37.7573 70.2308V68.2156H41.872V70.2308H37.7573Z" fill="#1A242E"/>
<path d="M37.7573 70.2308V68.2156H41.872V70.2308H37.7573Z" fill="black" fill-opacity="0.2"/>
<path d="M45.9829 70.2308V68.2156H50.0975V70.2308H45.9829Z" fill="#1A242E"/>
<path d="M45.9829 70.2308V68.2156H50.0975V70.2308H45.9829Z" fill="black" fill-opacity="0.2"/>
<path d="M30.3486 70.2309L29.3813 69.9744C29.5035 69.3503 29.6195 68.7342 29.7294 68.126H33.6407V70.2309H30.3486Z" fill="#1A242E"/>
<path d="M30.3486 70.2309L29.3813 69.9744C29.5035 69.3503 29.6195 68.7342 29.7294 68.126H33.6407V70.2309H30.3486Z" fill="black" fill-opacity="0.2"/>
<path d="M12.844 27.2856H14.5441V29.352C13.2343 29.352 11.9171 29.352 10.5999 29.352C10.4675 29.3304 10.3459 29.2661 10.2536 29.1688C5.94297 25.056 2.35412 20.4669 0.633893 14.665C-0.194163 11.8676 -0.313242 9.04452 0.895866 6.28556C1.89065 4.00622 3.66379 2.15507 5.89822 1.06315C8.13265 -0.028778 10.6826 -0.290265 13.0922 0.325447C15.5017 0.941159 17.6137 2.39391 19.0503 4.42392C20.487 6.45393 21.1547 8.92879 20.9341 11.4059C20.6245 15.2531 19.1021 18.6386 16.9825 21.775C15.7129 23.6637 14.2528 25.4243 12.844 27.2856ZM10.4808 26.5638C13.1372 23.7975 15.3887 20.8846 17.0503 17.5339C18.0505 15.5187 18.7668 13.401 18.8823 11.122C19.0508 7.92701 17.8509 5.33842 15.2183 3.53575C12.626 1.77339 9.81395 1.54622 6.96156 2.87257C3.23714 4.59464 1.42348 8.42714 2.29184 12.7048C3.41667 18.2337 6.72706 22.4766 10.4808 26.5638Z" fill="#1A242E"/>
<path d="M12.844 27.2856H14.5441V29.352C13.2343 29.352 11.9171 29.352 10.5999 29.352C10.4675 29.3304 10.3459 29.2661 10.2536 29.1688C5.94297 25.056 2.35412 20.4669 0.633893 14.665C-0.194163 11.8676 -0.313242 9.04452 0.895866 6.28556C1.89065 4.00622 3.66379 2.15507 5.89822 1.06315C8.13265 -0.028778 10.6826 -0.290265 13.0922 0.325447C15.5017 0.941159 17.6137 2.39391 19.0503 4.42392C20.487 6.45393 21.1547 8.92879 20.9341 11.4059C20.6245 15.2531 19.1021 18.6386 16.9825 21.775C15.7129 23.6637 14.2528 25.4243 12.844 27.2856ZM10.4808 26.5638C13.1372 23.7975 15.3887 20.8846 17.0503 17.5339C18.0505 15.5187 18.7668 13.401 18.8823 11.122C19.0508 7.92701 17.8509 5.33842 15.2183 3.53575C12.626 1.77339 9.81395 1.54622 6.96156 2.87257C3.23714 4.59464 1.42348 8.42714 2.29184 12.7048C3.41667 18.2337 6.72706 22.4766 10.4808 26.5638Z" fill="black" fill-opacity="0.2"/>
<path d="M35.2144 29.2276V27.3205C36.722 27.2958 38.2168 27.6003 39.5946 28.2127L38.8252 29.9659L35.2144 29.2276Z" fill="#1A242E"/>
<path d="M35.2144 29.2276V27.3205C36.722 27.2958 38.2168 27.6003 39.5946 28.2127L38.8252 29.9659L35.2144 29.2276Z" fill="black" fill-opacity="0.2"/>
<path d="M43.383 30.7241L45.7371 34.6409L43.764 35.3297L41.8643 32.1421L43.383 30.7241Z" fill="#1A242E"/>
<path d="M43.383 30.7241L45.7371 34.6409L43.764 35.3297L41.8643 32.1421L43.383 30.7241Z" fill="black" fill-opacity="0.2"/>
<path d="M37.4053 47.0251L40.7395 45.4075L41.9101 46.9079C40.7278 47.8546 39.3519 48.53 37.8798 48.8864C37.7094 48.2342 37.5555 47.6113 37.4053 47.0251Z" fill="#1A242E"/>
<path d="M37.4053 47.0251L40.7395 45.4075L41.9101 46.9079C40.7278 47.8546 39.3519 48.53 37.8798 48.8864C37.7094 48.2342 37.5555 47.6113 37.4053 47.0251Z" fill="black" fill-opacity="0.2"/>
<path d="M20.2545 56.5239L22.1836 56.8903V60.6092L20.3205 61.005C19.9431 59.5046 19.9981 58.0573 20.2545 56.5239Z" fill="#1A242E"/>
<path d="M20.2545 56.5239L22.1836 56.8903V60.6092L20.3205 61.005C19.9431 59.5046 19.9981 58.0573 20.2545 56.5239Z" fill="black" fill-opacity="0.2"/>
<path d="M23.4257 64.2056L26.0326 66.8509L26.3166 66.6384L25.1276 68.4246L21.9106 65.2425L23.4257 64.2056Z" fill="#1A242E"/>
<path d="M23.4257 64.2056L26.0326 66.8509L26.3166 66.6384L25.1276 68.4246L21.9106 65.2425L23.4257 64.2056Z" fill="black" fill-opacity="0.2"/>
<path d="M18.752 27.3369H22.797V29.3118H18.752V27.3369Z" fill="#1A242E"/>
<path d="M18.752 27.3369H22.797V29.3118H18.752V27.3369Z" fill="black" fill-opacity="0.2"/>
<path d="M26.9702 29.3008V27.3589H31.0189V29.3008H26.9702Z" fill="#1A242E"/>
<path d="M26.9702 29.3008V27.3589H31.0189V29.3008H26.9702Z" fill="black" fill-opacity="0.2"/>
<path d="M44.8397 43.4858L43.1543 42.5698C43.5079 41.3936 43.8468 40.2688 44.2187 39.0396L46.1148 39.166C46.0128 40.6822 45.5775 42.1572 44.8397 43.4858Z" fill="#1A242E"/>
<path d="M44.8397 43.4858L43.1543 42.5698C43.5079 41.3936 43.8468 40.2688 44.2187 39.0396L46.1148 39.166C46.0128 40.6822 45.5775 42.1572 44.8397 43.4858Z" fill="black" fill-opacity="0.2"/>
<path d="M21.8169 52.2774C22.9161 51.1635 23.9255 50.1395 25.0045 49.0476L26.0817 50.6231L23.4199 53.1641L23.6287 53.4682L21.8169 52.2774Z" fill="#1A242E"/>
<path d="M21.8169 52.2774C22.9161 51.1635 23.9255 50.1395 25.0045 49.0476L26.0817 50.6231L23.4199 53.1641L23.6287 53.4682L21.8169 52.2774Z" fill="black" fill-opacity="0.2"/>
<path d="M29.1909 47.3018H33.4796V49.2491H29.6159C29.5097 48.76 29.3723 48.1316 29.1909 47.3018Z" fill="#1A242E"/>
<path d="M29.1909 47.3018H33.4796V49.2491H29.6159C29.5097 48.76 29.3723 48.1316 29.1909 47.3018Z" fill="black" fill-opacity="0.2"/>
<path d="M66.4461 49.11C66.4472 50.7034 65.9753 52.2614 65.0902 53.5865C64.2052 54.9116 62.9467 55.9442 61.4743 56.5535C60.0019 57.1627 58.3818 57.3213 56.8192 57.0091C55.2566 56.6969 53.8218 55.9279 52.6966 54.7996C51.5714 53.6713 50.8064 52.2344 50.4984 50.671C50.1905 49.1075 50.3535 47.4879 50.9668 46.0171C51.5801 44.5464 52.6162 43.2908 53.9437 42.4093C55.2712 41.5279 56.8304 41.0603 58.4239 41.0657C60.5522 41.0759 62.5901 41.9273 64.093 43.4344C65.5959 44.9414 66.4418 46.9816 66.4461 49.11ZM52.4058 49.1301C52.4084 50.3136 52.7614 51.4698 53.4204 52.4529C54.0794 53.4359 55.0148 54.2018 56.1086 54.6538C57.2024 55.1057 58.4055 55.2236 59.5662 54.9925C60.7269 54.7614 61.7932 54.1917 62.6304 53.3552C63.4677 52.5187 64.0384 51.453 64.2706 50.2925C64.5027 49.132 64.386 47.9287 63.935 46.8345C63.484 45.7403 62.719 44.8042 61.7366 44.1443C60.7541 43.4844 59.5982 43.1303 58.4147 43.1267C57.6256 43.125 56.8439 43.2791 56.1145 43.5801C55.3851 43.8812 54.7222 44.3232 54.164 44.881C53.6057 45.4387 53.1631 46.1011 52.8614 46.8303C52.5597 47.5595 52.4049 48.341 52.4058 49.1301Z" fill="#1A242E"/>
<path d="M66.4461 49.11C66.4472 50.7034 65.9753 52.2614 65.0902 53.5865C64.2052 54.9116 62.9467 55.9442 61.4743 56.5535C60.0019 57.1627 58.3818 57.3213 56.8192 57.0091C55.2566 56.6969 53.8218 55.9279 52.6966 54.7996C51.5714 53.6713 50.8064 52.2344 50.4984 50.671C50.1905 49.1075 50.3535 47.4879 50.9668 46.0171C51.5801 44.5464 52.6162 43.2908 53.9437 42.4093C55.2712 41.5279 56.8304 41.0603 58.4239 41.0657C60.5522 41.0759 62.5901 41.9273 64.093 43.4344C65.5959 44.9414 66.4418 46.9816 66.4461 49.11ZM52.4058 49.1301C52.4084 50.3136 52.7614 51.4698 53.4204 52.4529C54.0794 53.4359 55.0148 54.2018 56.1086 54.6538C57.2024 55.1057 58.4055 55.2236 59.5662 54.9925C60.7269 54.7614 61.7932 54.1917 62.6304 53.3552C63.4677 52.5187 64.0384 51.453 64.2706 50.2925C64.5027 49.132 64.386 47.9287 63.935 46.8345C63.484 45.7403 62.719 44.8042 61.7366 44.1443C60.7541 43.4844 59.5982 43.1303 58.4147 43.1267C57.6256 43.125 56.8439 43.2791 56.1145 43.5801C55.3851 43.8812 54.7222 44.3232 54.164 44.881C53.6057 45.4387 53.1631 46.1011 52.8614 46.8303C52.5597 47.5595 52.4049 48.341 52.4058 49.1301Z" fill="black" fill-opacity="0.2"/>
<path d="M17.7939 10.7117C17.5575 14.8392 14.1501 18.025 10.2259 17.7704C6.00506 17.5102 2.94016 14.1064 3.20213 9.96611C3.45128 6.03285 6.92288 2.97161 10.8965 3.18778C14.8389 3.38381 18.0137 6.86274 17.7939 10.7117ZM5.24479 10.4772C5.24481 11.5146 5.55204 12.5288 6.12772 13.3918C6.70341 14.2548 7.52176 14.928 8.47957 15.3265C9.43738 15.725 10.4917 15.8309 11.5097 15.6309C12.5276 15.4309 13.4635 14.9339 14.1994 14.2027C14.9352 13.4714 15.438 12.5386 15.6444 11.522C15.8508 10.5053 15.7514 9.4503 15.359 8.49002C14.9665 7.52973 14.2984 6.70718 13.439 6.1261C12.5796 5.54503 11.5674 5.23146 10.5301 5.22495C9.13357 5.22347 7.79338 5.77532 6.80283 6.75969C5.81228 7.74406 5.25206 9.08077 5.24479 10.4772Z" fill="#1A242E"/>
<path d="M17.7939 10.7117C17.5575 14.8392 14.1501 18.025 10.2259 17.7704C6.00506 17.5102 2.94016 14.1064 3.20213 9.96611C3.45128 6.03285 6.92288 2.97161 10.8965 3.18778C14.8389 3.38381 18.0137 6.86274 17.7939 10.7117ZM5.24479 10.4772C5.24481 11.5146 5.55204 12.5288 6.12772 13.3918C6.70341 14.2548 7.52176 14.928 8.47957 15.3265C9.43738 15.725 10.4917 15.8309 11.5097 15.6309C12.5276 15.4309 13.4635 14.9339 14.1994 14.2027C14.9352 13.4714 15.438 12.5386 15.6444 11.522C15.8508 10.5053 15.7514 9.4503 15.359 8.49002C14.9665 7.52973 14.2984 6.70718 13.439 6.1261C12.5796 5.54503 11.5674 5.23146 10.5301 5.22495C9.13357 5.22347 7.79338 5.77532 6.80283 6.75969C5.81228 7.74406 5.25206 9.08077 5.24479 10.4772Z" fill="black" fill-opacity="0.2"/>
</g>
<defs>
<clipPath id="clip0_130:568">
<rect width="70" height="70.2308" fill="white"/>
</clipPath>
</defs>
</svg>
