<svg width="80" height="80" viewBox="0 0 80 80" fill="none" xmlns="http://www.w3.org/2000/svg">
<g clip-path="url(#clip0_3:359)">
<path d="M5.33325 69.3334H25.8429L24.5093 72H24.0002C19.8254 72 17.3334 73.9934 17.3334 77.3333C17.3334 78.806 18.5272 79.9999 20 79.9999H60C61.4728 79.9999 62.6666 78.806 62.6666 77.3333C62.6666 73.9934 60.1746 72 55.9998 72H55.4907L54.1571 69.3334H74.6667C77.6123 69.3334 80 66.9457 80 64.0001V17.3333C80 14.3877 77.6123 12 74.6667 12H60C59.2639 12 58.6664 12.5969 58.6664 13.333C58.6664 14.0697 59.2639 14.6666 60 14.6666H74.6667C76.1395 14.6666 77.3334 15.8605 77.3334 17.3333V64.0001C77.3334 65.4729 76.1395 66.6667 74.6667 66.6667H5.33325C3.86047 66.6667 2.66663 65.4729 2.66663 64.0001V17.3333C2.66663 15.8605 3.86047 14.6666 5.33325 14.6666H20C20.7361 14.6666 21.3336 14.0697 21.3336 13.333C21.3336 12.5969 20.7361 12 20 12H5.33325C2.3877 12 0 14.3877 0 17.3333V64.0001C0 66.9457 2.3877 69.3334 5.33325 69.3334ZM60 77.3333H20C20 76.6735 20 74.6666 24.0002 74.6666H55.9998C60 74.6666 60 76.6735 60 77.3333ZM51.1749 69.3334L52.5079 72H27.4908L28.8239 69.3334H51.1749Z" fill="#1A242E"/>
<path d="M5.33325 69.3334H25.8429L24.5093 72H24.0002C19.8254 72 17.3334 73.9934 17.3334 77.3333C17.3334 78.806 18.5272 79.9999 20 79.9999H60C61.4728 79.9999 62.6666 78.806 62.6666 77.3333C62.6666 73.9934 60.1746 72 55.9998 72H55.4907L54.1571 69.3334H74.6667C77.6123 69.3334 80 66.9457 80 64.0001V17.3333C80 14.3877 77.6123 12 74.6667 12H60C59.2639 12 58.6664 12.5969 58.6664 13.333C58.6664 14.0697 59.2639 14.6666 60 14.6666H74.6667C76.1395 14.6666 77.3334 15.8605 77.3334 17.3333V64.0001C77.3334 65.4729 76.1395 66.6667 74.6667 66.6667H5.33325C3.86047 66.6667 2.66663 65.4729 2.66663 64.0001V17.3333C2.66663 15.8605 3.86047 14.6666 5.33325 14.6666H20C20.7361 14.6666 21.3336 14.0697 21.3336 13.333C21.3336 12.5969 20.7361 12 20 12H5.33325C2.3877 12 0 14.3877 0 17.3333V64.0001C0 66.9457 2.3877 69.3334 5.33325 69.3334ZM60 77.3333H20C20 76.6735 20 74.6666 24.0002 74.6666H55.9998C60 74.6666 60 76.6735 60 77.3333ZM51.1749 69.3334L52.5079 72H27.4908L28.8239 69.3334H51.1749Z" fill="black" fill-opacity="0.2"/>
<path d="M70.6665 55.9999H9.3335C8.5968 55.9999 7.99988 55.403 7.99988 54.6669V21.3337C7.99988 20.597 8.5968 20.0001 9.3335 20.0001H13.3331C14.0698 20.0001 14.6667 19.4032 14.6667 18.6665C14.6667 17.9304 14.0698 17.3335 13.3331 17.3335H9.3335C7.12402 17.3335 5.33325 19.1243 5.33325 21.3337V54.6669C5.33325 56.8757 7.12402 58.6665 9.3335 58.6665H70.6665C72.876 58.6665 74.6667 56.8757 74.6667 54.6669V21.3337C74.6667 19.1243 72.876 17.3335 70.6665 17.3335H66.6669C65.9302 17.3335 65.3333 17.9304 65.3333 18.6665C65.3333 19.4032 65.9302 20.0001 66.6669 20.0001H70.6665C71.4032 20.0001 72.0001 20.597 72.0001 21.3337V54.6669C72.0001 55.403 71.4032 55.9999 70.6665 55.9999Z" fill="#1A242E"/>
<path d="M70.6665 55.9999H9.3335C8.5968 55.9999 7.99988 55.403 7.99988 54.6669V21.3337C7.99988 20.597 8.5968 20.0001 9.3335 20.0001H13.3331C14.0698 20.0001 14.6667 19.4032 14.6667 18.6665C14.6667 17.9304 14.0698 17.3335 13.3331 17.3335H9.3335C7.12402 17.3335 5.33325 19.1243 5.33325 21.3337V54.6669C5.33325 56.8757 7.12402 58.6665 9.3335 58.6665H70.6665C72.876 58.6665 74.6667 56.8757 74.6667 54.6669V21.3337C74.6667 19.1243 72.876 17.3335 70.6665 17.3335H66.6669C65.9302 17.3335 65.3333 17.9304 65.3333 18.6665C65.3333 19.4032 65.9302 20.0001 66.6669 20.0001H70.6665C71.4032 20.0001 72.0001 20.597 72.0001 21.3337V54.6669C72.0001 55.403 71.4032 55.9999 70.6665 55.9999Z" fill="black" fill-opacity="0.2"/>
<path d="M33.3331 61.3335C32.597 61.3335 32.0001 61.9304 32.0001 62.6665C32.0001 63.4032 32.597 64.0001 33.3331 64.0001H46.6669C47.403 64.0001 47.9999 63.4032 47.9999 62.6665C47.9999 61.9304 47.403 61.3335 46.6669 61.3335H33.3331Z" fill="#1A242E"/>
<path d="M33.3331 61.3335C32.597 61.3335 32.0001 61.9304 32.0001 62.6665C32.0001 63.4032 32.597 64.0001 33.3331 64.0001H46.6669C47.403 64.0001 47.9999 63.4032 47.9999 62.6665C47.9999 61.9304 47.403 61.3335 46.6669 61.3335H33.3331Z" fill="black" fill-opacity="0.2"/>
<path d="M57.1411 7.75085L54.9176 5.52551C54.0161 4.62708 52.6056 4.49097 51.5491 5.2002L48.2159 7.40112C47.1851 6.84631 46.0974 6.40259 44.9719 6.07849L44.1864 2.14783C43.9392 0.900269 42.8455 0.0012207 41.5735 0H38.4265C37.1558 0 36.0614 0.896606 35.8118 2.14294L35.0055 6.06812C33.8824 6.40076 32.7991 6.85181 31.7719 7.41455L28.4521 5.2002C27.3944 4.49219 25.9839 4.63074 25.0842 5.5304L22.8571 7.75574C21.9666 8.65784 21.8311 10.0616 22.5336 11.1176L24.7357 14.4507C24.1815 15.4822 23.7384 16.5698 23.4131 17.6947L19.4824 18.4784C18.2367 18.7286 17.3383 19.8212 17.3334 21.0919V24.2413C17.3364 25.5115 18.2324 26.604 19.4775 26.8561L23.4015 27.6562C23.7347 28.7781 24.1858 29.8621 24.7467 30.8893L22.5336 34.2157C21.8292 35.2747 21.9684 36.6827 22.8656 37.5842L25.0891 39.8077C25.9894 40.708 27.3993 40.8459 28.457 40.1385L31.7908 37.9376C32.8217 38.4924 33.9093 38.9355 35.0348 39.2603L35.8197 43.1909C36.0693 44.4336 37.1588 45.3296 38.4265 45.3333H41.5735C42.8442 45.3333 43.9386 44.4366 44.1882 43.1909L44.9945 39.2651C46.1176 38.9331 47.2009 38.4814 48.2281 37.9187L51.5479 40.1385C52.6062 40.8472 54.0173 40.7086 54.9176 39.8077L57.1429 37.5842C58.0389 36.6821 58.1769 35.2747 57.4731 34.2157L55.2704 30.8826C55.8228 29.856 56.2695 28.7762 56.604 27.6599L55.3265 27.2803L56.5985 27.6385L60.5292 26.8549C61.7706 26.5997 62.663 25.5084 62.6666 24.2413V21.0919C62.6636 19.8218 61.7676 18.7292 60.5225 18.4772L56.5985 17.6776C56.2653 16.5552 55.8142 15.4712 55.2533 14.444L57.4731 11.1224C58.183 10.0635 58.0438 8.65112 57.1411 7.75085ZM53.0347 12.9584C52.4915 13.7842 52.4475 14.8413 52.9199 15.7092C53.3856 16.5765 53.7622 17.4884 54.043 18.432C54.3176 19.386 55.0995 20.108 56.0718 20.3064L60 21.0919V24.2413L56.0718 25.0269C55.0995 25.2252 54.3176 25.9473 54.043 26.9012C53.7616 27.8448 53.3856 28.7579 52.9199 29.6252C52.4457 30.4926 52.4902 31.5515 53.0359 32.3761L55.2557 35.6976L53.0304 37.9224L49.7095 35.7025C48.8843 35.1587 47.8259 35.1135 46.9574 35.5853C46.0901 36.0516 45.177 36.4282 44.2334 36.7096C43.2837 36.9879 42.5653 37.7679 42.3669 38.7372L41.5735 42.6666H38.4265L37.6398 38.736C37.439 37.7643 36.7169 36.9843 35.7642 36.7078C34.8212 36.4276 33.9093 36.0516 33.0426 35.5865C32.6465 35.3729 32.2034 35.2606 31.7535 35.26C31.2311 35.2588 30.7208 35.4126 30.2869 35.7025L26.9653 37.9224L24.74 35.6976L26.9611 32.3749C27.5043 31.5491 27.5482 30.4919 27.0758 29.624C26.6101 28.7567 26.2341 27.8448 25.9534 26.9012C25.6787 25.9473 24.8969 25.2252 23.924 25.0269L20 24.2413V21.0919L23.9282 20.3064C24.9005 20.108 25.6824 19.386 25.957 18.432C26.2384 17.4884 26.6144 16.5759 27.0801 15.708C27.5543 14.8407 27.5098 13.7817 26.9641 12.9572L24.7443 9.63623L26.9696 7.41089L30.2905 9.63074C31.1151 10.177 32.1747 10.2222 33.0426 9.74792C33.9099 9.28162 34.823 8.90503 35.7666 8.62427C36.7188 8.34778 37.4402 7.56714 37.6398 6.59607L38.4265 2.66663H41.5735L42.3602 6.59729C42.561 7.56897 43.2831 8.34961 44.2358 8.62549C45.1788 8.90564 46.0907 9.28162 46.9574 9.7467C47.8253 10.2216 48.8843 10.177 49.7095 9.63074L53.0304 7.41089L55.2557 9.63623L53.0347 12.9584Z" fill="#1A242E"/>
<path d="M57.1411 7.75085L54.9176 5.52551C54.0161 4.62708 52.6056 4.49097 51.5491 5.2002L48.2159 7.40112C47.1851 6.84631 46.0974 6.40259 44.9719 6.07849L44.1864 2.14783C43.9392 0.900269 42.8455 0.0012207 41.5735 0H38.4265C37.1558 0 36.0614 0.896606 35.8118 2.14294L35.0055 6.06812C33.8824 6.40076 32.7991 6.85181 31.7719 7.41455L28.4521 5.2002C27.3944 4.49219 25.9839 4.63074 25.0842 5.5304L22.8571 7.75574C21.9666 8.65784 21.8311 10.0616 22.5336 11.1176L24.7357 14.4507C24.1815 15.4822 23.7384 16.5698 23.4131 17.6947L19.4824 18.4784C18.2367 18.7286 17.3383 19.8212 17.3334 21.0919V24.2413C17.3364 25.5115 18.2324 26.604 19.4775 26.8561L23.4015 27.6562C23.7347 28.7781 24.1858 29.8621 24.7467 30.8893L22.5336 34.2157C21.8292 35.2747 21.9684 36.6827 22.8656 37.5842L25.0891 39.8077C25.9894 40.708 27.3993 40.8459 28.457 40.1385L31.7908 37.9376C32.8217 38.4924 33.9093 38.9355 35.0348 39.2603L35.8197 43.1909C36.0693 44.4336 37.1588 45.3296 38.4265 45.3333H41.5735C42.8442 45.3333 43.9386 44.4366 44.1882 43.1909L44.9945 39.2651C46.1176 38.9331 47.2009 38.4814 48.2281 37.9187L51.5479 40.1385C52.6062 40.8472 54.0173 40.7086 54.9176 39.8077L57.1429 37.5842C58.0389 36.6821 58.1769 35.2747 57.4731 34.2157L55.2704 30.8826C55.8228 29.856 56.2695 28.7762 56.604 27.6599L55.3265 27.2803L56.5985 27.6385L60.5292 26.8549C61.7706 26.5997 62.663 25.5084 62.6666 24.2413V21.0919C62.6636 19.8218 61.7676 18.7292 60.5225 18.4772L56.5985 17.6776C56.2653 16.5552 55.8142 15.4712 55.2533 14.444L57.4731 11.1224C58.183 10.0635 58.0438 8.65112 57.1411 7.75085ZM53.0347 12.9584C52.4915 13.7842 52.4475 14.8413 52.9199 15.7092C53.3856 16.5765 53.7622 17.4884 54.043 18.432C54.3176 19.386 55.0995 20.108 56.0718 20.3064L60 21.0919V24.2413L56.0718 25.0269C55.0995 25.2252 54.3176 25.9473 54.043 26.9012C53.7616 27.8448 53.3856 28.7579 52.9199 29.6252C52.4457 30.4926 52.4902 31.5515 53.0359 32.3761L55.2557 35.6976L53.0304 37.9224L49.7095 35.7025C48.8843 35.1587 47.8259 35.1135 46.9574 35.5853C46.0901 36.0516 45.177 36.4282 44.2334 36.7096C43.2837 36.9879 42.5653 37.7679 42.3669 38.7372L41.5735 42.6666H38.4265L37.6398 38.736C37.439 37.7643 36.7169 36.9843 35.7642 36.7078C34.8212 36.4276 33.9093 36.0516 33.0426 35.5865C32.6465 35.3729 32.2034 35.2606 31.7535 35.26C31.2311 35.2588 30.7208 35.4126 30.2869 35.7025L26.9653 37.9224L24.74 35.6976L26.9611 32.3749C27.5043 31.5491 27.5482 30.4919 27.0758 29.624C26.6101 28.7567 26.2341 27.8448 25.9534 26.9012C25.6787 25.9473 24.8969 25.2252 23.924 25.0269L20 24.2413V21.0919L23.9282 20.3064C24.9005 20.108 25.6824 19.386 25.957 18.432C26.2384 17.4884 26.6144 16.5759 27.0801 15.708C27.5543 14.8407 27.5098 13.7817 26.9641 12.9572L24.7443 9.63623L26.9696 7.41089L30.2905 9.63074C31.1151 10.177 32.1747 10.2222 33.0426 9.74792C33.9099 9.28162 34.823 8.90503 35.7666 8.62427C36.7188 8.34778 37.4402 7.56714 37.6398 6.59607L38.4265 2.66663H41.5735L42.3602 6.59729C42.561 7.56897 43.2831 8.34961 44.2358 8.62549C45.1788 8.90564 46.0907 9.28162 46.9574 9.7467C47.8253 10.2216 48.8843 10.177 49.7095 9.63074L53.0304 7.41089L55.2557 9.63623L53.0347 12.9584Z" fill="black" fill-opacity="0.2"/>
<path d="M40 12C34.1089 12 29.3335 16.7754 29.3335 22.6665C29.3335 28.5576 34.1089 33.333 40 33.333C45.8911 33.333 50.6665 28.5576 50.6665 22.6665C50.6598 16.7784 45.8881 12.0067 40 12ZM40 30.6664C35.5817 30.6664 32.0001 27.0848 32.0001 22.6665C32.0001 18.2482 35.5817 14.6666 40 14.6666C44.4183 14.6666 47.9999 18.2482 47.9999 22.6665C47.9956 27.083 44.4165 30.6621 40 30.6664Z" fill="#1A242E"/>
<path d="M40 12C34.1089 12 29.3335 16.7754 29.3335 22.6665C29.3335 28.5576 34.1089 33.333 40 33.333C45.8911 33.333 50.6665 28.5576 50.6665 22.6665C50.6598 16.7784 45.8881 12.0067 40 12ZM40 30.6664C35.5817 30.6664 32.0001 27.0848 32.0001 22.6665C32.0001 18.2482 35.5817 14.6666 40 14.6666C44.4183 14.6666 47.9999 18.2482 47.9999 22.6665C47.9956 27.083 44.4165 30.6621 40 30.6664Z" fill="black" fill-opacity="0.2"/>
<path d="M41.3336 22.6665C41.3336 23.4032 40.7361 24.0001 40 24.0001C39.2639 24.0001 38.6664 23.4032 38.6664 22.6665C38.6664 21.9304 39.2639 21.3335 40 21.3335C40.7361 21.3335 41.3336 21.9304 41.3336 22.6665Z" fill="#1A242E"/>
<path d="M41.3336 22.6665C41.3336 23.4032 40.7361 24.0001 40 24.0001C39.2639 24.0001 38.6664 23.4032 38.6664 22.6665C38.6664 21.9304 39.2639 21.3335 40 21.3335C40.7361 21.3335 41.3336 21.9304 41.3336 22.6665Z" fill="black" fill-opacity="0.2"/>
</g>
<defs>
<clipPath id="clip0_3:359">
<rect width="80" height="80" fill="white"/>
</clipPath>
</defs>
</svg>
