<svg width="86" height="72" viewBox="0 0 86 72" fill="none" xmlns="http://www.w3.org/2000/svg">
<ellipse cx="29.9029" cy="29.7872" rx="29.9029" ry="29.7872" fill="#34DECA"/>
<g clip-path="url(#clip0_194:646)">
<path d="M85.9961 27.655C85.6793 28.1447 85.3232 28.5771 84.6567 28.5351C83.9902 28.4932 83.5641 28.0467 83.4585 27.2823C82.9829 23.743 81.8647 20.3205 80.1591 17.1831C78.7581 14.6009 76.9732 12.2464 74.8653 10.2001C74.4837 9.83379 74.1021 9.41151 74.2993 8.88747C74.4696 8.47376 74.7666 8.12465 75.1477 7.89027C75.6094 7.61044 76.1169 7.82921 76.4603 8.21207C77.6966 9.59467 79.0042 10.9264 80.1082 12.4095C83.1859 16.5377 85.1749 21.3743 85.8918 26.4733C85.9178 26.573 85.954 26.6698 85.9999 26.7621L85.9961 27.655Z" fill="black"/>
<path d="M58.6495 64.2933C58.6495 65.2014 58.6826 66.0638 58.6432 66.9236C58.5503 68.9231 57.6523 70.5143 55.8233 71.3182C52.4501 72.8 48.7983 70.8934 48.5363 67.0063C48.4765 66.1274 48.5274 65.2396 48.5274 64.2729H47.749C42.2372 64.2729 36.7293 64.2729 31.2252 64.2729C29.9253 64.2729 29.5272 63.8735 29.5259 62.5698C29.5259 60.3108 29.5259 58.0514 29.5259 55.7916C29.5259 54.5922 29.9075 54.1877 31.0815 54.1279C32.7133 54.0502 34.252 53.3453 35.3766 52.1603C36.5011 50.9753 37.1246 49.4018 37.1168 47.7682C37.1384 42.2569 37.1168 36.7456 37.1245 31.233C37.1334 24.0783 41.3333 18.0518 48.0466 15.5779C48.4447 15.4316 48.5274 15.2281 48.53 14.8415C48.5389 13.5988 48.46 12.3357 48.6495 11.1172C49.0489 8.56444 51.4223 6.81043 53.9917 7.01267C55.2346 7.11867 56.3952 7.6783 57.252 8.58492C58.1089 9.49154 58.6023 10.6818 58.6381 11.9287C58.6622 12.9208 58.6635 13.9142 58.6381 14.9063C58.6266 15.2943 58.7729 15.4431 59.1214 15.5779C64.8286 17.7784 68.3951 21.8575 69.7052 27.842C69.9596 28.9867 70.0232 30.1862 70.0308 31.3614C70.0639 36.7036 70.0448 42.0457 70.0461 47.3879C70.0461 51.3118 72.492 53.9066 76.4058 54.1292C77.2046 54.1762 77.7337 54.7194 77.7235 55.452C77.6939 57.7932 77.6688 60.1349 77.6485 62.4769C77.6485 62.6677 77.6574 62.8585 77.6421 63.0468C77.6299 63.3671 77.496 63.6707 77.2677 63.8956C77.0394 64.1206 76.7339 64.2501 76.4134 64.2576C75.9708 64.2831 75.5231 64.2653 75.0843 64.2653H59.0604C58.9561 64.2742 58.8505 64.2831 58.6495 64.2933ZM70.1339 54.1368C70.0169 53.9842 69.9749 53.9193 69.9227 53.8633C68.2399 52.0343 67.4971 49.872 67.506 47.393C67.534 41.9236 67.5442 36.4543 67.506 30.9849C67.445 21.874 58.8568 15.3057 50.0461 17.5978C43.9853 19.1737 39.69 24.657 39.6607 30.9213C39.634 36.5179 39.6531 42.1144 39.6531 47.711C39.6728 49.7779 38.966 51.7861 37.6561 53.3851C37.4768 53.6102 37.2847 53.8226 37.0202 54.1381H38.2985C41.4427 54.1381 44.5874 54.1381 47.7324 54.1381C48.6228 54.1381 49.1863 54.61 49.2193 55.3515C49.255 56.1363 48.6546 56.6692 47.7095 56.6692C42.7498 56.6692 37.7893 56.6692 32.8278 56.6692H32.1003V61.7061H75.069V56.6705H61.4236C60.7266 56.6705 60.0245 56.6909 59.3338 56.6616C59.169 56.6617 59.0059 56.6286 58.8543 56.5641C58.7027 56.4996 58.5657 56.4051 58.4515 56.2862C58.3373 56.1674 58.2483 56.0268 58.1899 55.8727C58.1315 55.7186 58.1048 55.5543 58.1115 55.3897C58.1115 54.6876 58.6114 54.1839 59.3529 54.1355C59.5208 54.1254 59.69 54.1355 59.8617 54.1355H70.1301L70.1339 54.1368ZM56.0904 14.6799C56.0904 13.7094 56.1616 12.697 56.0713 11.6985C55.9644 10.5245 54.9342 9.62778 53.7742 9.54256C52.6142 9.45734 51.43 10.148 51.2176 11.2673C51.0051 12.3866 51.0586 13.5772 50.9988 14.6799H56.0904ZM51.0497 64.3047C51.0497 65.1734 51.0331 66.0129 51.0497 66.8486C51.0608 67.4671 51.2976 68.0602 51.7155 68.5163C52.1334 68.9724 52.7036 69.26 53.3188 69.3251C54.578 69.4522 55.8271 68.6395 56.0153 67.3586C56.1616 66.3589 56.0446 65.3235 56.0446 64.2996L51.0497 64.3047Z" fill="black"/>
<path d="M21 27.1754C21.5393 25.0767 21.9667 22.9411 22.6408 20.887C24.2155 16.0917 26.8878 11.9567 30.4874 8.42193C31.2506 7.67657 31.9463 7.58881 32.5225 8.16754C33.0987 8.74628 33.0313 9.46874 32.277 10.2026C28.4332 13.9956 25.7889 18.4843 24.4215 23.7094C24.1023 24.9343 23.9255 26.1884 23.6851 27.4285C23.5452 28.1446 22.9575 28.6076 22.2859 28.5313C21.9703 28.4913 21.6808 28.3353 21.4739 28.0936C21.267 27.8519 21.1575 27.5418 21.1666 27.2238L21 27.1754Z" fill="black"/>
<path d="M37.5951 13.0392C37.969 13.3457 38.4549 13.5607 38.6012 13.9156C38.7474 14.2704 38.6546 14.8059 38.5007 15.2028C38.3735 15.5284 38.0008 15.7599 37.7375 16.0321C34.7387 19.0998 32.7201 22.9903 31.9387 27.2086C31.9273 27.2697 31.9273 27.3358 31.9133 27.3956C31.7416 28.1855 31.1145 28.6561 30.4162 28.52C29.7179 28.3839 29.2715 27.7301 29.4165 26.939C30.3747 21.7367 32.7604 17.3019 36.5737 13.6345C36.8166 13.4017 37.1677 13.2834 37.5951 13.0392Z" fill="black"/>
<path d="M69.7025 13.2058C69.8386 13.2834 70.1896 13.403 70.4326 13.6357C74.2679 17.3116 76.6575 21.7672 77.6012 27.0026C77.6352 27.169 77.6358 27.3406 77.6029 27.5073C77.57 27.6739 77.5043 27.8324 77.4096 27.9735C77.3149 28.1146 77.1932 28.2354 77.0514 28.329C76.9096 28.4226 76.7506 28.4871 76.5837 28.5187C75.8854 28.6561 75.2494 28.1995 75.1006 27.3956C74.5918 24.6495 73.6887 22.0394 72.1255 19.7258C71.1398 18.2669 69.9123 16.9733 68.8274 15.578C68.5704 15.2346 68.3161 14.797 68.2665 14.3773C68.1978 13.7222 68.8134 13.2058 69.7025 13.2058Z" fill="black"/>
<path d="M52.4168 55.4304C52.4109 55.2667 52.4373 55.1034 52.4946 54.95C52.552 54.7965 52.639 54.6559 52.7508 54.5362C52.8626 54.4165 52.997 54.32 53.1461 54.2523C53.2953 54.1847 53.4564 54.1471 53.6201 54.1419C53.7883 54.1343 53.9562 54.1605 54.1141 54.2188C54.2721 54.2771 54.4167 54.3664 54.5396 54.4814C54.6626 54.5964 54.7613 54.7348 54.8299 54.8885C54.8986 55.0422 54.9358 55.208 54.9395 55.3763C54.9431 55.5446 54.9131 55.7119 54.8511 55.8684C54.7892 56.025 54.6966 56.1675 54.5788 56.2877C54.4609 56.408 54.3203 56.5034 54.165 56.5685C54.0098 56.6336 53.8431 56.667 53.6748 56.6667C53.5109 56.6687 53.3481 56.6383 53.196 56.5771C53.0439 56.516 52.9054 56.4253 52.7884 56.3104C52.6715 56.1955 52.5785 56.0586 52.5147 55.9075C52.4509 55.7565 52.4177 55.5943 52.4168 55.4304V55.4304Z" fill="black"/>
</g>
<defs>
<clipPath id="clip0_194:646">
<rect width="65" height="64.8207" fill="white" transform="translate(21 7)"/>
</clipPath>
</defs>
</svg>
