<svg width="85" height="70" viewBox="0 0 85 70" fill="none" xmlns="http://www.w3.org/2000/svg">
<ellipse cx="29.9029" cy="29.7872" rx="29.9029" ry="29.7872" fill="#34DECA"/>
<g clip-path="url(#clip0_194:645)">
<path d="M85 56.5092C84.9237 56.7262 84.844 56.9399 84.7762 57.1569C84.5014 58.0645 83.9586 58.8678 83.219 59.4613C82.4794 60.0547 81.5775 60.4106 80.632 60.4821C80.2742 60.5127 79.913 60.5228 79.5535 60.5228C73.3123 60.5228 67.0711 60.5228 60.83 60.5228H59.8736C60.401 62.1812 60.7418 63.7972 61.4218 65.2504C62.1475 66.7985 63.5803 67.5192 65.3218 67.5192H71.6687C72.6861 67.5192 73.1015 67.7905 73.1151 68.4433C73.1286 69.1216 72.6776 69.4268 71.65 69.4268H33.372C32.3343 69.4268 31.8883 69.1351 31.8883 68.4636C31.8883 67.7922 32.3173 67.5192 33.3754 67.5192C35.4272 67.5192 37.4806 67.5192 39.5324 67.5192C41.8487 67.5192 43.4121 66.3322 44.0547 64.1058C44.3939 62.951 44.7126 61.7929 45.0721 60.5228H44.1904C37.8859 60.5228 31.5808 60.5228 25.2752 60.5228C24.1781 60.5228 23.1217 60.377 22.1891 59.7462C20.7291 58.7644 20 57.3774 20 55.6139C20 45.1403 20 34.6662 20 24.1915C20 20.8205 20 17.4523 20 14.087C20 11.0161 21.989 9 25.031 9C43.3329 9 61.6343 9 79.935 9C82.5515 9 84.2217 10.3006 84.9017 12.8407C84.9264 12.8979 84.9595 12.951 85 12.9984V56.5092ZM83.0958 47.1254V46.3538C83.0958 35.6474 83.0958 24.9415 83.0958 14.2362C83.0958 12.0047 82.0139 10.9093 79.8028 10.9093H25.1599C23.0217 10.9093 21.9059 12.0217 21.9059 14.148C21.9059 24.8974 21.9059 35.6457 21.9059 46.3928V47.1254H83.0958ZM21.9178 49.1025C21.9178 51.468 21.8703 53.7571 21.9365 56.0412C21.9738 57.3587 23.0776 58.4151 24.3833 58.5643C24.7409 58.6025 25.1004 58.6195 25.46 58.6152H79.5383C79.7909 58.6152 80.047 58.6152 80.2979 58.5983C81.9936 58.4762 83.0839 57.318 83.0924 55.5969C83.1009 53.9216 83.0924 52.2463 83.0924 50.5727V49.1025H21.9178ZM60.6774 67.4903C59.5124 66.3288 59.1801 64.9231 58.8003 63.536C58.5781 62.7204 58.3119 61.915 58.1084 61.096C58.0067 60.6856 57.8507 60.511 57.3912 60.5144C54.1377 60.5347 50.8837 60.5347 47.6292 60.5144C47.1883 60.5144 47.0289 60.6619 46.8899 61.0739C46.1641 63.2291 46.0421 65.6132 44.3684 67.4903H60.6774Z" fill="#1A242E"/>
<path d="M85 56.5092C84.9237 56.7262 84.844 56.9399 84.7762 57.1569C84.5014 58.0645 83.9586 58.8678 83.219 59.4613C82.4794 60.0547 81.5775 60.4106 80.632 60.4821C80.2742 60.5127 79.913 60.5228 79.5535 60.5228C73.3123 60.5228 67.0711 60.5228 60.83 60.5228H59.8736C60.401 62.1812 60.7418 63.7972 61.4218 65.2504C62.1475 66.7985 63.5803 67.5192 65.3218 67.5192H71.6687C72.6861 67.5192 73.1015 67.7905 73.1151 68.4433C73.1286 69.1216 72.6776 69.4268 71.65 69.4268H33.372C32.3343 69.4268 31.8883 69.1351 31.8883 68.4636C31.8883 67.7922 32.3173 67.5192 33.3754 67.5192C35.4272 67.5192 37.4806 67.5192 39.5324 67.5192C41.8487 67.5192 43.4121 66.3322 44.0547 64.1058C44.3939 62.951 44.7126 61.7929 45.0721 60.5228H44.1904C37.8859 60.5228 31.5808 60.5228 25.2752 60.5228C24.1781 60.5228 23.1217 60.377 22.1891 59.7462C20.7291 58.7644 20 57.3774 20 55.6139C20 45.1403 20 34.6662 20 24.1915C20 20.8205 20 17.4523 20 14.087C20 11.0161 21.989 9 25.031 9C43.3329 9 61.6343 9 79.935 9C82.5515 9 84.2217 10.3006 84.9017 12.8407C84.9264 12.8979 84.9595 12.951 85 12.9984V56.5092ZM83.0958 47.1254V46.3538C83.0958 35.6474 83.0958 24.9415 83.0958 14.2362C83.0958 12.0047 82.0139 10.9093 79.8028 10.9093H25.1599C23.0217 10.9093 21.9059 12.0217 21.9059 14.148C21.9059 24.8974 21.9059 35.6457 21.9059 46.3928V47.1254H83.0958ZM21.9178 49.1025C21.9178 51.468 21.8703 53.7571 21.9365 56.0412C21.9738 57.3587 23.0776 58.4151 24.3833 58.5643C24.7409 58.6025 25.1004 58.6195 25.46 58.6152H79.5383C79.7909 58.6152 80.047 58.6152 80.2979 58.5983C81.9936 58.4762 83.0839 57.318 83.0924 55.5969C83.1009 53.9216 83.0924 52.2463 83.0924 50.5727V49.1025H21.9178ZM60.6774 67.4903C59.5124 66.3288 59.1801 64.9231 58.8003 63.536C58.5781 62.7204 58.3119 61.915 58.1084 61.096C58.0067 60.6856 57.8507 60.511 57.3912 60.5144C54.1377 60.5347 50.8837 60.5347 47.6292 60.5144C47.1883 60.5144 47.0289 60.6619 46.8899 61.0739C46.1641 63.2291 46.0421 65.6132 44.3684 67.4903H60.6774Z" fill="black" fill-opacity="0.2"/>
<path d="M79.2549 14.7652H25.7125V15.4435C25.7125 19.1536 25.7125 22.8637 25.7125 26.5738C25.7125 26.7654 25.7227 26.9571 25.7125 27.1453C25.6633 27.6998 25.2835 28.0643 24.768 28.066C24.6447 28.0694 24.5219 28.0481 24.4069 28.0033C24.292 27.9584 24.1872 27.8911 24.0987 27.8051C24.0101 27.7191 23.9398 27.6163 23.8916 27.5027C23.8435 27.3891 23.8186 27.267 23.8184 27.1436C23.7913 26.7214 23.81 26.2957 23.81 25.8718C23.81 21.9707 23.81 18.0706 23.81 14.1717C23.81 13.0933 24.0796 12.8152 25.1665 12.8152H79.867C80.9031 12.8152 81.1896 13.1034 81.1896 14.1293C81.1896 24.0524 81.1896 33.9749 81.1896 43.8968C81.1896 44.96 80.9031 45.2533 79.8331 45.2533C61.6182 45.2533 43.4028 45.2533 25.1868 45.2533C24.0813 45.2533 23.8117 44.9718 23.8117 43.851C23.8117 39.6943 23.8117 35.5388 23.8117 31.3844C23.7997 31.1939 23.8048 31.0026 23.8269 30.813C23.9202 30.3162 24.222 30.0143 24.7358 30.0025C25.2801 29.9923 25.6023 30.2958 25.7006 30.8232C25.7222 31.0129 25.7267 31.2041 25.7142 31.3946C25.7142 35.1251 25.7142 38.8556 25.7142 42.586V43.3033H79.2549V14.7652Z" fill="#1A242E"/>
<path d="M79.2549 14.7652H25.7125V15.4435C25.7125 19.1536 25.7125 22.8637 25.7125 26.5738C25.7125 26.7654 25.7227 26.9571 25.7125 27.1453C25.6633 27.6998 25.2835 28.0643 24.768 28.066C24.6447 28.0694 24.5219 28.0481 24.4069 28.0033C24.292 27.9584 24.1872 27.8911 24.0987 27.8051C24.0101 27.7191 23.9398 27.6163 23.8916 27.5027C23.8435 27.3891 23.8186 27.267 23.8184 27.1436C23.7913 26.7214 23.81 26.2957 23.81 25.8718C23.81 21.9707 23.81 18.0706 23.81 14.1717C23.81 13.0933 24.0796 12.8152 25.1665 12.8152H79.867C80.9031 12.8152 81.1896 13.1034 81.1896 14.1293C81.1896 24.0524 81.1896 33.9749 81.1896 43.8968C81.1896 44.96 80.9031 45.2533 79.8331 45.2533C61.6182 45.2533 43.4028 45.2533 25.1868 45.2533C24.0813 45.2533 23.8117 44.9718 23.8117 43.851C23.8117 39.6943 23.8117 35.5388 23.8117 31.3844C23.7997 31.1939 23.8048 31.0026 23.8269 30.813C23.9202 30.3162 24.222 30.0143 24.7358 30.0025C25.2801 29.9923 25.6023 30.2958 25.7006 30.8232C25.7222 31.0129 25.7267 31.2041 25.7142 31.3946C25.7142 35.1251 25.7142 38.8556 25.7142 42.586V43.3033H79.2549V14.7652Z" fill="black" fill-opacity="0.2"/>
<path d="M52.5214 50.9863C53.0851 50.9896 53.6351 51.1599 54.102 51.4757C54.569 51.7914 54.9319 52.2384 55.145 52.7602C55.358 53.2821 55.4117 53.8553 55.2992 54.4076C55.1867 54.96 54.913 55.4666 54.5128 55.8635C54.1126 56.2604 53.6037 56.5298 53.0505 56.6377C52.4973 56.7456 51.9245 56.6872 51.4044 56.4698C50.8844 56.2524 50.4404 55.8858 50.1286 55.4162C49.8167 54.9467 49.651 54.3953 49.6524 53.8316C49.651 53.4556 49.7244 53.083 49.8684 52.7356C50.0124 52.3882 50.2241 52.073 50.4911 51.8082C50.7581 51.5434 51.0751 51.3343 51.4237 51.1932C51.7723 51.0521 52.1454 50.9818 52.5214 50.9863V50.9863ZM53.4337 53.8469C53.4352 53.6635 53.3827 53.4838 53.2827 53.33C53.1828 53.1763 53.0398 53.0553 52.8716 52.9823C52.7034 52.9093 52.5174 52.8873 52.3368 52.9192C52.1562 52.9511 51.989 53.0355 51.8561 53.1618C51.7231 53.288 51.6302 53.4507 51.589 53.6293C51.5478 53.808 51.5601 53.9949 51.6243 54.1666C51.6886 54.3384 51.802 54.4874 51.9503 54.5952C52.0987 54.703 52.2755 54.7647 52.4587 54.7727C52.5848 54.7812 52.7112 54.7634 52.83 54.7205C52.9489 54.6776 53.0576 54.6106 53.1492 54.5236C53.2408 54.4366 53.3134 54.3315 53.3624 54.215C53.4113 54.0986 53.4356 53.9732 53.4337 53.8469V53.8469Z" fill="#1A242E"/>
<path d="M52.5214 50.9863C53.0851 50.9896 53.6351 51.1599 54.102 51.4757C54.569 51.7914 54.9319 52.2384 55.145 52.7602C55.358 53.2821 55.4117 53.8553 55.2992 54.4076C55.1867 54.96 54.913 55.4666 54.5128 55.8635C54.1126 56.2604 53.6037 56.5298 53.0505 56.6377C52.4973 56.7456 51.9245 56.6872 51.4044 56.4698C50.8844 56.2524 50.4404 55.8858 50.1286 55.4162C49.8167 54.9467 49.651 54.3953 49.6524 53.8316C49.651 53.4556 49.7244 53.083 49.8684 52.7356C50.0124 52.3882 50.2241 52.073 50.4911 51.8082C50.7581 51.5434 51.0751 51.3343 51.4237 51.1932C51.7723 51.0521 52.1454 50.9818 52.5214 50.9863V50.9863ZM53.4337 53.8469C53.4352 53.6635 53.3827 53.4838 53.2827 53.33C53.1828 53.1763 53.0398 53.0553 52.8716 52.9823C52.7034 52.9093 52.5174 52.8873 52.3368 52.9192C52.1562 52.9511 51.989 53.0355 51.8561 53.1618C51.7231 53.288 51.6302 53.4507 51.589 53.6293C51.5478 53.808 51.5601 53.9949 51.6243 54.1666C51.6886 54.3384 51.802 54.4874 51.9503 54.5952C52.0987 54.703 52.2755 54.7647 52.4587 54.7727C52.5848 54.7812 52.7112 54.7634 52.83 54.7205C52.9489 54.6776 53.0576 54.6106 53.1492 54.5236C53.2408 54.4366 53.3134 54.3315 53.3624 54.215C53.4113 54.0986 53.4356 53.9732 53.4337 53.8469V53.8469Z" fill="black" fill-opacity="0.2"/>
</g>
<defs>
<clipPath id="clip0_194:645">
<rect width="65" height="60.4302" fill="white" transform="translate(20 9)"/>
</clipPath>
</defs>
</svg>
