<svg width="100" height="91" viewBox="0 0 100 91" fill="none" xmlns="http://www.w3.org/2000/svg">
<ellipse cx="69.9029" cy="47.7872" rx="29.9029" ry="29.7872" fill="#34DECA"/>
<g clip-path="url(#clip0_194:652)">
<path d="M69.7198 90.2968V87.6799H72.4167C72.127 87.336 71.9598 87.1217 71.7784 86.9215C67.5387 82.2578 63.8784 77.2172 61.702 71.2392C60.2888 67.3434 59.6081 63.358 60.6986 59.2266C62.3474 53.0154 68.4714 47.664 76.5128 48.2976C83.155 48.8181 88.947 54.3015 89.8561 61.1534C90.4049 65.3036 89.4204 69.2135 87.781 72.9728C84.9545 79.4572 80.6654 84.8911 75.5706 89.7338C75.3822 89.9152 75.1961 90.1013 75.01 90.2874L69.7198 90.2968ZM75.076 86.5658C79.6949 81.7043 83.6449 76.5695 85.9744 70.3465C86.8611 68.0725 87.3303 65.6572 87.3594 63.2167C87.3715 60.4381 86.4403 57.7377 84.718 55.5571C82.9958 53.3766 80.5846 51.8451 77.8788 51.2132C75.173 50.5813 72.3328 50.8863 69.8229 52.0784C67.313 53.2706 65.282 55.2792 64.0621 57.7757C62.5547 60.8377 62.5193 64.0152 63.2848 67.2279C65.1032 74.9019 69.7598 80.8516 75.0666 86.5658H75.076Z" fill="#1A242E"/>
<path d="M69.7198 90.2968V87.6799H72.4167C72.127 87.336 71.9598 87.1217 71.7784 86.9215C67.5387 82.2578 63.8784 77.2172 61.702 71.2392C60.2888 67.3434 59.6081 63.358 60.6986 59.2266C62.3474 53.0154 68.4714 47.664 76.5128 48.2976C83.155 48.8181 88.947 54.3015 89.8561 61.1534C90.4049 65.3036 89.4204 69.2135 87.781 72.9728C84.9545 79.4572 80.6654 84.8911 75.5706 89.7338C75.3822 89.9152 75.1961 90.1013 75.01 90.2874L69.7198 90.2968ZM75.076 86.5658C79.6949 81.7043 83.6449 76.5695 85.9744 70.3465C86.8611 68.0725 87.3303 65.6572 87.3594 63.2167C87.3715 60.4381 86.4403 57.7377 84.718 55.5571C82.9958 53.3766 80.5846 51.8451 77.8788 51.2132C75.173 50.5813 72.3328 50.8863 69.8229 52.0784C67.313 53.2706 65.282 55.2792 64.0621 57.7757C62.5547 60.8377 62.5193 64.0152 63.2848 67.2279C65.1032 74.9019 69.7598 80.8516 75.0666 86.5658H75.076Z" fill="black" fill-opacity="0.2"/>
<path d="M48.5449 90.2968V87.7058H53.8352V90.2968H48.5449Z" fill="#1A242E"/>
<path d="M48.5449 90.2968V87.7058H53.8352V90.2968H48.5449Z" fill="black" fill-opacity="0.2"/>
<path d="M59.1206 90.2968V87.7058H64.4108V90.2968H59.1206Z" fill="#1A242E"/>
<path d="M59.1206 90.2968V87.7058H64.4108V90.2968H59.1206Z" fill="black" fill-opacity="0.2"/>
<path d="M39.0195 90.2968L37.7759 89.967C37.9329 89.1646 38.0821 88.3724 38.2234 87.5905H43.2522V90.2968H39.0195Z" fill="#1A242E"/>
<path d="M39.0195 90.2968L37.7759 89.967C37.9329 89.1646 38.0821 88.3724 38.2234 87.5905H43.2522V90.2968H39.0195Z" fill="black" fill-opacity="0.2"/>
<path d="M16.5138 35.0814H18.6996V37.7383C17.0155 37.7383 15.3219 37.7383 13.6284 37.7383C13.4583 37.7105 13.3019 37.6278 13.1832 37.5028C7.64097 32.2149 3.02673 26.3146 0.815005 18.855C-0.249638 15.2583 -0.402739 11.6286 1.15183 8.08139C2.43083 5.15082 4.71059 2.77077 7.58343 1.36687C10.4563 -0.0370352 13.7348 -0.373232 16.8328 0.418397C19.9308 1.21003 22.6461 3.07786 24.4933 5.68786C26.3404 8.29787 27.1989 11.4798 26.9152 14.6647C26.5172 19.6111 24.5598 23.9639 21.8346 27.9963C20.2023 30.4248 18.3251 32.6883 16.5138 35.0814ZM13.4753 34.1534C16.8906 30.5967 19.7854 26.8516 21.9218 22.5436C23.2078 19.9526 24.1288 17.2298 24.2772 14.2997C24.4939 10.1918 22.9511 6.86365 19.5664 4.54593C16.2335 2.28003 12.6179 1.98796 8.95057 3.69328C4.16204 5.90736 1.83018 10.8349 2.94665 16.3347C4.39286 23.4433 8.64908 28.8985 13.4753 34.1534Z" fill="#1A242E"/>
<path d="M16.5138 35.0814H18.6996V37.7383C17.0155 37.7383 15.3219 37.7383 13.6284 37.7383C13.4583 37.7105 13.3019 37.6278 13.1832 37.5028C7.64097 32.2149 3.02673 26.3146 0.815005 18.855C-0.249638 15.2583 -0.402739 11.6286 1.15183 8.08139C2.43083 5.15082 4.71059 2.77077 7.58343 1.36687C10.4563 -0.0370352 13.7348 -0.373232 16.8328 0.418397C19.9308 1.21003 22.6461 3.07786 24.4933 5.68786C26.3404 8.29787 27.1989 11.4798 26.9152 14.6647C26.5172 19.6111 24.5598 23.9639 21.8346 27.9963C20.2023 30.4248 18.3251 32.6883 16.5138 35.0814ZM13.4753 34.1534C16.8906 30.5967 19.7854 26.8516 21.9218 22.5436C23.2078 19.9526 24.1288 17.2298 24.2772 14.2997C24.4939 10.1918 22.9511 6.86365 19.5664 4.54593C16.2335 2.28003 12.6179 1.98796 8.95057 3.69328C4.16204 5.90736 1.83018 10.8349 2.94665 16.3347C4.39286 23.4433 8.64908 28.8985 13.4753 34.1534Z" fill="black" fill-opacity="0.2"/>
<path d="M45.2754 37.5782V35.1262C47.2137 35.0944 49.1357 35.4859 50.9072 36.2733L49.9179 38.5274L45.2754 37.5782Z" fill="#1A242E"/>
<path d="M45.2754 37.5782V35.1262C47.2137 35.0944 49.1357 35.4859 50.9072 36.2733L49.9179 38.5274L45.2754 37.5782Z" fill="black" fill-opacity="0.2"/>
<path d="M55.7783 39.5024L58.805 44.5383L56.2682 45.4239L53.8257 41.3255L55.7783 39.5024Z" fill="#1A242E"/>
<path d="M55.7783 39.5024L58.805 44.5383L56.2682 45.4239L53.8257 41.3255L55.7783 39.5024Z" fill="black" fill-opacity="0.2"/>
<path d="M48.0928 60.4609L52.3796 58.3811L53.8847 60.3102C52.3646 61.5274 50.5956 62.3958 48.7028 62.854C48.4838 62.0155 48.2859 61.2147 48.0928 60.4609Z" fill="#1A242E"/>
<path d="M48.0928 60.4609L52.3796 58.3811L53.8847 60.3102C52.3646 61.5274 50.5956 62.3958 48.7028 62.854C48.4838 62.0155 48.2859 61.2147 48.0928 60.4609Z" fill="black" fill-opacity="0.2"/>
<path d="M26.0416 72.6736L28.5218 73.1447V77.9261L26.1264 78.4349C25.6411 76.5058 25.7118 74.6451 26.0416 72.6736Z" fill="#1A242E"/>
<path d="M26.0416 72.6736L28.5218 73.1447V77.9261L26.1264 78.4349C25.6411 76.5058 25.7118 74.6451 26.0416 72.6736Z" fill="black" fill-opacity="0.2"/>
<path d="M30.1188 82.5498L33.4705 85.951L33.8356 85.6778L32.307 87.9743L28.1709 83.883L30.1188 82.5498Z" fill="#1A242E"/>
<path d="M30.1188 82.5498L33.4705 85.951L33.8356 85.6778L32.307 87.9743L28.1709 83.883L30.1188 82.5498Z" fill="black" fill-opacity="0.2"/>
<path d="M24.1099 35.1473H29.3106V37.6865H24.1099V35.1473Z" fill="#1A242E"/>
<path d="M24.1099 35.1473H29.3106V37.6865H24.1099V35.1473Z" fill="black" fill-opacity="0.2"/>
<path d="M34.6763 37.6724V35.1757H39.8817V37.6724H34.6763Z" fill="#1A242E"/>
<path d="M34.6763 37.6724V35.1757H39.8817V37.6724H34.6763Z" fill="black" fill-opacity="0.2"/>
<path d="M57.6509 55.9103L55.4839 54.7326C55.9385 53.2204 56.3742 51.7742 56.8524 50.1937L59.2902 50.3562C59.1592 52.3057 58.5994 54.2021 57.6509 55.9103V55.9103Z" fill="#1A242E"/>
<path d="M57.6509 55.9103L55.4839 54.7326C55.9385 53.2204 56.3742 51.7742 56.8524 50.1937L59.2902 50.3562C59.1592 52.3057 58.5994 54.2021 57.6509 55.9103V55.9103Z" fill="black" fill-opacity="0.2"/>
<path d="M28.0503 67.2138C29.4635 65.7818 30.7614 64.4651 32.1487 63.0613L33.5337 65.0869L30.1113 68.3539L30.3798 68.7449L28.0503 67.2138Z" fill="#1A242E"/>
<path d="M28.0503 67.2138C29.4635 65.7818 30.7614 64.4651 32.1487 63.0613L33.5337 65.0869L30.1113 68.3539L30.3798 68.7449L28.0503 67.2138Z" fill="black" fill-opacity="0.2"/>
<path d="M37.5312 60.8165H43.0452V63.3203H38.0777C37.9411 62.6914 37.7644 61.8835 37.5312 60.8165Z" fill="#1A242E"/>
<path d="M37.5312 60.8165H43.0452V63.3203H38.0777C37.9411 62.6914 37.7644 61.8835 37.5312 60.8165Z" fill="black" fill-opacity="0.2"/>
<path d="M85.4307 63.1414C85.4321 65.1901 84.8254 67.1932 83.6875 68.8969C82.5495 70.6006 80.9315 71.9282 79.0384 72.7116C77.1453 73.4949 75.0623 73.6988 73.0533 73.2974C71.0442 72.896 69.1995 71.9073 67.7528 70.4566C66.3061 69.006 65.3225 67.1585 64.9265 65.1484C64.5306 63.1382 64.7402 61.0558 65.5288 59.1649C66.3173 57.2739 67.6494 55.6596 69.3561 54.5263C71.0629 53.393 73.0677 52.7918 75.1164 52.7988C77.8528 52.8118 80.473 53.9066 82.4053 55.8442C84.3376 57.7818 85.4252 60.4049 85.4307 63.1414V63.1414ZM67.3789 63.1673C67.3822 64.6889 67.8361 66.1755 68.6834 67.4394C69.5306 68.7033 70.7333 69.688 72.1396 70.2691C73.5459 70.8502 75.0928 71.0018 76.5852 70.7046C78.0775 70.4075 79.4484 69.675 80.5248 68.5995C81.6013 67.524 82.3351 66.1538 82.6336 64.6617C82.9321 63.1697 82.782 61.6226 82.2021 60.2158C81.6223 58.8089 80.6387 57.6054 79.3756 56.7569C78.1124 55.9085 76.6263 55.4533 75.1046 55.4486C74.0901 55.4464 73.0851 55.6445 72.1472 56.0316C71.2094 56.4186 70.3571 56.987 69.6394 57.7041C68.9217 58.4212 68.3525 59.2729 67.9646 60.2104C67.5767 61.1478 67.3777 62.1527 67.3789 63.1673V63.1673Z" fill="#1A242E"/>
<path d="M85.4307 63.1414C85.4321 65.1901 84.8254 67.1932 83.6875 68.8969C82.5495 70.6006 80.9315 71.9282 79.0384 72.7116C77.1453 73.4949 75.0623 73.6988 73.0533 73.2974C71.0442 72.896 69.1995 71.9073 67.7528 70.4566C66.3061 69.006 65.3225 67.1585 64.9265 65.1484C64.5306 63.1382 64.7402 61.0558 65.5288 59.1649C66.3173 57.2739 67.6494 55.6596 69.3561 54.5263C71.0629 53.393 73.0677 52.7918 75.1164 52.7988C77.8528 52.8118 80.473 53.9066 82.4053 55.8442C84.3376 57.7818 85.4252 60.4049 85.4307 63.1414V63.1414ZM67.3789 63.1673C67.3822 64.6889 67.8361 66.1755 68.6834 67.4394C69.5306 68.7033 70.7333 69.688 72.1396 70.2691C73.5459 70.8502 75.0928 71.0018 76.5852 70.7046C78.0775 70.4075 79.4484 69.675 80.5248 68.5995C81.6013 67.524 82.3351 66.1538 82.6336 64.6617C82.9321 63.1697 82.782 61.6226 82.2021 60.2158C81.6223 58.8089 80.6387 57.6054 79.3756 56.7569C78.1124 55.9085 76.6263 55.4533 75.1046 55.4486C74.0901 55.4464 73.0851 55.6445 72.1472 56.0316C71.2094 56.4186 70.3571 56.987 69.6394 57.7041C68.9217 58.4212 68.3525 59.2729 67.9646 60.2104C67.5767 61.1478 67.3777 62.1527 67.3789 63.1673V63.1673Z" fill="black" fill-opacity="0.2"/>
<path d="M22.878 13.7721C22.5742 19.0788 18.1931 23.1749 13.1479 22.8475C7.721 22.513 3.78041 18.1367 4.11723 12.8135C4.43757 7.7564 8.90106 3.82052 14.0099 4.09846C19.0788 4.35049 23.1607 8.8234 22.878 13.7721ZM6.74351 13.4706C6.74354 14.8044 7.13854 16.1083 7.87871 17.2179C8.61887 18.3275 9.67105 19.193 10.9025 19.7054C12.134 20.2177 13.4896 20.3539 14.7984 20.0967C16.1071 19.8396 17.3105 19.2006 18.2565 18.2604C19.2026 17.3203 19.8491 16.121 20.1144 14.8138C20.3798 13.5067 20.2521 12.1503 19.7475 10.9156C19.2428 9.68096 18.3839 8.62339 17.279 7.8763C16.174 7.1292 14.8726 6.72604 13.5389 6.71767C11.7434 6.71577 10.0203 7.42529 8.7467 8.69091C7.47314 9.95652 6.75285 11.6752 6.74351 13.4706V13.4706Z" fill="#1A242E"/>
<path d="M22.878 13.7721C22.5742 19.0788 18.1931 23.1749 13.1479 22.8475C7.721 22.513 3.78041 18.1367 4.11723 12.8135C4.43757 7.7564 8.90106 3.82052 14.0099 4.09846C19.0788 4.35049 23.1607 8.8234 22.878 13.7721ZM6.74351 13.4706C6.74354 14.8044 7.13854 16.1083 7.87871 17.2179C8.61887 18.3275 9.67105 19.193 10.9025 19.7054C12.134 20.2177 13.4896 20.3539 14.7984 20.0967C16.1071 19.8396 17.3105 19.2006 18.2565 18.2604C19.2026 17.3203 19.8491 16.121 20.1144 14.8138C20.3798 13.5067 20.2521 12.1503 19.7475 10.9156C19.2428 9.68096 18.3839 8.62339 17.279 7.8763C16.174 7.1292 14.8726 6.72604 13.5389 6.71767C11.7434 6.71577 10.0203 7.42529 8.7467 8.69091C7.47314 9.95652 6.75285 11.6752 6.74351 13.4706V13.4706Z" fill="black" fill-opacity="0.2"/>
</g>
<defs>
<clipPath id="clip0_194:652">
<rect width="90" height="90.2968" fill="white"/>
</clipPath>
</defs>
</svg>
