<svg width="84" height="77" viewBox="0 0 84 77" fill="none" xmlns="http://www.w3.org/2000/svg">
<ellipse cx="53.9029" cy="29.7872" rx="29.9029" ry="29.7872" fill="#34DECA"/>
<g clip-path="url(#clip0_194:648)">
<path d="M14.7245 76.1279C14.2868 76.0053 13.8566 75.8572 13.4361 75.6845C11.383 74.704 10.3908 73.0407 10.3874 70.7835C10.3791 66.9634 10.374 63.1433 10.3975 59.325C10.4074 59.0908 10.3654 58.8573 10.2746 58.6412C10.1837 58.4252 10.0463 58.2318 9.87207 58.075C6.96282 55.1948 4.06639 52.3039 1.18279 49.4025C-0.391749 47.8279 -0.393423 46.163 1.17275 44.5918C2.00939 43.7552 2.84602 42.9035 3.69771 42.0686C5.09489 40.6915 6.84011 40.6898 8.24231 42.0686C8.91161 42.7278 9.54746 43.4155 10.1984 44.0899L10.3874 44.038V43.3453C10.3874 36.081 10.3874 28.8174 10.3874 21.5543C10.3874 19.3289 11.2943 17.6221 13.3307 16.6583C13.9866 16.3471 14.7664 16.2802 15.506 16.148C15.8406 16.0877 16.2037 16.1379 16.6254 16.1379C16.6254 15.6912 16.6103 15.3013 16.6254 14.9114C16.6798 14.1467 17.0239 13.4315 17.5874 12.9117C18.1509 12.3918 18.8915 12.1064 19.6581 12.1137C20.4248 12.1209 21.1598 12.4203 21.7134 12.9507C22.267 13.4811 22.5974 14.2027 22.6374 14.9683C22.6475 15.3214 22.6374 15.6761 22.6374 16.0827H27.003C27.003 15.7029 26.9946 15.3314 27.003 14.9616C27.0498 14.1943 27.3883 13.4739 27.9491 12.9481C28.5099 12.4223 29.2506 12.1308 30.0193 12.1333C30.7881 12.1359 31.5267 12.4323 32.084 12.9619C32.6413 13.4915 32.975 14.2141 33.0167 14.9817C33.0251 15.3331 33.0167 15.6862 33.0167 16.0877H37.3806C37.3806 15.7414 37.3806 15.3766 37.3806 15.0118C37.4191 13.3235 38.7025 12.0184 40.3439 11.9999C41.1468 11.9928 41.9196 12.3046 42.4928 12.8668C43.066 13.4289 43.3926 14.1956 43.401 14.9984C43.411 15.3498 43.401 15.7029 43.401 16.0978H47.7515C47.7515 15.7297 47.7398 15.3599 47.7515 14.9917C47.8184 13.3084 49.0633 12.0384 50.6814 11.9999C52.3279 11.9631 53.6581 13.2014 53.7736 14.8964C53.8003 15.2862 53.7736 15.6795 53.7736 16.0861C54.4763 16.1379 55.1222 16.1396 55.753 16.24C58.0956 16.6165 59.9061 18.5424 59.9496 20.9252C60.0249 24.9728 59.9831 29.0221 59.9898 33.0714C59.9898 33.6152 60.0015 34.1573 59.9898 34.6995C59.9697 35.3437 59.6049 35.7403 59.0644 35.7419C58.524 35.7436 58.1324 35.347 58.1257 34.7079C58.1073 32.8087 58.1174 30.9095 58.1157 29.0104V28.4599H12.2682V29.0556C12.2682 34.5461 12.2682 40.0361 12.2682 45.5255C12.2682 45.7765 12.3067 46.1095 12.4623 46.2685C14.2443 48.0873 16.0514 49.8777 17.7682 51.5928C18.1994 51.516 18.6346 51.464 19.0717 51.4372C29.8208 51.4282 40.5704 51.4282 51.3206 51.4372C51.5081 51.4304 51.6959 51.4355 51.8828 51.4522C52.1057 51.4609 52.3165 51.5565 52.47 51.7184C52.6235 51.8803 52.7076 52.0959 52.7044 52.319C52.7361 52.8293 52.4651 53.1556 51.9832 53.2744C51.7363 53.3173 51.4853 53.3308 51.2352 53.3146H19.5285C19.7544 53.5605 19.8916 53.7212 20.0405 53.8701C22.3128 56.1441 24.5784 58.4247 26.8641 60.6836C27.0477 60.8505 27.1919 61.0562 27.2863 61.2857C27.3806 61.5152 27.4227 61.7628 27.4096 62.0105C27.3828 63.5165 27.3761 65.0224 27.4179 66.52C27.4599 66.8736 27.5963 67.2095 27.8128 67.4922C28.0203 67.7967 28.3433 68.0209 28.5909 68.3037C28.9824 68.7521 28.9657 69.2759 28.5758 69.6423C28.2161 69.977 27.6991 69.977 27.274 69.6222C27.2571 69.6105 27.2418 69.5964 27.2289 69.5804C26.506 68.4694 25.4351 68.3439 24.2304 68.4309C23.1712 68.5078 22.102 68.4309 21.0378 68.4543C20.7793 68.4689 20.5209 68.4257 20.2812 68.3279C20.0416 68.23 19.8267 68.08 19.6523 67.8887C17.4018 65.6148 15.1412 63.3692 12.8839 61.102C12.7398 60.922 12.6132 60.7287 12.5058 60.5247L12.3067 60.6569C12.2933 60.8342 12.2682 61.0099 12.2682 61.1856C12.2682 64.3604 12.2682 67.5334 12.2682 70.7048C12.2682 72.9353 13.5867 74.2455 15.8105 74.2455H46.5584C46.7258 74.2455 46.8931 74.2455 47.0604 74.2455C47.5875 74.222 48.0744 74.2773 48.3053 74.8512C48.5362 75.4251 48.1782 75.7849 47.8034 76.1262L14.7245 76.1279ZM16.5835 18.0856C13.9063 17.6439 12.1276 19.3004 12.2565 21.7668C12.3184 22.9732 12.2665 24.1863 12.2665 25.3961V26.5038H58.0755C58.0906 26.3147 58.1123 26.1541 58.1123 26.0018C58.1123 24.4775 58.1274 22.9548 58.1123 21.4305C58.0872 19.0628 56.1714 17.582 53.7819 18.1325C53.7819 18.4939 53.7987 18.8687 53.7819 19.2402C53.6882 20.9452 52.3948 22.1885 50.7383 22.1784C49.0817 22.1684 47.8184 20.9017 47.7632 19.1866C47.7515 18.8185 47.7632 18.4487 47.7632 18.0806H43.4127C43.4127 18.519 43.4311 18.9172 43.4127 19.3088C43.3784 20.0891 43.0413 20.8253 42.473 21.3611C41.9047 21.8969 41.15 22.1901 40.369 22.1784C39.5825 22.182 38.8266 21.8734 38.2673 21.3204C37.708 20.7673 37.3909 20.015 37.3856 19.2285C37.3739 18.8419 37.3856 18.4537 37.3856 18.0572H33.0184C33.0184 18.4705 33.0184 18.8436 33.0184 19.2151C32.9762 19.9827 32.6421 20.7051 32.0845 21.2343C31.527 21.7635 30.7881 22.0596 30.0194 22.0617C29.2507 22.0638 28.5102 21.7719 27.9497 21.2458C27.3892 20.7197 27.0511 19.9991 27.0046 19.2318C26.9929 18.8419 27.0046 18.4521 27.0046 18.0605H22.8817C22.6006 19.0645 22.4801 20.0684 22.0451 20.8917C21.5531 21.8354 20.5743 22.1968 19.49 22.16C17.6444 22.0981 16.786 20.9084 16.5835 18.0856ZM5.93822 51.3368L20.6462 66.0465L22.0601 64.5807L7.38894 49.8978L5.93822 51.3368ZM8.85472 48.4387L23.5443 63.1283L25.0101 61.696L10.3272 47.0164L8.85472 48.4387ZM8.9501 45.4837C8.2239 44.7458 7.48432 43.9593 6.69286 43.2181C6.23271 42.783 5.6387 42.8081 5.17186 43.2599C4.1679 44.2326 3.18123 45.221 2.21185 46.2249C2.01107 46.4149 1.89322 46.6763 1.88382 46.9526C1.87443 47.2288 1.97425 47.4976 2.16166 47.7008C2.91965 48.4972 3.72616 49.2469 4.45236 49.9597C5.95662 48.4654 7.44583 46.9829 8.9501 45.4837ZM51.9045 17.1118C51.9045 16.4425 51.9213 15.7732 51.9045 15.1039C51.8811 14.3593 51.4109 13.8723 50.76 13.874C50.1091 13.8757 49.6523 14.3609 49.6439 15.1156C49.6283 16.4296 49.6283 17.7432 49.6439 19.0561C49.654 19.8258 50.0924 20.2776 50.7717 20.2743C51.4511 20.2709 51.8828 19.8007 51.9062 19.0444C51.9196 18.4052 51.9045 17.7593 51.9045 17.1118ZM20.7583 17.0934C20.7583 16.4241 20.7701 15.7548 20.7583 15.0854C20.7416 14.376 20.3015 13.8974 19.6724 13.8774C19.0432 13.8573 18.5128 14.3475 18.5011 15.0737C18.481 16.4123 18.481 17.7471 18.5011 19.0779C18.5111 19.8174 18.9914 20.2876 19.6607 20.2759C20.33 20.2642 20.7399 19.8108 20.7567 19.0896C20.7717 18.4286 20.7583 17.761 20.7583 17.0934ZM28.8787 17.0398C28.8787 17.7275 28.867 18.4153 28.8787 19.103C28.8904 19.7907 29.3439 20.2743 29.9881 20.2743C30.1401 20.2807 30.2918 20.2554 30.4335 20.2C30.5752 20.1446 30.7038 20.0603 30.8111 19.9525C30.9185 19.8447 31.0022 19.7157 31.057 19.5738C31.1117 19.4318 31.1364 19.28 31.1292 19.1281C31.1482 17.7738 31.1482 16.4185 31.1292 15.062C31.1209 14.3643 30.649 13.8907 30.0182 13.8757C29.3874 13.8606 28.8904 14.3609 28.8754 15.0938C28.8687 15.7464 28.8787 16.3923 28.8787 17.0398ZM39.253 17.1335V19.0109C39.253 19.0528 39.253 19.0946 39.253 19.1364C39.2898 19.8141 39.7081 20.2592 40.3305 20.2809C40.4822 20.2912 40.6343 20.2698 40.7772 20.2181C40.9202 20.1665 41.0508 20.0858 41.1609 19.981C41.2711 19.8762 41.3582 19.7498 41.4169 19.6096C41.4756 19.4694 41.5045 19.3185 41.5018 19.1665C41.5286 17.7911 41.5269 16.414 41.5018 15.0369C41.5062 14.8848 41.4796 14.7335 41.4236 14.592C41.3676 14.4505 41.2835 14.3218 41.1763 14.2139C41.0691 14.1059 40.9411 14.0208 40.8 13.9638C40.6589 13.9068 40.5078 13.8791 40.3556 13.8824C39.7248 13.8824 39.2663 14.3676 39.2496 15.0704C39.2329 15.7732 39.2613 16.4458 39.2597 17.1335H39.253ZM25.4903 64.2059L23.1762 66.5267H25.4903V64.2059Z" fill="#1A242E"/>
<path d="M14.7245 76.1279C14.2868 76.0053 13.8566 75.8572 13.4361 75.6845C11.383 74.704 10.3908 73.0407 10.3874 70.7835C10.3791 66.9634 10.374 63.1433 10.3975 59.325C10.4074 59.0908 10.3654 58.8573 10.2746 58.6412C10.1837 58.4252 10.0463 58.2318 9.87207 58.075C6.96282 55.1948 4.06639 52.3039 1.18279 49.4025C-0.391749 47.8279 -0.393423 46.163 1.17275 44.5918C2.00939 43.7552 2.84602 42.9035 3.69771 42.0686C5.09489 40.6915 6.84011 40.6898 8.24231 42.0686C8.91161 42.7278 9.54746 43.4155 10.1984 44.0899L10.3874 44.038V43.3453C10.3874 36.081 10.3874 28.8174 10.3874 21.5543C10.3874 19.3289 11.2943 17.6221 13.3307 16.6583C13.9866 16.3471 14.7664 16.2802 15.506 16.148C15.8406 16.0877 16.2037 16.1379 16.6254 16.1379C16.6254 15.6912 16.6103 15.3013 16.6254 14.9114C16.6798 14.1467 17.0239 13.4315 17.5874 12.9117C18.1509 12.3918 18.8915 12.1064 19.6581 12.1137C20.4248 12.1209 21.1598 12.4203 21.7134 12.9507C22.267 13.4811 22.5974 14.2027 22.6374 14.9683C22.6475 15.3214 22.6374 15.6761 22.6374 16.0827H27.003C27.003 15.7029 26.9946 15.3314 27.003 14.9616C27.0498 14.1943 27.3883 13.4739 27.9491 12.9481C28.5099 12.4223 29.2506 12.1308 30.0193 12.1333C30.7881 12.1359 31.5267 12.4323 32.084 12.9619C32.6413 13.4915 32.975 14.2141 33.0167 14.9817C33.0251 15.3331 33.0167 15.6862 33.0167 16.0877H37.3806C37.3806 15.7414 37.3806 15.3766 37.3806 15.0118C37.4191 13.3235 38.7025 12.0184 40.3439 11.9999C41.1468 11.9928 41.9196 12.3046 42.4928 12.8668C43.066 13.4289 43.3926 14.1956 43.401 14.9984C43.411 15.3498 43.401 15.7029 43.401 16.0978H47.7515C47.7515 15.7297 47.7398 15.3599 47.7515 14.9917C47.8184 13.3084 49.0633 12.0384 50.6814 11.9999C52.3279 11.9631 53.6581 13.2014 53.7736 14.8964C53.8003 15.2862 53.7736 15.6795 53.7736 16.0861C54.4763 16.1379 55.1222 16.1396 55.753 16.24C58.0956 16.6165 59.9061 18.5424 59.9496 20.9252C60.0249 24.9728 59.9831 29.0221 59.9898 33.0714C59.9898 33.6152 60.0015 34.1573 59.9898 34.6995C59.9697 35.3437 59.6049 35.7403 59.0644 35.7419C58.524 35.7436 58.1324 35.347 58.1257 34.7079C58.1073 32.8087 58.1174 30.9095 58.1157 29.0104V28.4599H12.2682V29.0556C12.2682 34.5461 12.2682 40.0361 12.2682 45.5255C12.2682 45.7765 12.3067 46.1095 12.4623 46.2685C14.2443 48.0873 16.0514 49.8777 17.7682 51.5928C18.1994 51.516 18.6346 51.464 19.0717 51.4372C29.8208 51.4282 40.5704 51.4282 51.3206 51.4372C51.5081 51.4304 51.6959 51.4355 51.8828 51.4522C52.1057 51.4609 52.3165 51.5565 52.47 51.7184C52.6235 51.8803 52.7076 52.0959 52.7044 52.319C52.7361 52.8293 52.4651 53.1556 51.9832 53.2744C51.7363 53.3173 51.4853 53.3308 51.2352 53.3146H19.5285C19.7544 53.5605 19.8916 53.7212 20.0405 53.8701C22.3128 56.1441 24.5784 58.4247 26.8641 60.6836C27.0477 60.8505 27.1919 61.0562 27.2863 61.2857C27.3806 61.5152 27.4227 61.7628 27.4096 62.0105C27.3828 63.5165 27.3761 65.0224 27.4179 66.52C27.4599 66.8736 27.5963 67.2095 27.8128 67.4922C28.0203 67.7967 28.3433 68.0209 28.5909 68.3037C28.9824 68.7521 28.9657 69.2759 28.5758 69.6423C28.2161 69.977 27.6991 69.977 27.274 69.6222C27.2571 69.6105 27.2418 69.5964 27.2289 69.5804C26.506 68.4694 25.4351 68.3439 24.2304 68.4309C23.1712 68.5078 22.102 68.4309 21.0378 68.4543C20.7793 68.4689 20.5209 68.4257 20.2812 68.3279C20.0416 68.23 19.8267 68.08 19.6523 67.8887C17.4018 65.6148 15.1412 63.3692 12.8839 61.102C12.7398 60.922 12.6132 60.7287 12.5058 60.5247L12.3067 60.6569C12.2933 60.8342 12.2682 61.0099 12.2682 61.1856C12.2682 64.3604 12.2682 67.5334 12.2682 70.7048C12.2682 72.9353 13.5867 74.2455 15.8105 74.2455H46.5584C46.7258 74.2455 46.8931 74.2455 47.0604 74.2455C47.5875 74.222 48.0744 74.2773 48.3053 74.8512C48.5362 75.4251 48.1782 75.7849 47.8034 76.1262L14.7245 76.1279ZM16.5835 18.0856C13.9063 17.6439 12.1276 19.3004 12.2565 21.7668C12.3184 22.9732 12.2665 24.1863 12.2665 25.3961V26.5038H58.0755C58.0906 26.3147 58.1123 26.1541 58.1123 26.0018C58.1123 24.4775 58.1274 22.9548 58.1123 21.4305C58.0872 19.0628 56.1714 17.582 53.7819 18.1325C53.7819 18.4939 53.7987 18.8687 53.7819 19.2402C53.6882 20.9452 52.3948 22.1885 50.7383 22.1784C49.0817 22.1684 47.8184 20.9017 47.7632 19.1866C47.7515 18.8185 47.7632 18.4487 47.7632 18.0806H43.4127C43.4127 18.519 43.4311 18.9172 43.4127 19.3088C43.3784 20.0891 43.0413 20.8253 42.473 21.3611C41.9047 21.8969 41.15 22.1901 40.369 22.1784C39.5825 22.182 38.8266 21.8734 38.2673 21.3204C37.708 20.7673 37.3909 20.015 37.3856 19.2285C37.3739 18.8419 37.3856 18.4537 37.3856 18.0572H33.0184C33.0184 18.4705 33.0184 18.8436 33.0184 19.2151C32.9762 19.9827 32.6421 20.7051 32.0845 21.2343C31.527 21.7635 30.7881 22.0596 30.0194 22.0617C29.2507 22.0638 28.5102 21.7719 27.9497 21.2458C27.3892 20.7197 27.0511 19.9991 27.0046 19.2318C26.9929 18.8419 27.0046 18.4521 27.0046 18.0605H22.8817C22.6006 19.0645 22.4801 20.0684 22.0451 20.8917C21.5531 21.8354 20.5743 22.1968 19.49 22.16C17.6444 22.0981 16.786 20.9084 16.5835 18.0856ZM5.93822 51.3368L20.6462 66.0465L22.0601 64.5807L7.38894 49.8978L5.93822 51.3368ZM8.85472 48.4387L23.5443 63.1283L25.0101 61.696L10.3272 47.0164L8.85472 48.4387ZM8.9501 45.4837C8.2239 44.7458 7.48432 43.9593 6.69286 43.2181C6.23271 42.783 5.6387 42.8081 5.17186 43.2599C4.1679 44.2326 3.18123 45.221 2.21185 46.2249C2.01107 46.4149 1.89322 46.6763 1.88382 46.9526C1.87443 47.2288 1.97425 47.4976 2.16166 47.7008C2.91965 48.4972 3.72616 49.2469 4.45236 49.9597C5.95662 48.4654 7.44583 46.9829 8.9501 45.4837ZM51.9045 17.1118C51.9045 16.4425 51.9213 15.7732 51.9045 15.1039C51.8811 14.3593 51.4109 13.8723 50.76 13.874C50.1091 13.8757 49.6523 14.3609 49.6439 15.1156C49.6283 16.4296 49.6283 17.7432 49.6439 19.0561C49.654 19.8258 50.0924 20.2776 50.7717 20.2743C51.4511 20.2709 51.8828 19.8007 51.9062 19.0444C51.9196 18.4052 51.9045 17.7593 51.9045 17.1118ZM20.7583 17.0934C20.7583 16.4241 20.7701 15.7548 20.7583 15.0854C20.7416 14.376 20.3015 13.8974 19.6724 13.8774C19.0432 13.8573 18.5128 14.3475 18.5011 15.0737C18.481 16.4123 18.481 17.7471 18.5011 19.0779C18.5111 19.8174 18.9914 20.2876 19.6607 20.2759C20.33 20.2642 20.7399 19.8108 20.7567 19.0896C20.7717 18.4286 20.7583 17.761 20.7583 17.0934ZM28.8787 17.0398C28.8787 17.7275 28.867 18.4153 28.8787 19.103C28.8904 19.7907 29.3439 20.2743 29.9881 20.2743C30.1401 20.2807 30.2918 20.2554 30.4335 20.2C30.5752 20.1446 30.7038 20.0603 30.8111 19.9525C30.9185 19.8447 31.0022 19.7157 31.057 19.5738C31.1117 19.4318 31.1364 19.28 31.1292 19.1281C31.1482 17.7738 31.1482 16.4185 31.1292 15.062C31.1209 14.3643 30.649 13.8907 30.0182 13.8757C29.3874 13.8606 28.8904 14.3609 28.8754 15.0938C28.8687 15.7464 28.8787 16.3923 28.8787 17.0398ZM39.253 17.1335V19.0109C39.253 19.0528 39.253 19.0946 39.253 19.1364C39.2898 19.8141 39.7081 20.2592 40.3305 20.2809C40.4822 20.2912 40.6343 20.2698 40.7772 20.2181C40.9202 20.1665 41.0508 20.0858 41.1609 19.981C41.2711 19.8762 41.3582 19.7498 41.4169 19.6096C41.4756 19.4694 41.5045 19.3185 41.5018 19.1665C41.5286 17.7911 41.5269 16.414 41.5018 15.0369C41.5062 14.8848 41.4796 14.7335 41.4236 14.592C41.3676 14.4505 41.2835 14.3218 41.1763 14.2139C41.0691 14.1059 40.9411 14.0208 40.8 13.9638C40.6589 13.9068 40.5078 13.8791 40.3556 13.8824C39.7248 13.8824 39.2663 14.3676 39.2496 15.0704C39.2329 15.7732 39.2613 16.4458 39.2597 17.1335H39.253ZM25.4903 64.2059L23.1762 66.5267H25.4903V64.2059Z" fill="black" fill-opacity="0.2"/>
<path d="M50.9258 76.1279C50.4489 75.8535 50.136 75.4753 50.3201 74.8997C50.5041 74.3241 50.9894 74.2304 51.5315 74.2438C52.637 74.2583 53.743 74.2583 54.8496 74.2438C56.7002 74.2237 58.0422 72.9203 58.1058 71.0646C58.1376 70.1259 58.1141 69.1855 58.1141 68.2468C58.1141 58.5642 58.1141 48.8805 58.1141 39.1956C58.1016 38.9043 58.1212 38.6125 58.1727 38.3255C58.2798 37.857 58.6178 37.6311 59.093 37.6562C59.3049 37.6482 59.5119 37.721 59.6722 37.8599C59.8325 37.9987 59.9341 38.1932 59.9564 38.4041C59.9877 38.6527 59.9989 38.9034 59.9899 39.1538C59.9899 49.6106 59.9899 60.0662 59.9899 70.5208C59.9899 73.5427 58.6814 75.2561 55.7783 76.0576C55.7415 76.0677 55.7147 76.1062 55.6829 76.1329L50.9258 76.1279Z" fill="#1A242E"/>
<path d="M50.9258 76.1279C50.4489 75.8535 50.136 75.4753 50.3201 74.8997C50.5041 74.3241 50.9894 74.2304 51.5315 74.2438C52.637 74.2583 53.743 74.2583 54.8496 74.2438C56.7002 74.2237 58.0422 72.9203 58.1058 71.0646C58.1376 70.1259 58.1141 69.1855 58.1141 68.2468C58.1141 58.5642 58.1141 48.8805 58.1141 39.1956C58.1016 38.9043 58.1212 38.6125 58.1727 38.3255C58.2798 37.857 58.6178 37.6311 59.093 37.6562C59.3049 37.6482 59.5119 37.721 59.6722 37.8599C59.8325 37.9987 59.9341 38.1932 59.9564 38.4041C59.9877 38.6527 59.9989 38.9034 59.9899 39.1538C59.9899 49.6106 59.9899 60.0662 59.9899 70.5208C59.9899 73.5427 58.6814 75.2561 55.7783 76.0576C55.7415 76.0677 55.7147 76.1062 55.6829 76.1329L50.9258 76.1279Z" fill="black" fill-opacity="0.2"/>
<path d="M35.2087 45.1942H51.3005C51.5086 45.1793 51.7177 45.1855 51.9246 45.2126C52.4366 45.3197 52.7378 45.6393 52.711 46.1797C52.6843 46.7202 52.3647 47.008 51.8359 47.0632C51.6689 47.0753 51.5013 47.0781 51.334 47.0716H19.0282C18.8608 47.0792 18.6931 47.0758 18.5262 47.0615C17.9941 46.998 17.6896 46.6767 17.6712 46.153C17.6528 45.6292 17.9724 45.2996 18.4927 45.2092C18.7 45.1866 18.9088 45.1816 19.1169 45.1942H35.2087Z" fill="#1A242E"/>
<path d="M35.2087 45.1942H51.3005C51.5086 45.1793 51.7177 45.1855 51.9246 45.2126C52.4366 45.3197 52.7378 45.6393 52.711 46.1797C52.6843 46.7202 52.3647 47.008 51.8359 47.0632C51.6689 47.0753 51.5013 47.0781 51.334 47.0716H19.0282C18.8608 47.0792 18.6931 47.0758 18.5262 47.0615C17.9941 46.998 17.6896 46.6767 17.6712 46.153C17.6528 45.6292 17.9724 45.2996 18.4927 45.2092C18.7 45.1866 18.9088 45.1816 19.1169 45.1942H35.2087Z" fill="black" fill-opacity="0.2"/>
<path d="M35.1885 32.7586H51.2151C51.4445 32.7507 51.6741 32.7563 51.9028 32.7753C52.1146 32.7832 52.3155 32.8713 52.4648 33.0216C52.6142 33.1719 52.701 33.3733 52.7076 33.5851C52.748 33.8044 52.7003 34.0307 52.5751 34.2152C52.4498 34.3996 52.257 34.5273 52.0383 34.5707C51.8157 34.6217 51.5872 34.6425 51.359 34.6326C40.5898 34.6326 29.8218 34.6326 19.0549 34.6326C18.8054 34.6424 18.5558 34.6165 18.3136 34.5556C18.1157 34.4915 17.9455 34.3618 17.8312 34.1879C17.7169 34.0141 17.6652 33.8064 17.6847 33.5993C17.7042 33.3921 17.7937 33.1978 17.9384 33.0483C18.0832 32.8988 18.2745 32.8031 18.481 32.777C18.7097 32.7574 18.9393 32.7513 19.1687 32.7586H35.1885Z" fill="#1A242E"/>
<path d="M35.1885 32.7586H51.2151C51.4445 32.7507 51.6741 32.7563 51.9028 32.7753C52.1146 32.7832 52.3155 32.8713 52.4648 33.0216C52.6142 33.1719 52.701 33.3733 52.7076 33.5851C52.748 33.8044 52.7003 34.0307 52.5751 34.2152C52.4498 34.3996 52.257 34.5273 52.0383 34.5707C51.8157 34.6217 51.5872 34.6425 51.359 34.6326C40.5898 34.6326 29.8218 34.6326 19.0549 34.6326C18.8054 34.6424 18.5558 34.6165 18.3136 34.5556C18.1157 34.4915 17.9455 34.3618 17.8312 34.1879C17.7169 34.0141 17.6652 33.8064 17.6847 33.5993C17.7042 33.3921 17.7937 33.1978 17.9384 33.0483C18.0832 32.8988 18.2745 32.8031 18.481 32.777C18.7097 32.7574 18.9393 32.7513 19.1687 32.7586H35.1885Z" fill="black" fill-opacity="0.2"/>
<path d="M35.2102 40.8487H19.1217C18.106 40.8487 17.6526 40.5509 17.6643 39.8966C17.676 39.2424 18.1311 38.9713 19.1552 38.9713H51.2702C52.2858 38.9713 52.7276 39.2658 52.7159 39.9301C52.7042 40.5944 52.2909 40.8487 51.2986 40.8487H35.2102Z" fill="#1A242E"/>
<path d="M35.2102 40.8487H19.1217C18.106 40.8487 17.6526 40.5509 17.6643 39.8966C17.676 39.2424 18.1311 38.9713 19.1552 38.9713H51.2702C52.2858 38.9713 52.7276 39.2658 52.7159 39.9301C52.7042 40.5944 52.2909 40.8487 51.2986 40.8487H35.2102Z" fill="black" fill-opacity="0.2"/>
<path d="M40.9649 57.645C44.3884 57.645 47.8119 57.645 51.2354 57.645C51.4855 57.6351 51.736 57.6497 51.9833 57.6885C52.1918 57.7321 52.3786 57.847 52.5116 58.0135C52.6446 58.1799 52.7155 58.3874 52.7122 58.6004C52.7088 58.8134 52.6314 59.0186 52.4932 59.1807C52.355 59.3429 52.1647 59.4518 51.9549 59.4889C51.7274 59.518 51.498 59.5286 51.2688 59.5207H30.5404C30.435 59.5207 30.3313 59.5207 30.2275 59.5207C29.4779 59.4989 29.0797 59.166 29.088 58.5703C29.0964 57.9746 29.5013 57.6483 30.2593 57.6466C33.8267 57.641 37.3952 57.6405 40.9649 57.645Z" fill="#1A242E"/>
<path d="M40.9649 57.645C44.3884 57.645 47.8119 57.645 51.2354 57.645C51.4855 57.6351 51.736 57.6497 51.9833 57.6885C52.1918 57.7321 52.3786 57.847 52.5116 58.0135C52.6446 58.1799 52.7155 58.3874 52.7122 58.6004C52.7088 58.8134 52.6314 59.0186 52.4932 59.1807C52.355 59.3429 52.1647 59.4518 51.9549 59.4889C51.7274 59.518 51.498 59.5286 51.2688 59.5207H30.5404C30.435 59.5207 30.3313 59.5207 30.2275 59.5207C29.4779 59.4989 29.0797 59.166 29.088 58.5703C29.0964 57.9746 29.5013 57.6483 30.2593 57.6466C33.8267 57.641 37.3952 57.6405 40.9649 57.645Z" fill="black" fill-opacity="0.2"/>
</g>
<defs>
<clipPath id="clip0_194:648">
<rect width="60" height="64.128" fill="white" transform="translate(0 12)"/>
</clipPath>
</defs>
</svg>
