<svg width="77" height="70" viewBox="0 0 77 70" fill="none" xmlns="http://www.w3.org/2000/svg">
<ellipse cx="29.9029" cy="29.7872" rx="29.9029" ry="29.7872" fill="#34DECA"/>
<g clip-path="url(#clip0_78:622)">
<path d="M70.619 21.8211H72.4669C73.1115 21.8211 73.6342 21.3004 73.6342 20.6583C73.6342 20.0162 73.1115 19.4955 72.4669 19.4955H68.0311C67.3865 19.4955 66.8638 20.0162 66.8638 20.6583V25.0769C66.8638 25.719 67.3865 26.2397 68.0311 26.2397C68.6757 26.2397 69.1984 25.719 69.1984 25.0769V23.7975C72.7403 28.5209 74.6655 34.252 74.6655 40.2128C74.6655 55.3552 62.2985 67.6744 47.0972 67.6744C31.896 67.6744 19.529 55.3552 19.529 40.2128C19.529 25.0703 31.896 12.7511 47.0972 12.7511C48.2215 12.7511 49.353 12.8192 50.4605 12.9532C51.0996 13.0302 51.6825 12.5768 51.7602 11.9393C51.8381 11.3018 51.3824 10.7221 50.7423 10.6446C49.5416 10.4993 48.3153 10.4255 47.0972 10.4255C39.1099 10.4255 31.6005 13.5239 25.9527 19.15C20.3048 24.776 17.1943 32.2563 17.1943 40.2128C17.1943 48.1692 20.3048 55.6495 25.9527 61.2755C31.6005 66.9016 39.1099 70 47.0972 70C55.0846 70 62.594 66.9016 68.2418 61.2755C73.8897 55.6495 77.0002 48.1692 77.0002 40.2128C77.0002 33.4986 74.7484 27.053 70.619 21.8211Z" fill="#1A242E"/>
<path d="M70.619 21.8211H72.4669C73.1115 21.8211 73.6342 21.3004 73.6342 20.6583C73.6342 20.0162 73.1115 19.4955 72.4669 19.4955H68.0311C67.3865 19.4955 66.8638 20.0162 66.8638 20.6583V25.0769C66.8638 25.719 67.3865 26.2397 68.0311 26.2397C68.6757 26.2397 69.1984 25.719 69.1984 25.0769V23.7975C72.7403 28.5209 74.6655 34.252 74.6655 40.2128C74.6655 55.3552 62.2985 67.6744 47.0972 67.6744C31.896 67.6744 19.529 55.3552 19.529 40.2128C19.529 25.0703 31.896 12.7511 47.0972 12.7511C48.2215 12.7511 49.353 12.8192 50.4605 12.9532C51.0996 13.0302 51.6825 12.5768 51.7602 11.9393C51.8381 11.3018 51.3824 10.7221 50.7423 10.6446C49.5416 10.4993 48.3153 10.4255 47.0972 10.4255C39.1099 10.4255 31.6005 13.5239 25.9527 19.15C20.3048 24.776 17.1943 32.2563 17.1943 40.2128C17.1943 48.1692 20.3048 55.6495 25.9527 61.2755C31.6005 66.9016 39.1099 70 47.0972 70C55.0846 70 62.594 66.9016 68.2418 61.2755C73.8897 55.6495 77.0002 48.1692 77.0002 40.2128C77.0002 33.4986 74.7484 27.053 70.619 21.8211Z" fill="black" fill-opacity="0.2"/>
<path d="M29.8565 27.9854C29.3117 27.6419 28.5906 27.8035 28.2457 28.3458C25.5808 32.5384 24.4011 37.5806 24.924 42.5435C25.4545 47.5801 27.7302 52.3296 31.3318 55.9175C35.6783 60.2471 41.3878 62.412 47.0974 62.412C52.8069 62.412 58.5163 60.2473 62.8629 55.9175C71.556 47.258 71.556 33.1678 62.8629 24.5085C59.2668 20.9263 54.5066 18.6603 49.4588 18.1277C44.4858 17.6027 39.4296 18.7686 35.2225 21.4102C34.677 21.7526 34.5137 22.4707 34.8574 23.0139C35.2011 23.5573 35.9219 23.72 36.4673 23.3776C44.3978 18.3985 54.573 19.5396 61.212 26.1529C68.9948 33.9056 68.9948 46.5202 61.212 54.2729C53.4292 62.0258 40.7655 62.0258 32.9828 54.2729C26.4355 47.751 25.2729 37.3703 30.2183 29.59C30.563 29.0473 30.4011 28.329 29.8565 27.9854Z" fill="#1A242E"/>
<path d="M29.8565 27.9854C29.3117 27.6419 28.5906 27.8035 28.2457 28.3458C25.5808 32.5384 24.4011 37.5806 24.924 42.5435C25.4545 47.5801 27.7302 52.3296 31.3318 55.9175C35.6783 60.2471 41.3878 62.412 47.0974 62.412C52.8069 62.412 58.5163 60.2473 62.8629 55.9175C71.556 47.258 71.556 33.1678 62.8629 24.5085C59.2668 20.9263 54.5066 18.6603 49.4588 18.1277C44.4858 17.6027 39.4296 18.7686 35.2225 21.4102C34.677 21.7526 34.5137 22.4707 34.8574 23.0139C35.2011 23.5573 35.9219 23.72 36.4673 23.3776C44.3978 18.3985 54.573 19.5396 61.212 26.1529C68.9948 33.9056 68.9948 46.5202 61.212 54.2729C53.4292 62.0258 40.7655 62.0258 32.9828 54.2729C26.4355 47.751 25.2729 37.3703 30.2183 29.59C30.563 29.0473 30.4011 28.329 29.8565 27.9854Z" fill="black" fill-opacity="0.2"/>
<path d="M62.2723 41.3944H63.7118C64.3564 41.3944 64.8791 40.8737 64.8791 40.2316C64.8791 39.5895 64.3564 39.0688 63.7118 39.0688H62.2723C61.6277 39.0688 61.105 39.5895 61.105 40.2316C61.105 40.8737 61.6276 41.3944 62.2723 41.3944Z" fill="#1A242E"/>
<path d="M62.2723 41.3944H63.7118C64.3564 41.3944 64.8791 40.8737 64.8791 40.2316C64.8791 39.5895 64.3564 39.0688 63.7118 39.0688H62.2723C61.6277 39.0688 61.105 39.5895 61.105 40.2316C61.105 40.8737 61.6276 41.3944 62.2723 41.3944Z" fill="black" fill-opacity="0.2"/>
<path d="M29.3154 40.1938C29.3154 40.8359 29.8382 41.3566 30.4827 41.3566H31.9223C32.5669 41.3566 33.0896 40.8359 33.0896 40.1938C33.0896 39.5517 32.5669 39.031 31.9223 39.031H30.4827C29.8382 39.031 29.3154 39.5516 29.3154 40.1938Z" fill="#1A242E"/>
<path d="M29.3154 40.1938C29.3154 40.8359 29.8382 41.3566 30.4827 41.3566H31.9223C32.5669 41.3566 33.0896 40.8359 33.0896 40.1938C33.0896 39.5517 32.5669 39.031 31.9223 39.031H30.4827C29.8382 39.031 29.3154 39.5516 29.3154 40.1938Z" fill="black" fill-opacity="0.2"/>
<path d="M48.2834 25.0963V23.6623C48.2834 23.0202 47.7606 22.4995 47.116 22.4995C46.4715 22.4995 45.9487 23.0202 45.9487 23.6623V25.0963C45.9487 25.7384 46.4715 26.2591 47.116 26.2591C47.7606 26.2591 48.2834 25.7384 48.2834 25.0963Z" fill="#1A242E"/>
<path d="M48.2834 25.0963V23.6623C48.2834 23.0202 47.7606 22.4995 47.116 22.4995C46.4715 22.4995 45.9487 23.0202 45.9487 23.6623V25.0963C45.9487 25.7384 46.4715 26.2591 47.116 26.2591C47.7606 26.2591 48.2834 25.7384 48.2834 25.0963Z" fill="black" fill-opacity="0.2"/>
<path d="M45.9111 55.3293V56.7633C45.9111 57.4054 46.4339 57.9261 47.0784 57.9261C47.723 57.9261 48.2458 57.4054 48.2458 56.7633V55.3293C48.2458 54.6872 47.723 54.1665 47.0784 54.1665C46.4339 54.1665 45.9111 54.6871 45.9111 55.3293Z" fill="#1A242E"/>
<path d="M45.9111 55.3293V56.7633C45.9111 57.4054 46.4339 57.9261 47.0784 57.9261C47.723 57.9261 48.2458 57.4054 48.2458 56.7633V55.3293C48.2458 54.6872 47.723 54.1665 47.0784 54.1665C46.4339 54.1665 45.9111 54.6871 45.9111 55.3293Z" fill="black" fill-opacity="0.2"/>
<path d="M41.2462 32.7399C40.7903 32.2859 40.0514 32.2859 39.5953 32.7399C39.1395 33.1939 39.1395 33.9302 39.5953 34.3844L43.5514 38.3253C43.2483 38.8881 43.0759 39.5307 43.0759 40.2128C43.0759 42.4217 44.8799 44.2187 47.0973 44.2187C49.3147 44.2187 51.1187 42.4217 51.1187 40.2128C51.1187 39.5307 50.9462 38.8881 50.6431 38.3253L58.6256 30.3737C59.0814 29.9196 59.0814 29.1833 58.6256 28.7291C58.1696 28.2752 57.4307 28.2752 56.9746 28.7291L48.9922 36.6807C48.4272 36.3787 47.782 36.207 47.0973 36.207C46.4125 36.207 45.7674 36.3789 45.2024 36.6807L41.2462 32.7399ZM48.7841 40.2128C48.7841 41.1394 48.0274 41.8931 47.0973 41.8931C46.1672 41.8931 45.4105 41.1394 45.4105 40.2128C45.4105 39.2863 46.1672 38.5326 47.0973 38.5326C48.0274 38.5326 48.7841 39.2863 48.7841 40.2128Z" fill="#1A242E"/>
<path d="M41.2462 32.7399C40.7903 32.2859 40.0514 32.2859 39.5953 32.7399C39.1395 33.1939 39.1395 33.9302 39.5953 34.3844L43.5514 38.3253C43.2483 38.8881 43.0759 39.5307 43.0759 40.2128C43.0759 42.4217 44.8799 44.2187 47.0973 44.2187C49.3147 44.2187 51.1187 42.4217 51.1187 40.2128C51.1187 39.5307 50.9462 38.8881 50.6431 38.3253L58.6256 30.3737C59.0814 29.9196 59.0814 29.1833 58.6256 28.7291C58.1696 28.2752 57.4307 28.2752 56.9746 28.7291L48.9922 36.6807C48.4272 36.3787 47.782 36.207 47.0973 36.207C46.4125 36.207 45.7674 36.3789 45.2024 36.6807L41.2462 32.7399ZM48.7841 40.2128C48.7841 41.1394 48.0274 41.8931 47.0973 41.8931C46.1672 41.8931 45.4105 41.1394 45.4105 40.2128C45.4105 39.2863 46.1672 38.5326 47.0973 38.5326C48.0274 38.5326 48.7841 39.2863 48.7841 40.2128Z" fill="black" fill-opacity="0.2"/>
<path d="M32.9819 26.1521C33.2002 25.9359 33.3249 25.6359 33.3249 25.33C33.3249 25.0242 33.2002 24.7254 32.9819 24.5079C32.7647 24.2918 32.4646 24.1672 32.1566 24.1672C31.8496 24.1672 31.5484 24.2917 31.3313 24.5079C31.1143 24.7242 30.9893 25.0242 30.9893 25.33C30.9893 25.637 31.1142 25.9359 31.3313 26.1521C31.5484 26.3683 31.8496 26.4928 32.1566 26.4928C32.4646 26.4928 32.7647 26.3683 32.9819 26.1521Z" fill="#1A242E"/>
<path d="M32.9819 26.1521C33.2002 25.9359 33.3249 25.6359 33.3249 25.33C33.3249 25.0242 33.2002 24.7254 32.9819 24.5079C32.7647 24.2918 32.4646 24.1672 32.1566 24.1672C31.8496 24.1672 31.5484 24.2917 31.3313 24.5079C31.1143 24.7242 30.9893 25.0242 30.9893 25.33C30.9893 25.637 31.1142 25.9359 31.3313 26.1521C31.5484 26.3683 31.8496 26.4928 32.1566 26.4928C32.4646 26.4928 32.7647 26.3683 32.9819 26.1521Z" fill="black" fill-opacity="0.2"/>
<path d="M55.1834 13.8998C55.4917 13.8998 55.7929 13.7764 56.0099 13.5591C56.227 13.3428 56.352 13.0439 56.352 12.737C56.352 12.4312 56.2271 12.1312 56.0099 11.9149C55.7929 11.6988 55.4917 11.5742 55.1834 11.5742C54.8764 11.5742 54.5753 11.6986 54.3583 11.9149C54.1411 12.1312 54.0161 12.4312 54.0161 12.737C54.0161 13.044 54.141 13.3428 54.3583 13.5591C54.5753 13.7764 54.8764 13.8998 55.1834 13.8998Z" fill="#1A242E"/>
<path d="M55.1834 13.8998C55.4917 13.8998 55.7929 13.7764 56.0099 13.5591C56.227 13.3428 56.352 13.0439 56.352 12.737C56.352 12.4312 56.2271 12.1312 56.0099 11.9149C55.7929 11.6988 55.4917 11.5742 55.1834 11.5742C54.8764 11.5742 54.5753 11.6986 54.3583 11.9149C54.1411 12.1312 54.0161 12.4312 54.0161 12.737C54.0161 13.044 54.141 13.3428 54.3583 13.5591C54.5753 13.7764 54.8764 13.8998 55.1834 13.8998Z" fill="black" fill-opacity="0.2"/>
</g>
<defs>
<clipPath id="clip0_78:622">
<rect width="59.8058" height="59.5745" fill="white" transform="translate(17.1943 10.4255)"/>
</clipPath>
</defs>
</svg>
