<svg width="40" height="40" viewBox="0 0 40 40" fill="none" xmlns="http://www.w3.org/2000/svg">
<circle cx="20" cy="20" r="20" fill="#0595F0"/>
<path d="M25.18 23.44C25.18 24.52 24.78 25.44 23.98 26.2C23.1933 26.9467 22.0467 27.4 20.54 27.56V29.8H18.9V27.58C17.9133 27.5133 16.98 27.3333 16.1 27.04C15.22 26.7467 14.52 26.3733 14 25.92L14.9 23.9C15.3933 24.3 15.9933 24.64 16.7 24.92C17.4067 25.1867 18.14 25.3533 18.9 25.42V21.42C17.9533 21.1933 17.16 20.9467 16.52 20.68C15.8933 20.4 15.3667 20 14.94 19.48C14.5133 18.9467 14.3 18.2467 14.3 17.38C14.3 16.3 14.6933 15.38 15.48 14.62C16.2667 13.86 17.4067 13.4067 18.9 13.26V11H20.54V13.22C21.2867 13.26 22.0133 13.3867 22.72 13.6C23.44 13.8133 24.0667 14.0933 24.6 14.44L23.78 16.46C22.7667 15.8733 21.6867 15.5133 20.54 15.38V19.42C21.5 19.6467 22.2933 19.8933 22.92 20.16C23.56 20.4267 24.0933 20.8267 24.52 21.36C24.96 21.88 25.18 22.5733 25.18 23.44ZM16.88 17.26C16.88 17.7 17.0533 18.0533 17.4 18.32C17.7467 18.5867 18.2467 18.8133 18.9 19V15.44C18.22 15.5467 17.7133 15.76 17.38 16.08C17.0467 16.4 16.88 16.7933 16.88 17.26ZM20.54 25.38C21.2467 25.2733 21.7667 25.0667 22.1 24.76C22.4467 24.4533 22.62 24.0733 22.62 23.62C22.62 23.1667 22.44 22.8067 22.08 22.54C21.72 22.26 21.2067 22.0267 20.54 21.84V25.38Z" fill="white"/>
</svg>
