<svg width="40" height="40" viewBox="0 0 40 40" fill="none" xmlns="http://www.w3.org/2000/svg">
<circle cx="20" cy="20" r="20" fill="#0595F0"/>
<path d="M15.5555 12.8887H25.5555V13.7498H15.5555V12.8887Z" fill="white"/>
<path d="M26.1112 14.4447H15.4778C15.336 14.4427 15.1961 14.4119 15.0666 14.3544C14.937 14.2969 14.8204 14.2137 14.7238 14.1098C14.6273 14.006 14.5527 13.8837 14.5047 13.7503C14.4567 13.6169 14.4362 13.4751 14.4445 13.3336C14.4438 13.0519 14.5501 12.7804 14.742 12.5741C14.9338 12.3679 15.1968 12.2422 15.4778 12.2224H26.1112C26.2585 12.2224 26.3998 12.1639 26.504 12.0597C26.6082 11.9555 26.6667 11.8142 26.6667 11.6669C26.6667 11.5195 26.6082 11.3782 26.504 11.274C26.3998 11.1699 26.2585 11.1113 26.1112 11.1113H15.4778C14.902 11.1315 14.3566 11.3745 13.9565 11.7891C13.5564 12.2037 13.333 12.7574 13.3334 13.3336C13.328 13.4242 13.328 13.5151 13.3334 13.6058C13.328 13.6501 13.328 13.6948 13.3334 13.7391V26.6669C13.333 27.243 13.5564 27.7968 13.9565 28.2114C14.3566 28.6259 14.902 28.8689 15.4778 28.8891H26.1112C26.2585 28.8891 26.3998 28.8306 26.504 28.7264C26.6082 28.6222 26.6667 28.4809 26.6667 28.3336V15.1391V15.0891V15.0391C26.667 14.888 26.6098 14.7424 26.5066 14.6319C26.4034 14.5215 26.262 14.4545 26.1112 14.4447Z" fill="white"/>
</svg>
