<svg width="40" height="40" viewBox="0 0 40 40" fill="none" xmlns="http://www.w3.org/2000/svg">
<circle cx="20" cy="20" r="20" fill="#0595F0"/>
<path d="M20 23C21.6569 23 23 21.6569 23 20C23 18.3431 21.6569 17 20 17C18.3431 17 17 18.3431 17 20C17 21.6569 18.3431 23 20 23Z" fill="white"/>
<path d="M21 12.069V10H19V12.069C17.2402 12.2934 15.6047 13.0957 14.3502 14.3502C13.0957 15.6047 12.2934 17.2402 12.069 19H10V21H12.069C12.2932 22.7599 13.0955 24.3955 14.35 25.65C15.6045 26.9045 17.2401 27.7068 19 27.931V30H21V27.931C22.7599 27.7068 24.3955 26.9045 25.65 25.65C26.9045 24.3955 27.7068 22.7599 27.931 21H30V19H27.931C27.7066 17.2402 26.9043 15.6047 25.6498 14.3502C24.3953 13.0957 22.7598 12.2934 21 12.069ZM20 26C16.691 26 14 23.309 14 20C14 16.691 16.691 14 20 14C23.309 14 26 16.691 26 20C26 23.309 23.309 26 20 26Z" fill="white"/>
</svg>
