<svg width="24" height="24" viewBox="0 0 24 24" fill="none" xmlns="http://www.w3.org/2000/svg">
<path d="M12.0002 7.83472C9.7064 7.83472 7.83453 9.70659 7.83453 12.0003C7.83453 14.2941 9.7064 16.166 12.0002 16.166C14.2939 16.166 16.1658 14.2941 16.1658 12.0003C16.1658 9.70659 14.2939 7.83472 12.0002 7.83472ZM24.4939 12.0003C24.4939 10.2753 24.5095 8.56596 24.4127 6.84409C24.3158 4.84409 23.8595 3.06909 22.397 1.60659C20.9314 0.140968 19.1595 -0.312157 17.1595 -0.409032C15.4345 -0.505906 13.7252 -0.490281 12.0033 -0.490281C10.2783 -0.490281 8.5689 -0.505906 6.84703 -0.409032C4.84703 -0.312157 3.07203 0.144093 1.60952 1.60659C0.143899 3.07222 -0.309227 4.84409 -0.406102 6.84409C-0.502977 8.56909 -0.487352 10.2785 -0.487352 12.0003C-0.487352 13.7222 -0.502977 15.4347 -0.406102 17.1566C-0.309227 19.1566 0.147024 20.9316 1.60952 22.3941C3.07515 23.8597 4.84703 24.3128 6.84703 24.4097C8.57203 24.5066 10.2814 24.491 12.0033 24.491C13.7283 24.491 15.4377 24.5066 17.1595 24.4097C19.1595 24.3128 20.9345 23.8566 22.397 22.3941C23.8627 20.9285 24.3158 19.1566 24.4127 17.1566C24.5127 15.4347 24.4939 13.7253 24.4939 12.0003ZM12.0002 18.4097C8.45328 18.4097 5.59078 15.5472 5.59078 12.0003C5.59078 8.45347 8.45328 5.59097 12.0002 5.59097C15.547 5.59097 18.4095 8.45347 18.4095 12.0003C18.4095 15.5472 15.547 18.4097 12.0002 18.4097ZM18.672 6.82534C17.8439 6.82534 17.1752 6.15659 17.1752 5.32847C17.1752 4.50034 17.8439 3.83159 18.672 3.83159C19.5002 3.83159 20.1689 4.50034 20.1689 5.32847C20.1692 5.52511 20.1306 5.71987 20.0555 5.90159C19.9803 6.08331 19.8701 6.24842 19.731 6.38747C19.592 6.52651 19.4269 6.63676 19.2452 6.7119C19.0634 6.78704 18.8687 6.82559 18.672 6.82534Z" fill="black"/>
</svg>
